<svg width="400" height="400" viewBox="0 0 400 400" fill="none" xmlns="http://www.w3.org/2000/svg">
<path d="M203.835 75.3581C203.489 75.3207 203.21 75.1708 202.999 74.9084C202.788 74.6459 202.701 74.3417 202.738 73.9955L204.005 62.2723C204.042 61.9261 204.192 61.6474 204.454 61.4362C204.719 61.2067 205.024 61.1107 205.37 61.148C205.716 61.1854 205.994 61.3444 206.203 61.6251C206.433 61.8895 206.529 62.1947 206.491 62.5409L206.37 63.6613C206.959 62.9877 207.634 62.4524 208.396 62.0555C209.176 61.6605 210.14 61.525 211.287 61.649C212.308 61.7592 213.153 62.1269 213.822 62.7522C214.492 63.3775 214.939 64.0985 215.164 64.9153C216.497 63.1609 218.274 62.4037 220.497 62.6438C221.517 62.754 222.336 63.1006 222.955 63.6835C223.593 64.2684 224.032 64.9793 224.273 65.8163C224.514 66.6533 224.588 67.5091 224.493 68.3835L223.643 76.2537C223.606 76.5998 223.447 76.8776 223.166 77.0868C222.904 77.2981 222.6 77.385 222.253 77.3476C221.907 77.3102 221.629 77.1603 221.417 76.8979C221.206 76.6355 221.119 76.3312 221.157 75.9851L221.954 68.6068C222.082 67.4226 221.965 66.5346 221.605 65.9428C221.247 65.3328 220.558 64.9727 219.538 64.8625C218.609 64.7621 217.808 64.9245 217.136 65.3494C216.483 65.7582 215.878 66.3286 215.32 67.0608L214.434 75.2589C214.397 75.6051 214.238 75.8828 213.957 76.0921C213.695 76.3033 213.39 76.3902 213.044 76.3529C212.698 76.3155 212.419 76.1656 212.208 75.9031C211.997 75.6407 211.91 75.3364 211.947 74.9903L212.744 67.612C212.872 66.4279 212.756 65.5399 212.396 64.9481C212.038 64.338 211.349 63.9779 210.329 63.8677C209.4 63.7674 208.599 63.9297 207.926 64.3547C207.274 64.7634 206.669 65.3338 206.111 66.0661L205.225 74.2641C205.188 74.6103 205.029 74.888 204.748 75.0973C204.486 75.3085 204.181 75.3955 203.835 75.3581Z" fill="black"/>
<path d="M232.403 80.0586C231.629 79.8331 230.954 79.4646 230.378 78.9532C229.819 78.4469 229.433 77.8383 229.221 77.1274C229.013 76.3989 229.024 75.6388 229.255 74.8472C229.634 73.5453 230.447 72.656 231.693 72.1791C232.956 71.7074 234.582 71.7611 236.57 72.3403L239.763 73.2705L239.824 73.0594C240.163 71.8982 240.116 70.978 239.684 70.2987C239.27 69.6245 238.455 69.1106 237.242 68.757C236.573 68.5622 235.96 68.4408 235.401 68.3926C234.86 68.3495 234.242 68.3413 233.547 68.3679C233.396 68.3621 233.277 68.3463 233.189 68.3207C232.925 68.2438 232.725 68.0805 232.587 67.8306C232.45 67.5807 232.423 67.315 232.505 67.0335C232.643 66.5585 232.969 66.2909 233.483 66.2306C235.163 66.0329 236.777 66.1595 238.325 66.6105C239.539 66.9642 240.487 67.5077 241.171 68.2412C241.872 68.9798 242.3 69.8013 242.457 70.7057C242.636 71.5977 242.592 72.5011 242.326 73.4159L240.15 80.884C240.053 81.2182 239.848 81.4638 239.535 81.6208C239.239 81.7829 238.925 81.8152 238.59 81.7178C238.256 81.6205 238.008 81.4241 237.846 81.1288C237.684 80.8334 237.651 80.5187 237.749 80.1844L237.949 79.4983C236.257 80.4561 234.409 80.6428 232.403 80.0586ZM233.916 78.2088C234.69 78.4343 235.491 78.4674 236.32 78.3081C237.154 78.1312 237.899 77.833 238.556 77.4135L239.202 75.1969L236.325 74.3589C233.669 73.585 232.138 73.893 231.733 75.2828C231.549 75.9162 231.611 76.4879 231.921 76.9979C232.248 77.5131 232.913 77.9167 233.916 78.2088Z" fill="black"/>
<path d="M246.144 84.435C245.826 84.2942 245.606 84.0667 245.484 83.7525C245.363 83.4382 245.372 83.1219 245.513 82.8035L252.728 66.4893C252.869 66.1709 253.096 65.9509 253.41 65.8294C253.732 65.6911 254.052 65.6924 254.37 65.8332C254.689 65.974 254.905 66.2099 255.019 66.5409C255.157 66.8625 255.156 67.1825 255.015 67.5009L250.469 77.7822L258.897 74.8977C259.245 74.791 259.544 74.7932 259.796 74.9044C260.181 75.0749 260.409 75.3061 260.481 75.598C260.569 75.8974 260.546 76.1979 260.413 76.4996C260.287 76.7845 260.018 77.0064 259.607 77.1653L254.553 78.8072L256.435 86.8523C256.507 87.1443 256.49 87.4076 256.387 87.6422C256.238 87.9774 256.011 88.1974 255.704 88.3021C255.397 88.4069 255.076 88.3851 254.741 88.2369C254.573 88.1628 254.424 88.0468 254.294 87.8889C254.163 87.731 254.073 87.5507 254.022 87.348L252.3 79.5537L249.235 80.5724L247.801 83.8152C247.66 84.1336 247.424 84.3498 247.093 84.4639C246.779 84.5854 246.462 84.5758 246.144 84.435Z" fill="black"/>
<path d="M264.912 94.1088C263.006 92.9409 261.844 91.4876 261.427 89.7489C261.035 88.0042 261.442 86.1476 262.648 84.1789C263.327 83.0696 264.158 82.1706 265.138 81.4821C266.119 80.7935 267.208 80.4187 268.406 80.3576C269.604 80.2964 270.82 80.644 272.054 81.4003C273.211 82.1087 274.043 82.9948 274.552 84.0587C275.07 85.1068 275.27 86.2181 275.152 87.3923C275.044 88.551 274.665 89.6615 274.014 90.724C273.832 91.0208 273.577 91.2086 273.249 91.2873C272.937 91.3755 272.617 91.3191 272.289 91.118L264.344 86.25C263.799 87.4203 263.684 88.5207 263.998 89.5513C264.312 90.5819 265.086 91.4753 266.32 92.2316C266.977 92.6337 267.585 92.9206 268.146 93.0924C268.723 93.2737 269.317 93.3908 269.93 93.4437C270.093 93.4578 270.253 93.5127 270.409 93.6084C270.659 93.7616 270.825 93.9815 270.907 94.2683C270.989 94.555 270.949 94.8312 270.786 95.0968C270.576 95.4406 270.195 95.6052 269.646 95.5906C268.826 95.561 268.066 95.4502 267.367 95.2583C266.668 95.0664 265.85 94.6832 264.912 94.1088ZM272.321 88.7519C272.743 87.9576 272.932 87.1926 272.889 86.4568C272.861 85.7305 272.661 85.0923 272.289 84.542C271.927 83.9761 271.48 83.5304 270.949 83.2049C270.418 82.8794 269.818 82.6837 269.149 82.6178C268.49 82.5362 267.83 82.6479 267.17 82.9529C266.511 83.2579 265.923 83.7788 265.407 84.5157L272.321 88.7519Z" fill="black"/>
<path d="M284.941 109.405C283.308 107.877 282.463 106.22 282.403 104.433C282.37 102.645 283.142 100.908 284.72 99.2222C285.609 98.2723 286.603 97.5588 287.702 97.0815C288.801 96.6043 289.943 96.4563 291.129 96.6374C292.315 96.8185 293.436 97.4036 294.493 98.3927C295.483 99.3192 296.12 100.355 296.405 101.499C296.701 102.63 296.674 103.759 296.322 104.885C295.983 105.999 295.388 107.01 294.537 107.92C294.299 108.174 294.011 108.307 293.675 108.318C293.351 108.342 293.049 108.222 292.768 107.959L285.965 101.592C285.196 102.629 284.861 103.684 284.961 104.756C285.062 105.829 285.641 106.86 286.697 107.849C287.259 108.375 287.798 108.778 288.313 109.06C288.841 109.353 289.4 109.587 289.989 109.762C290.146 109.809 290.291 109.895 290.425 110.02C290.639 110.221 290.758 110.469 290.781 110.767C290.803 111.064 290.708 111.327 290.496 111.554C290.22 111.848 289.815 111.933 289.279 111.808C288.482 111.614 287.76 111.353 287.114 111.024C286.468 110.696 285.743 110.156 284.941 109.405ZM293.275 105.648C293.848 104.954 294.188 104.243 294.293 103.514C294.412 102.797 294.345 102.131 294.091 101.517C293.85 100.89 293.502 100.364 293.047 99.938C292.592 99.5123 292.044 99.1999 291.402 99.0008C290.773 98.7883 290.104 98.765 289.397 98.9311C288.689 99.0972 288.008 99.4892 287.355 100.107L293.275 105.648Z" fill="black"/>
<path d="M295.518 120.622C293.786 118.582 293.843 116.78 295.687 115.214L302.182 109.7L300.919 108.212C300.824 108.101 300.776 107.973 300.775 107.83C300.8 107.689 300.868 107.571 300.98 107.476C301.119 107.358 301.291 107.32 301.496 107.362L306.702 107.846C306.934 107.865 307.098 107.931 307.193 108.042C307.288 108.154 307.323 108.281 307.298 108.422C307.286 108.577 307.223 108.701 307.112 108.796L305.435 110.219L307.446 112.587C307.647 112.825 307.736 113.085 307.713 113.37C307.69 113.654 307.56 113.896 307.322 114.098C307.099 114.288 306.838 114.377 306.54 114.366C306.256 114.342 306.013 114.212 305.811 113.975L303.801 111.607L297.473 116.979C296.928 117.441 296.686 117.864 296.746 118.245C296.831 118.629 297.04 119.017 297.372 119.408C297.609 119.688 297.888 119.931 298.209 120.14C298.271 120.184 298.332 120.228 298.393 120.272C298.467 120.33 298.545 120.407 298.628 120.505C298.794 120.701 298.865 120.941 298.842 121.225C298.833 121.497 298.723 121.722 298.514 121.9C298.193 122.173 297.812 122.22 297.371 122.041C296.657 121.709 296.04 121.236 295.518 120.622Z" fill="black"/>
<path d="M300.773 126.97C300.581 126.68 300.519 126.369 300.586 126.039C300.653 125.709 300.832 125.448 301.123 125.256L316.005 115.421C316.295 115.229 316.606 115.167 316.936 115.234C317.281 115.292 317.55 115.465 317.742 115.756C317.934 116.046 317.988 116.362 317.906 116.702C317.848 117.047 317.674 117.316 317.384 117.508L311.399 121.463C312.425 121.62 313.351 121.908 314.178 122.328C315.005 122.748 315.721 123.417 316.327 124.334C316.883 125.175 317.164 126.032 317.171 126.907C317.188 127.796 316.958 128.629 316.482 129.404C316.017 130.195 315.371 130.863 314.545 131.409L308.033 135.713C307.743 135.905 307.427 135.959 307.087 135.877C306.757 135.809 306.496 135.63 306.304 135.34C306.112 135.049 306.05 134.739 306.117 134.409C306.185 134.079 306.364 133.818 306.654 133.626L312.937 129.474C314.802 128.241 315.179 126.784 314.068 125.103C313.563 124.338 312.909 123.782 312.108 123.433C311.316 123.099 310.407 122.887 309.381 122.797L302.502 127.343C302.211 127.535 301.896 127.59 301.556 127.507C301.226 127.439 300.965 127.261 300.773 126.97Z" fill="black"/>
<path d="M312.33 146.978C311.372 144.959 311.194 143.106 311.794 141.422C312.419 139.747 313.775 138.415 315.861 137.425C317.037 136.868 318.223 136.569 319.421 136.528C320.618 136.488 321.735 136.769 322.772 137.373C323.809 137.976 324.637 138.932 325.257 140.24C325.838 141.465 326.051 142.662 325.895 143.831C325.756 144.992 325.317 146.032 324.576 146.951C323.852 147.862 322.927 148.585 321.802 149.119C321.487 149.268 321.171 149.286 320.854 149.173C320.544 149.076 320.307 148.854 320.142 148.506L316.15 140.087C315.054 140.769 314.356 141.627 314.055 142.662C313.755 143.697 313.915 144.868 314.535 146.176C314.865 146.871 315.218 147.444 315.594 147.895C315.977 148.362 316.411 148.785 316.895 149.164C317.024 149.265 317.128 149.398 317.206 149.564C317.332 149.829 317.351 150.104 317.263 150.389C317.175 150.674 316.99 150.883 316.709 151.016C316.345 151.189 315.936 151.119 315.484 150.806C314.813 150.333 314.238 149.826 313.757 149.283C313.277 148.74 312.801 147.972 312.33 146.978ZM321.462 146.542C322.25 146.107 322.826 145.57 323.192 144.93C323.566 144.307 323.747 143.663 323.737 142.999C323.742 142.327 323.612 141.71 323.345 141.147C323.078 140.584 322.682 140.092 322.158 139.671C321.651 139.243 321.038 138.976 320.319 138.871C319.6 138.766 318.823 138.88 317.988 139.215L321.462 146.542Z" fill="black"/>
<path d="M317.006 157.824C316.894 157.495 316.912 157.179 317.061 156.876C317.209 156.574 317.448 156.367 317.778 156.254L328.939 152.451C329.269 152.338 329.585 152.357 329.887 152.505C330.207 152.648 330.423 152.884 330.535 153.214C330.647 153.543 330.62 153.862 330.454 154.17C330.312 154.49 330.075 154.706 329.746 154.818L328.627 155.2C330.671 155.858 331.951 156.942 332.465 158.451L332.509 158.581C332.621 158.91 332.6 159.218 332.446 159.503C332.297 159.805 332.058 160.012 331.728 160.124C331.399 160.237 331.092 160.216 330.807 160.061C330.522 159.907 330.32 159.656 330.202 159.309L330.158 159.179C329.874 158.346 329.406 157.654 328.753 157.102C328.118 156.544 327.365 156.153 326.494 155.927L318.585 158.622C318.255 158.734 317.936 158.707 317.628 158.541C317.326 158.393 317.119 158.154 317.006 157.824Z" fill="black"/>
<path d="M321.399 173.722C320.926 171.537 321.174 169.693 322.142 168.19C323.131 166.701 324.755 165.712 327.011 165.223C328.283 164.947 329.506 164.926 330.681 165.159C331.857 165.392 332.881 165.92 333.753 166.744C334.625 167.567 335.214 168.686 335.52 170.101C335.808 171.426 335.742 172.64 335.325 173.743C334.926 174.842 334.261 175.755 333.331 176.481C332.419 177.204 331.354 177.697 330.136 177.961C329.796 178.034 329.484 177.98 329.201 177.798C328.921 177.633 328.741 177.363 328.659 176.987L326.687 167.88C325.464 168.295 324.589 168.972 324.061 169.911C323.534 170.851 323.423 172.028 323.729 173.443C323.892 174.195 324.106 174.833 324.369 175.357C324.636 175.899 324.963 176.41 325.348 176.889C325.45 177.016 325.521 177.17 325.56 177.349C325.622 177.635 325.578 177.908 325.427 178.165C325.277 178.423 325.049 178.584 324.745 178.65C324.351 178.736 323.969 178.575 323.6 178.167C323.054 177.554 322.61 176.929 322.265 176.291C321.921 175.653 321.632 174.797 321.399 173.722ZM330.391 175.374C331.257 175.131 331.941 174.739 332.443 174.199C332.948 173.677 333.271 173.091 333.412 172.442C333.571 171.789 333.584 171.158 333.452 170.549C333.32 169.94 333.047 169.371 332.632 168.842C332.236 168.31 331.699 167.91 331.023 167.644C330.347 167.378 329.564 167.313 328.675 167.45L330.391 175.374Z" fill="black"/>
<path d="M323.71 188.894C323.637 187.889 323.81 186.994 324.23 186.21C324.652 185.444 325.26 184.831 326.053 184.368C326.847 183.925 327.738 183.667 328.725 183.595L336.51 183.026C336.857 183.001 337.158 183.098 337.413 183.318C337.669 183.557 337.81 183.85 337.835 184.197C337.861 184.544 337.763 184.845 337.543 185.1C337.323 185.355 337.039 185.495 336.692 185.521L329.181 186.069C326.951 186.232 325.91 187.319 326.057 189.329C326.123 190.243 326.42 191.038 326.948 191.716C327.476 192.413 328.166 193.051 329.017 193.632L337.241 193.032C337.588 193.006 337.889 193.104 338.144 193.324C338.4 193.562 338.541 193.855 338.566 194.203C338.592 194.55 338.494 194.851 338.274 195.106C338.054 195.361 337.77 195.501 337.423 195.526L325.663 196.385C325.315 196.411 325.005 196.314 324.732 196.095C324.477 195.875 324.337 195.591 324.312 195.244C324.286 194.896 324.383 194.586 324.602 194.313C324.84 194.057 325.133 193.916 325.48 193.891L326.604 193.809C325.786 193.17 325.119 192.466 324.604 191.695C324.088 190.924 323.79 189.99 323.71 188.894Z" fill="black"/>
<path d="M324.642 203.819C324.679 203.473 324.829 203.194 325.092 202.983C325.354 202.771 325.658 202.684 326.004 202.722L337.728 203.987C338.074 204.025 338.353 204.175 338.564 204.437C338.793 204.702 338.889 205.007 338.852 205.353C338.815 205.699 338.656 205.977 338.375 206.186C338.111 206.416 337.805 206.512 337.459 206.474L336.339 206.353C337.013 206.942 337.548 207.617 337.945 208.379C338.34 209.159 338.475 210.123 338.351 211.27C338.241 212.291 337.874 213.136 337.248 213.805C336.623 214.475 335.902 214.922 335.085 215.148C336.84 216.48 337.597 218.257 337.357 220.48C337.247 221.5 336.901 222.319 336.318 222.938C335.733 223.576 335.022 224.015 334.185 224.256C333.348 224.498 332.492 224.571 331.618 224.477L323.747 223.627C323.401 223.59 323.124 223.431 322.914 223.15C322.703 222.888 322.616 222.583 322.653 222.237C322.691 221.891 322.841 221.612 323.103 221.401C323.366 221.19 323.67 221.103 324.016 221.14L331.394 221.937C332.578 222.065 333.466 221.949 334.058 221.589C334.668 221.231 335.028 220.541 335.138 219.521C335.239 218.592 335.076 217.791 334.651 217.119C334.243 216.466 333.672 215.861 332.94 215.303L324.742 214.418C324.396 214.38 324.118 214.221 323.909 213.941C323.697 213.678 323.61 213.374 323.648 213.028C323.685 212.682 323.835 212.403 324.097 212.192C324.36 211.981 324.664 211.894 325.01 211.931L332.389 212.728C333.573 212.855 334.461 212.739 335.052 212.379C335.662 212.021 336.023 211.332 336.133 210.312C336.233 209.383 336.071 208.582 335.646 207.91C335.237 207.257 334.666 206.652 333.934 206.094L325.736 205.209C325.39 205.171 325.112 205.012 324.903 204.732C324.692 204.469 324.605 204.165 324.642 203.819Z" fill="black"/>
<path d="M316.51 243.079C316.959 241.838 317.649 240.792 318.581 239.941C319.513 239.089 320.611 238.532 321.875 238.269C323.134 238.022 324.461 238.152 325.856 238.657C327.252 239.162 328.354 239.912 329.164 240.907C329.967 241.918 330.454 243.049 330.625 244.3C330.796 245.551 330.657 246.796 330.208 248.037C329.877 248.95 329.473 249.69 328.995 250.258C328.527 250.849 328.01 251.363 327.442 251.8C327.094 252.064 326.73 252.127 326.351 251.99C326.092 251.896 325.888 251.706 325.739 251.418C325.601 251.154 325.579 250.892 325.672 250.634C325.741 250.444 325.861 250.273 326.033 250.121C326.532 249.659 326.916 249.242 327.187 248.873C327.468 248.526 327.718 248.051 327.936 247.448C328.472 245.967 328.462 244.648 327.907 243.492C327.368 242.342 326.401 241.514 325.005 241.009C323.609 240.504 322.328 240.518 321.161 241.05C320.011 241.589 319.168 242.599 318.632 244.081C318.413 244.684 318.293 245.205 318.27 245.645C318.258 246.109 318.296 246.678 318.383 247.352C318.418 247.579 318.401 247.787 318.332 247.977C318.239 248.235 318.046 248.419 317.753 248.527C317.471 248.659 317.201 248.678 316.943 248.585C316.564 248.448 316.325 248.166 316.225 247.741C316.069 247.041 315.992 246.312 315.994 245.552C316.007 244.817 316.179 243.992 316.51 243.079Z" fill="black"/>
<path d="M310.19 257.321C310.848 256.072 311.692 255.119 312.722 254.46C313.752 253.802 314.891 253.469 316.137 253.463C317.39 253.481 318.649 253.823 319.914 254.489C321.179 255.155 322.165 255.996 322.873 257.01C323.589 258.05 323.967 259.181 324.006 260.403C324.046 261.625 323.737 262.861 323.08 264.109C322.431 265.341 321.591 266.287 320.561 266.945C319.531 267.604 318.384 267.932 317.122 267.93C315.876 267.936 314.621 267.607 313.356 266.941C312.092 266.275 311.101 265.422 310.386 264.382C309.686 263.351 309.317 262.224 309.277 261.002C309.237 259.78 309.542 258.553 310.19 257.321ZM312.209 258.384C311.859 259.049 311.68 259.762 311.672 260.524C311.656 261.302 311.877 262.061 312.337 262.8C312.788 263.556 313.525 264.202 314.546 264.74C315.551 265.27 316.493 265.507 317.371 265.452C318.241 265.413 318.984 265.162 319.6 264.699C320.224 264.262 320.711 263.711 321.061 263.046C321.42 262.365 321.607 261.635 321.624 260.857C321.648 260.103 321.43 259.357 320.97 258.618C320.51 257.879 319.778 257.244 318.773 256.715C317.751 256.177 316.806 255.928 315.936 255.967C315.066 256.006 314.32 256.244 313.696 256.682C313.063 257.135 312.568 257.703 312.209 258.384Z" fill="black"/>
<path d="M300.7 272.683C301.531 271.543 302.505 270.722 303.62 270.22C304.734 269.718 305.909 269.554 307.143 269.728C308.38 269.928 309.577 270.449 310.731 271.291C311.886 272.134 312.74 273.108 313.293 274.215C313.851 275.347 314.061 276.521 313.923 277.736C313.785 278.951 313.3 280.129 312.469 281.268C311.648 282.394 310.68 283.207 309.566 283.709C308.451 284.212 307.269 284.37 306.02 284.185C304.787 284.011 303.592 283.503 302.438 282.661C301.283 281.818 300.427 280.831 299.869 279.698C299.327 278.577 299.124 277.408 299.262 276.193C299.4 274.978 299.879 273.808 300.7 272.683ZM302.543 274.028C302.1 274.635 301.82 275.315 301.701 276.068C301.572 276.835 301.682 277.618 302.029 278.416C302.366 279.229 303.001 279.976 303.934 280.656C304.852 281.326 305.749 281.697 306.626 281.769C307.492 281.857 308.264 281.716 308.94 281.348C309.621 281.006 310.183 280.531 310.626 279.924C311.079 279.302 311.371 278.608 311.5 277.84C311.633 277.098 311.526 276.328 311.178 275.53C310.83 274.731 310.197 273.998 309.279 273.328C308.347 272.648 307.447 272.264 306.581 272.176C305.715 272.089 304.942 272.217 304.261 272.559C303.569 272.916 302.997 273.406 302.543 274.028Z" fill="black"/>
<path d="M292.614 282.934C292.848 282.676 293.132 282.538 293.469 282.521C293.805 282.504 294.103 282.612 294.361 282.846L307.595 294.807C307.853 295.04 307.991 295.325 308.008 295.662C308.038 296.011 307.937 296.314 307.704 296.572C307.458 296.844 307.167 296.989 306.83 297.006C306.494 297.023 306.19 296.908 305.918 296.663L292.684 284.701C292.426 284.468 292.294 284.176 292.289 283.826C292.272 283.49 292.381 283.192 292.614 282.934Z" fill="black"/>
<path d="M278.994 295.851C279.627 295.35 280.318 295.013 281.069 294.839C281.805 294.677 282.524 294.715 283.227 294.953C283.941 295.205 284.554 295.655 285.066 296.301C285.908 297.364 286.163 298.542 285.83 299.834C285.483 301.137 284.498 302.431 282.875 303.717L280.267 305.781L280.404 305.954C281.155 306.902 281.932 307.397 282.736 307.438C283.526 307.49 284.416 307.124 285.407 306.339C285.953 305.907 286.407 305.477 286.77 305.05C287.118 304.633 287.483 304.134 287.864 303.553C287.956 303.433 288.038 303.344 288.11 303.288C288.325 303.117 288.574 303.048 288.858 303.081C289.141 303.114 289.373 303.245 289.555 303.475C289.862 303.863 289.892 304.284 289.643 304.737C288.832 306.222 287.794 307.464 286.53 308.465C285.539 309.25 284.546 309.709 283.553 309.841C282.545 309.985 281.627 309.859 280.799 309.463C279.968 309.092 279.257 308.534 278.665 307.787L273.836 301.689C273.62 301.416 273.538 301.106 273.592 300.76C273.63 300.426 273.786 300.15 274.059 299.934C274.332 299.718 274.636 299.629 274.971 299.668C275.305 299.707 275.581 299.863 275.797 300.136L276.24 300.696C276.439 298.763 277.357 297.147 278.994 295.851ZM279.627 298.155C278.995 298.655 278.504 299.289 278.154 300.058C277.815 300.84 277.627 301.62 277.588 302.399L279.022 304.209L281.37 302.349C283.54 300.631 284.175 299.204 283.276 298.07C282.867 297.552 282.364 297.272 281.769 297.229C281.16 297.198 280.446 297.506 279.627 298.155Z" fill="black"/>
<path d="M259.617 301.69C260.535 301.155 261.531 300.735 262.603 300.428C263.676 300.122 264.615 299.968 265.419 299.966C265.806 299.974 266.11 300.168 266.331 300.549C266.478 300.802 266.525 301.082 266.47 301.39C266.391 301.69 266.217 301.919 265.948 302.076C265.821 302.149 265.66 302.201 265.465 302.229C263.911 302.328 262.429 302.788 261.02 303.608C258.597 305.019 258.136 307.014 259.639 309.596L260.565 311.187C260.989 309.329 261.993 307.939 263.577 307.018C264.511 306.474 265.555 306.173 266.709 306.116C267.857 306.084 268.983 306.362 270.088 306.949C271.202 307.551 272.146 308.517 272.92 309.848C273.695 311.178 274.064 312.468 274.028 313.719C274.002 314.985 273.687 316.101 273.084 317.067C272.473 318.059 271.701 318.826 270.767 319.37C269.183 320.292 267.479 320.478 265.654 319.929L265.999 320.523C266.174 320.824 266.219 321.137 266.133 321.463C266.056 321.804 265.867 322.063 265.566 322.238C265.265 322.413 264.948 322.45 264.613 322.348C264.271 322.271 264.013 322.082 263.838 321.781L257.657 311.163C256.496 309.167 256.084 307.35 256.424 305.711C256.763 304.072 257.827 302.731 259.617 301.69ZM264.273 309.252C263.529 309.685 262.963 310.226 262.578 310.875C262.192 311.523 261.895 312.269 261.685 313.111L264.534 318.005C265.37 318.239 266.165 318.349 266.919 318.334C267.674 318.319 268.423 318.094 269.168 317.661C270.355 316.97 271.117 316.039 271.453 314.868C271.783 313.722 271.551 312.468 270.759 311.106C269.966 309.744 268.985 308.915 267.817 308.62C266.642 308.35 265.461 308.561 264.273 309.252Z" fill="black"/>
<path d="M248.739 314.274C249.486 313.973 250.245 313.845 251.014 313.89C251.766 313.942 252.446 314.182 253.052 314.609C253.666 315.053 254.127 315.658 254.436 316.422C254.943 317.68 254.854 318.881 254.17 320.026C253.469 321.179 252.158 322.142 250.238 322.916L247.154 324.16L247.236 324.364C247.688 325.486 248.294 326.18 249.054 326.447C249.796 326.72 250.754 326.62 251.927 326.147C252.572 325.887 253.13 325.603 253.598 325.295C254.05 324.995 254.541 324.619 255.07 324.168C255.192 324.08 255.296 324.018 255.381 323.984C255.636 323.881 255.894 323.885 256.157 323.997C256.419 324.108 256.605 324.3 256.715 324.572C256.9 325.031 256.809 325.443 256.443 325.808C255.245 327.002 253.898 327.901 252.403 328.504C251.23 328.977 250.149 329.137 249.158 328.983C248.15 328.836 247.305 328.456 246.623 327.842C245.931 327.252 245.406 326.515 245.05 325.631L242.141 318.417C242.01 318.094 242.02 317.774 242.169 317.457C242.3 317.147 242.528 316.927 242.851 316.797C243.173 316.667 243.49 316.668 243.8 316.8C244.11 316.931 244.33 317.159 244.46 317.482L244.728 318.144C245.464 316.346 246.801 315.056 248.739 314.274ZM248.694 316.663C247.947 316.965 247.296 317.434 246.743 318.072C246.197 318.727 245.796 319.422 245.54 320.158L246.403 322.299L249.182 321.179C251.748 320.144 252.76 318.955 252.219 317.613C251.972 317.001 251.569 316.59 251.011 316.381C250.435 316.178 249.663 316.272 248.694 316.663Z" fill="black"/>
<path d="M240.088 335.558C240.458 335.45 240.813 335.49 241.154 335.677C241.494 335.864 241.718 336.143 241.826 336.512L241.857 336.618C241.964 336.987 241.924 337.342 241.737 337.683C241.55 338.024 241.271 338.248 240.902 338.355L240.744 338.401C240.374 338.509 240.019 338.469 239.678 338.282C239.338 338.094 239.114 337.816 239.006 337.447L238.975 337.341C238.868 336.972 238.908 336.616 239.095 336.276C239.282 335.935 239.561 335.711 239.93 335.604L240.088 335.558ZM235.285 319.236C235.62 319.138 235.934 319.171 236.23 319.333C236.525 319.495 236.721 319.744 236.818 320.078L240.111 331.401C240.208 331.735 240.175 332.05 240.013 332.345C239.856 332.658 239.61 332.863 239.276 332.96C238.924 333.062 238.6 333.032 238.305 332.87C238.01 332.708 237.811 332.451 237.709 332.099L234.417 320.776C234.319 320.442 234.361 320.125 234.541 319.824C234.703 319.529 234.951 319.333 235.285 319.236Z" fill="black"/>
<path d="M227.405 321.407C227.748 321.345 228.058 321.411 228.334 321.604C228.61 321.796 228.779 322.064 228.84 322.407L230.914 334.014C230.976 334.357 230.91 334.667 230.717 334.943C230.528 335.238 230.262 335.415 229.919 335.477C229.576 335.538 229.265 335.463 228.986 335.252C228.691 335.063 228.513 334.797 228.452 334.454L228.254 333.345C227.704 334.225 227.072 334.961 226.359 335.554C225.646 336.147 224.748 336.54 223.666 336.733C222.674 336.911 221.775 336.829 220.97 336.489C220.146 336.152 219.473 335.612 218.949 334.868C218.407 334.127 218.049 333.27 217.875 332.295L216.502 324.611C216.441 324.268 216.516 323.957 216.726 323.678C216.919 323.401 217.187 323.232 217.529 323.171C217.872 323.11 218.182 323.176 218.458 323.368C218.734 323.561 218.903 323.828 218.965 324.171L220.289 331.585C220.682 333.786 221.871 334.709 223.855 334.354C224.757 334.193 225.527 333.814 226.165 333.216C226.784 332.621 227.339 331.87 227.828 330.964L226.378 322.847C226.317 322.504 226.392 322.193 226.602 321.913C226.795 321.637 227.063 321.468 227.405 321.407Z" fill="black"/>
<path d="M200.844 324.685C201.191 324.71 201.475 324.849 201.696 325.103C201.917 325.358 202.015 325.659 201.99 326.006L201.162 337.768C201.137 338.116 200.998 338.4 200.743 338.62C200.488 338.86 200.186 338.967 199.839 338.943C199.492 338.918 199.208 338.769 198.989 338.497C198.749 338.241 198.642 337.94 198.667 337.592L198.746 336.468C198.182 337.163 197.528 337.723 196.781 338.148C196.017 338.572 195.059 338.743 193.907 338.662C192.883 338.59 192.025 338.254 191.333 337.654C190.64 337.054 190.166 336.351 189.911 335.543C188.645 337.345 186.897 338.168 184.667 338.011C183.644 337.939 182.812 337.623 182.171 337.064C181.513 336.503 181.047 335.809 180.775 334.982C180.503 334.154 180.397 333.302 180.459 332.424L181.016 324.528C181.04 324.181 181.189 323.897 181.461 323.678C181.716 323.457 182.017 323.359 182.364 323.383C182.711 323.407 182.995 323.547 183.216 323.801C183.437 324.056 183.535 324.356 183.511 324.704L182.989 332.107C182.905 333.295 183.054 334.178 183.436 334.756C183.817 335.352 184.519 335.686 185.542 335.758C186.474 335.824 187.269 335.632 187.925 335.182C188.562 334.75 189.145 334.157 189.676 333.404L190.256 325.179C190.28 324.832 190.429 324.548 190.701 324.329C190.956 324.108 191.256 324.01 191.604 324.034C191.951 324.059 192.235 324.198 192.456 324.452C192.677 324.707 192.775 325.008 192.751 325.355L192.229 332.758C192.145 333.946 192.294 334.829 192.676 335.407C193.056 336.003 193.759 336.337 194.782 336.409C195.714 336.475 196.509 336.283 197.165 335.833C197.801 335.401 198.385 334.808 198.916 334.055L199.495 325.83C199.52 325.483 199.668 325.199 199.941 324.98C200.195 324.759 200.496 324.661 200.844 324.685Z" fill="black"/>
<path d="M172.13 321.06C172.913 321.256 173.601 321.599 174.196 322.088C174.774 322.573 175.182 323.166 175.422 323.869C175.657 324.589 175.674 325.349 175.474 326.149C175.144 327.464 174.365 328.383 173.139 328.907C171.894 329.426 170.267 329.434 168.259 328.93L165.033 328.121L164.979 328.335C164.685 329.508 164.767 330.426 165.224 331.088C165.664 331.746 166.497 332.229 167.723 332.536C168.398 332.706 169.016 332.804 169.576 332.831C170.118 332.854 170.736 332.838 171.429 332.786C171.58 332.786 171.7 332.797 171.789 332.819C172.056 332.886 172.262 333.042 172.409 333.286C172.555 333.531 172.593 333.795 172.522 334.08C172.401 334.559 172.086 334.839 171.575 334.919C169.903 335.18 168.286 335.114 166.722 334.722C165.495 334.415 164.527 333.908 163.816 333.2C163.088 332.489 162.628 331.684 162.438 330.786C162.225 329.902 162.235 328.997 162.466 328.073L164.358 320.528C164.443 320.19 164.638 319.937 164.945 319.769C165.234 319.595 165.547 319.551 165.885 319.636C166.223 319.72 166.478 319.907 166.651 320.196C166.824 320.485 166.869 320.799 166.784 321.136L166.61 321.83C168.264 320.808 170.104 320.552 172.13 321.06ZM170.689 322.966C169.907 322.769 169.105 322.767 168.283 322.957C167.456 323.166 166.722 323.492 166.082 323.936L165.521 326.175L168.427 326.904C171.111 327.577 172.629 327.211 172.981 325.807C173.141 325.167 173.057 324.598 172.728 324.1C172.382 323.598 171.702 323.22 170.689 322.966Z" fill="black"/>
<path d="M158.205 317.196C158.528 317.325 158.756 317.544 158.89 317.853C159.023 318.163 159.025 318.479 158.896 318.802L152.299 335.376C152.17 335.699 151.951 335.928 151.641 336.061C151.325 336.211 151.005 336.222 150.682 336.093C150.358 335.964 150.133 335.737 150.007 335.41C149.857 335.094 149.846 334.774 149.975 334.451L154.133 324.006L145.818 327.205C145.475 327.324 145.175 327.333 144.92 327.232C144.528 327.076 144.292 326.853 144.209 326.564C144.11 326.268 144.122 325.967 144.244 325.661C144.359 325.371 144.619 325.14 145.024 324.965L150.012 323.135L147.83 315.166C147.748 314.877 147.754 314.613 147.849 314.375C147.985 314.035 148.204 313.806 148.506 313.69C148.809 313.574 149.13 313.584 149.471 313.719C149.641 313.787 149.795 313.897 149.931 314.05C150.067 314.203 150.165 314.38 150.223 314.58L152.236 322.305L155.261 321.172L156.572 317.877C156.701 317.554 156.929 317.329 157.255 317.202C157.565 317.069 157.881 317.067 158.205 317.196Z" fill="black"/>
<path d="M139.089 308.233C141.037 309.329 142.253 310.737 142.735 312.459C143.192 314.188 142.855 316.059 141.723 318.071C141.085 319.205 140.289 320.134 139.335 320.859C138.38 321.584 137.306 321.999 136.111 322.105C134.916 322.21 133.688 321.909 132.426 321.199C131.244 320.534 130.38 319.68 129.832 318.636C129.275 317.607 129.033 316.504 129.107 315.327C129.172 314.165 129.51 313.041 130.12 311.955C130.291 311.651 130.539 311.454 130.863 311.363C131.172 311.264 131.493 311.308 131.829 311.497L139.95 316.065C140.451 314.875 140.525 313.771 140.173 312.753C139.821 311.735 139.014 310.871 137.752 310.161C137.081 309.784 136.462 309.52 135.895 309.369C135.312 309.209 134.714 309.114 134.1 309.085C133.936 309.077 133.775 309.028 133.615 308.938C133.36 308.794 133.185 308.58 133.093 308.297C133 308.013 133.03 307.736 133.182 307.464C133.38 307.113 133.754 306.934 134.304 306.928C135.124 306.927 135.887 307.01 136.593 307.176C137.299 307.341 138.131 307.694 139.089 308.233ZM131.886 313.862C131.493 314.672 131.333 315.443 131.404 316.177C131.459 316.902 131.682 317.532 132.074 318.068C132.458 318.62 132.921 319.049 133.464 319.354C134.007 319.66 134.614 319.833 135.285 319.874C135.946 319.931 136.601 319.794 137.249 319.465C137.897 319.136 138.465 318.593 138.953 317.837L131.886 313.862Z" fill="black"/>
<path d="M118.51 293.695C120.198 295.161 121.105 296.786 121.23 298.57C121.33 300.355 120.623 302.12 119.109 303.863C118.256 304.845 117.289 305.595 116.208 306.113C115.128 306.63 113.992 306.821 112.8 306.684C111.608 306.547 110.466 306.004 109.373 305.055C108.349 304.165 107.674 303.154 107.348 302.021C107.009 300.902 106.994 299.773 107.304 298.634C107.601 297.509 108.159 296.476 108.976 295.536C109.204 295.273 109.486 295.129 109.822 295.106C110.144 295.07 110.451 295.178 110.741 295.431L117.776 301.541C118.507 300.476 118.802 299.41 118.662 298.341C118.522 297.273 117.905 296.264 116.812 295.315C116.231 294.811 115.678 294.427 115.153 294.166C114.614 293.892 114.047 293.678 113.452 293.525C113.293 293.485 113.145 293.404 113.006 293.284C112.785 293.092 112.657 292.848 112.623 292.551C112.59 292.255 112.675 291.989 112.879 291.754C113.143 291.449 113.546 291.35 114.085 291.455C114.889 291.619 115.62 291.853 116.278 292.158C116.936 292.462 117.68 292.975 118.51 293.695ZM110.321 297.759C109.774 298.473 109.461 299.197 109.382 299.93C109.29 300.651 109.382 301.313 109.659 301.917C109.923 302.535 110.29 303.048 110.761 303.457C111.231 303.865 111.791 304.157 112.44 304.332C113.076 304.521 113.745 304.52 114.446 304.327C115.147 304.135 115.812 303.718 116.443 303.076L110.321 297.759Z" fill="black"/>
<path d="M107.524 282.879C109.33 284.853 109.341 286.656 107.556 288.289L101.27 294.041L102.587 295.481C102.686 295.589 102.739 295.714 102.745 295.857C102.726 295.999 102.662 296.12 102.554 296.219C102.419 296.342 102.249 296.387 102.043 296.351L96.8221 296.061C96.5891 296.051 96.4232 295.992 96.3242 295.884C96.2253 295.775 96.1854 295.65 96.2047 295.509C96.2116 295.353 96.2691 295.226 96.3773 295.127L97.9996 293.643L95.9029 291.351C95.6927 291.122 95.5939 290.864 95.6065 290.579C95.6191 290.295 95.7404 290.047 95.9702 289.837C96.1865 289.639 96.4438 289.54 96.7421 289.54C97.0269 289.553 97.2744 289.674 97.4847 289.904L99.5813 292.196L105.705 286.592C106.233 286.11 106.459 285.679 106.385 285.3C106.286 284.919 106.062 284.539 105.716 284.161C105.469 283.891 105.181 283.657 104.852 283.461C104.789 283.419 104.726 283.378 104.663 283.336C104.588 283.281 104.507 283.206 104.42 283.111C104.247 282.922 104.167 282.685 104.18 282.4C104.179 282.128 104.28 281.899 104.482 281.713C104.793 281.429 105.172 281.368 105.619 281.53C106.345 281.835 106.98 282.285 107.524 282.879Z" fill="black"/>
<path d="M102.039 276.734C102.242 277.017 102.316 277.325 102.261 277.657C102.206 277.989 102.037 278.257 101.754 278.46L87.2485 288.843C86.9654 289.045 86.6577 289.119 86.3253 289.064C85.9781 289.02 85.7031 288.856 85.5005 288.573C85.2978 288.29 85.2315 287.977 85.3014 287.634C85.3458 287.287 85.5095 287.012 85.7926 286.809L91.6259 282.633C90.5948 282.515 89.6584 282.261 88.8166 281.873C87.9748 281.484 87.2339 280.842 86.5939 279.948C86.0073 279.129 85.6944 278.282 85.6551 277.409C85.6052 276.521 85.8035 275.68 86.25 274.887C86.6859 274.08 87.3061 273.388 88.1107 272.812L94.458 268.268C94.7411 268.065 95.0542 267.999 95.3972 268.069C95.7296 268.124 95.9971 268.293 96.1997 268.576C96.4024 268.859 96.4762 269.167 96.4211 269.499C96.3661 269.832 96.197 270.099 95.9139 270.302L89.7901 274.686C87.9723 275.987 87.65 277.457 88.8233 279.096C89.3566 279.841 90.0303 280.373 90.8443 280.691C91.6477 280.995 92.5638 281.173 93.5927 281.225L100.298 276.426C100.581 276.223 100.894 276.157 101.237 276.227C101.569 276.282 101.837 276.451 102.039 276.734Z" fill="black"/>
<path d="M89.7464 257.18C90.7795 259.162 91.0276 261.006 90.4907 262.712C89.9291 264.409 88.6245 265.792 86.577 266.859C85.4233 267.46 84.2488 267.804 83.0537 267.889C81.8585 267.975 80.7317 267.735 79.6731 267.171C78.6146 266.607 77.7508 265.683 77.0819 264.399C76.4552 263.197 76.1976 262.009 76.3091 260.835C76.4043 259.669 76.8046 258.614 77.51 257.668C78.1991 256.73 79.0961 255.973 80.2011 255.397C80.5099 255.236 80.8249 255.206 81.1462 255.308C81.4591 255.393 81.7045 255.606 81.8823 255.947L86.1884 264.21C87.2581 263.487 87.9236 262.603 88.1847 261.558C88.4459 260.513 88.2419 259.348 87.5729 258.064C87.2173 257.382 86.8432 256.823 86.4507 256.387C86.0497 255.934 85.6003 255.528 85.1025 255.168C84.9698 255.071 84.8611 254.942 84.7764 254.78C84.6409 254.52 84.6117 254.246 84.6888 253.957C84.766 253.669 84.9426 253.453 85.2189 253.309C85.5764 253.123 85.9871 253.178 86.451 253.473C87.1388 253.92 87.7329 254.406 88.2335 254.931C88.734 255.455 89.2383 256.205 89.7464 257.18ZM80.6375 257.959C79.8666 258.423 79.3105 258.981 78.969 259.635C78.6191 260.272 78.4619 260.922 78.4976 261.585C78.5171 262.257 78.6708 262.869 78.9587 263.421C79.2466 263.974 79.6603 264.45 80.1998 264.851C80.723 265.26 81.3458 265.504 82.0684 265.582C82.7909 265.66 83.563 265.516 84.3847 265.15L80.6375 257.959Z" fill="black"/>
<path d="M84.6526 246.487C84.7772 246.812 84.7709 247.128 84.6337 247.436C84.4965 247.744 84.2653 247.96 83.9402 248.085L72.9294 252.304C72.6043 252.428 72.2879 252.422 71.9802 252.285C71.6555 252.154 71.4308 251.926 71.3062 251.601C71.1816 251.276 71.1965 250.956 71.3508 250.642C71.4815 250.317 71.7093 250.093 72.0344 249.968L73.1381 249.545C71.0707 248.964 69.7518 247.929 69.1814 246.44L69.1322 246.312C69.0076 245.987 69.0172 245.679 69.161 245.388C69.2982 245.081 69.5294 244.864 69.8545 244.74C70.1796 244.615 70.4874 244.625 70.778 244.769C71.0685 244.912 71.2794 245.155 71.4105 245.498L71.4597 245.626C71.7744 246.447 72.2682 247.121 72.9411 247.649C73.597 248.182 74.3641 248.546 75.2427 248.739L83.0452 245.749C83.3703 245.624 83.69 245.639 84.0042 245.794C84.3119 245.931 84.528 246.162 84.6526 246.487Z" fill="black"/>
<path d="M79.6823 230.826C80.2381 232.991 80.0609 234.843 79.1506 236.382C78.218 237.908 76.6336 238.958 74.3973 239.532C73.1371 239.855 71.9154 239.923 70.732 239.735C69.5486 239.547 68.5056 239.058 67.6029 238.268C66.7001 237.478 66.0688 236.382 65.7089 234.98C65.3717 233.667 65.3908 232.451 65.7659 231.333C66.1234 230.22 66.753 229.283 67.6548 228.521C68.5389 227.765 69.5844 227.232 70.7913 226.922C71.1286 226.835 71.4421 226.878 71.7321 227.049C72.0175 227.203 72.208 227.466 72.3037 227.839L74.6205 236.864C75.8264 236.403 76.6752 235.693 77.167 234.735C77.6587 233.776 77.7246 232.596 77.3647 231.194C77.1733 230.448 76.936 229.818 76.6528 229.305C76.365 228.773 76.0197 228.275 75.6168 227.811C75.5093 227.688 75.4328 227.537 75.3873 227.359C75.3144 227.075 75.3482 226.802 75.4888 226.539C75.6293 226.276 75.8505 226.105 76.1522 226.028C76.5427 225.928 76.9302 226.074 77.3149 226.467C77.8831 227.059 78.3513 227.667 78.7197 228.292C79.0881 228.916 79.4089 229.761 79.6823 230.826ZM70.6343 229.516C69.7783 229.792 69.1099 230.21 68.6289 230.769C68.1435 231.309 67.8428 231.907 67.7269 232.561C67.5933 233.219 67.6039 233.85 67.7588 234.454C67.9137 235.057 68.2084 235.615 68.6427 236.128C69.0593 236.646 69.6105 237.024 70.2965 237.264C70.9824 237.505 71.767 237.54 72.6504 237.37L70.6343 229.516Z" fill="black"/>
<path d="M76.7957 215.719C76.9065 216.721 76.7664 217.621 76.3755 218.42C75.9825 219.201 75.3984 219.837 74.6232 220.328C73.8459 220.801 72.9655 221.092 71.982 221.201L64.2233 222.059C63.8773 222.098 63.5728 222.011 63.3098 221.801C63.0448 221.572 62.8932 221.285 62.8549 220.939C62.8167 220.593 62.9028 220.288 63.1134 220.025C63.324 219.762 63.6023 219.612 63.9483 219.573L71.4338 218.745C73.6558 218.5 74.656 217.375 74.4344 215.372C74.3337 214.461 74.0073 213.677 73.4552 213.019C72.9011 212.343 72.1881 211.73 71.3162 211.181L63.1204 212.088C62.7744 212.126 62.4699 212.04 62.2069 211.829C61.9419 211.601 61.7903 211.313 61.752 210.967C61.7138 210.621 61.7999 210.317 62.0105 210.054C62.2211 209.791 62.4994 209.64 62.8454 209.602L74.5654 208.305C74.9115 208.267 75.2251 208.352 75.5063 208.561C75.7692 208.771 75.9198 209.05 75.9581 209.396C75.9964 209.742 75.9112 210.055 75.7027 210.337C75.4739 210.602 75.1865 210.753 74.8404 210.792L73.7203 210.915C74.5618 211.523 75.2545 212.202 75.7985 212.953C76.3425 213.704 76.6749 214.626 76.7957 215.719Z" fill="black"/>
<path d="M75.3147 200.841C75.2903 201.189 75.1509 201.473 74.8965 201.694C74.6422 201.914 74.3413 202.013 73.994 201.988L62.2317 201.16C61.8844 201.136 61.6003 200.996 61.3794 200.742C61.1402 200.486 61.0329 200.185 61.0573 199.837C61.0818 199.49 61.2303 199.207 61.503 198.987C61.7586 198.748 62.0601 198.641 62.4074 198.665L63.5315 198.744C62.8364 198.181 62.2763 197.526 61.8513 196.78C61.4275 196.015 61.2561 195.057 61.3372 193.905C61.4093 192.882 61.7453 192.024 62.3451 191.331C62.9449 190.639 63.6488 190.165 64.4567 189.909C62.6537 188.644 61.8308 186.896 61.9878 184.666C62.0599 183.642 62.3756 182.81 62.935 182.17C63.4957 181.511 64.1898 181.046 65.0172 180.773C65.8447 180.501 66.6971 180.396 67.5745 180.457L75.4709 181.013C75.8182 181.038 76.1016 181.186 76.3212 181.459C76.5421 181.713 76.6403 182.014 76.6159 182.361C76.5914 182.709 76.452 182.993 76.1977 183.214C75.9433 183.435 75.6425 183.533 75.2952 183.508L67.8923 182.987C66.7042 182.904 65.8212 183.053 65.2432 183.434C64.647 183.815 64.3128 184.517 64.2407 185.541C64.1751 186.473 64.3672 187.267 64.8169 187.923C65.2497 188.56 65.8423 189.144 66.5949 189.674L74.8203 190.253C75.1676 190.278 75.451 190.426 75.6706 190.699C75.8915 190.953 75.9898 191.254 75.9653 191.601C75.9409 191.949 75.8014 192.233 75.5471 192.454C75.2927 192.675 74.9919 192.773 74.6446 192.748L67.2417 192.227C66.0536 192.143 65.1706 192.293 64.5926 192.674C63.9964 193.055 63.6622 193.757 63.5902 194.78C63.5245 195.713 63.7166 196.507 64.1664 197.163C64.5991 197.8 65.1918 198.383 65.9443 198.914L74.1697 199.493C74.517 199.518 74.8005 199.666 75.0201 199.939C75.241 200.193 75.3392 200.494 75.3147 200.841Z" fill="black"/>
<path d="M81.9755 161.281C81.5734 162.538 80.9228 163.609 80.0236 164.495C79.1244 165.381 78.048 165.979 76.7942 166.29C75.546 166.583 74.2151 166.503 72.8015 166.051C71.3879 165.599 70.258 164.891 69.412 163.927C68.5715 162.947 68.0424 161.834 67.8246 160.591C67.6068 159.348 67.699 158.098 68.1011 156.841C68.3971 155.916 68.7734 155.161 69.23 154.576C69.6747 153.968 70.1724 153.435 70.7232 152.976C71.0618 152.7 71.423 152.623 71.807 152.746C72.0688 152.83 72.2796 153.013 72.4394 153.295C72.5874 153.554 72.6195 153.814 72.5358 154.076C72.4743 154.268 72.3605 154.443 72.1944 154.602C71.7134 155.083 71.3448 155.513 71.0886 155.893C70.8205 156.249 70.5887 156.733 70.3933 157.344C69.913 158.845 69.9723 160.163 70.5712 161.297C71.1527 162.426 72.1502 163.216 73.5639 163.669C74.9775 164.121 76.2574 164.059 77.4037 163.484C78.5325 162.902 79.3371 161.861 79.8174 160.36C80.0129 159.749 80.1138 159.223 80.12 158.783C80.1145 158.319 80.0555 157.752 79.9431 157.081C79.8998 156.856 79.9089 156.647 79.9703 156.455C80.0541 156.193 80.2402 156.003 80.5285 155.884C80.8049 155.741 81.074 155.712 81.3358 155.796C81.7198 155.918 81.9693 156.191 82.0845 156.612C82.2667 157.306 82.371 158.032 82.3976 158.79C82.4122 159.526 82.2715 160.357 81.9755 161.281Z" fill="black"/>
<path d="M87.7465 146.834C87.1364 148.106 86.329 149.09 85.3242 149.787C84.3194 150.484 83.1946 150.859 81.9497 150.912C80.6962 150.941 79.4251 150.647 78.1363 150.029C76.8476 149.411 75.8303 148.608 75.0846 147.62C74.3303 146.608 73.9103 145.492 73.8246 144.273C73.7389 143.053 74.0011 141.807 74.6112 140.535C75.2134 139.279 76.0169 138.303 77.0217 137.606C78.0265 136.909 79.1596 136.538 80.421 136.492C81.6659 136.439 82.9327 136.721 84.2214 137.339C85.5102 137.958 86.5317 138.773 87.286 139.785C88.0238 140.789 88.4356 141.901 88.5213 143.12C88.6069 144.34 88.3487 145.578 87.7465 146.834ZM85.6895 145.847C86.0143 145.17 86.1664 144.45 86.1456 143.688C86.1328 142.91 85.8827 142.16 85.3955 141.439C84.9161 140.701 84.156 140.082 83.1151 139.583C82.0907 139.092 81.1408 138.89 80.2653 138.978C79.3977 139.05 78.6647 139.328 78.0662 139.814C77.4591 140.274 76.9931 140.844 76.6683 141.521C76.3355 142.215 76.1755 142.951 76.1884 143.73C76.1926 144.483 76.4383 145.221 76.9256 145.943C77.4129 146.664 78.1687 147.27 79.1931 147.761C80.234 148.261 81.1882 148.474 82.0558 148.403C82.9234 148.331 83.6607 148.065 84.2678 147.604C84.8828 147.127 85.3567 146.541 85.6895 145.847Z" fill="black"/>
<path d="M96.6556 131.125C95.8672 132.295 94.9253 133.152 93.83 133.696C92.7347 134.239 91.5673 134.447 90.3279 134.319C89.0835 134.165 87.8686 133.689 86.6833 132.891C85.4979 132.092 84.6081 131.15 84.0137 130.065C83.4143 128.954 83.1608 127.789 83.2531 126.569C83.3455 125.35 83.7859 124.155 84.5742 122.985C85.3524 121.83 86.2891 120.981 87.3844 120.438C88.4798 119.894 89.6548 119.691 90.9094 119.83C92.1488 119.958 93.3612 120.421 94.5465 121.22C95.7319 122.018 96.6242 122.973 97.2236 124.084C97.8078 125.184 98.0537 126.344 97.9613 127.564C97.8689 128.783 97.4337 129.97 96.6556 131.125ZM94.7636 129.85C95.1834 129.227 95.4383 128.537 95.5284 127.781C95.6287 127.009 95.4902 126.23 95.1129 125.446C94.7458 124.646 94.0836 123.924 93.1262 123.279C92.184 122.644 91.2734 122.307 90.3943 122.267C89.5256 122.212 88.7599 122.381 88.0972 122.774C87.4297 123.142 86.886 123.637 86.4662 124.26C86.0362 124.898 85.771 125.603 85.6707 126.375C85.5654 127.122 85.7014 127.888 86.0788 128.672C86.4561 129.457 87.1158 130.166 88.058 130.801C89.0154 131.446 89.9285 131.796 90.7973 131.851C91.6661 131.906 92.4343 131.75 93.1018 131.382C93.7796 130.999 94.3336 130.489 94.7636 129.85Z" fill="black"/>
<path d="M104.36 120.572C104.137 120.839 103.857 120.987 103.521 121.017C103.186 121.046 102.885 120.949 102.618 120.725L88.9487 109.264C88.682 109.04 88.5338 108.76 88.5044 108.425C88.4608 108.077 88.5509 107.77 88.7746 107.504C89.0101 107.223 89.2956 107.068 89.6312 107.038C89.9668 107.009 90.275 107.112 90.5558 107.347L104.225 118.809C104.492 119.032 104.634 119.319 104.652 119.669C104.681 120.004 104.584 120.305 104.36 120.572Z" fill="black"/>
<path d="M117.489 107.16C116.876 107.684 116.198 108.046 115.454 108.248C114.725 108.437 114.004 108.426 113.293 108.214C112.57 107.989 111.94 107.562 111.405 106.935C110.524 105.904 110.226 104.737 110.51 103.434C110.809 102.119 111.745 100.789 113.319 99.4436L115.848 97.2833L115.705 97.1162C114.919 96.1966 114.124 95.7312 113.319 95.72C112.528 95.6968 111.652 96.0959 110.691 96.9171C110.161 97.3694 109.723 97.8159 109.377 98.2566C109.044 98.6853 108.699 99.1975 108.34 99.7932C108.252 99.9163 108.174 100.008 108.104 100.067C107.895 100.246 107.648 100.324 107.364 100.301C107.08 100.279 106.843 100.156 106.652 99.9335C106.331 99.5574 106.286 99.1379 106.517 98.6752C107.273 97.162 108.264 95.8817 109.49 94.8343C110.451 94.013 111.426 93.5177 112.414 93.3484C113.416 93.1672 114.338 93.2591 115.18 93.6242C116.024 93.9635 116.756 94.4953 117.375 95.2198L122.427 101.134C122.653 101.399 122.746 101.705 122.706 102.053C122.68 102.389 122.534 102.67 122.269 102.896C122.005 103.122 121.704 103.222 121.368 103.195C121.033 103.169 120.752 103.023 120.525 102.759L120.061 102.215C119.935 104.155 119.078 105.803 117.489 107.16ZM116.772 104.881C117.385 104.357 117.852 103.705 118.173 102.925C118.482 102.13 118.642 101.343 118.651 100.564L117.151 98.8089L114.873 100.755C112.77 102.552 112.188 104.001 113.128 105.102C113.557 105.603 114.069 105.865 114.665 105.885C115.275 105.894 115.977 105.56 116.772 104.881Z" fill="black"/>
<path d="M136.646 100.597C135.748 101.165 134.769 101.623 133.709 101.969C132.648 102.315 131.716 102.504 130.912 102.535C130.525 102.542 130.215 102.359 129.979 101.987C129.823 101.74 129.766 101.461 129.808 101.152C129.877 100.849 130.042 100.614 130.305 100.447C130.429 100.369 130.588 100.311 130.782 100.275C132.331 100.119 133.795 99.6042 135.173 98.7319C137.542 97.2322 137.927 95.2206 136.329 92.697L135.344 91.141C134.99 93.0136 134.039 94.44 132.491 95.4202C131.577 95.9985 130.545 96.3376 129.394 96.4375C128.248 96.5121 127.112 96.2769 125.986 95.7318C124.851 95.1713 123.871 94.2407 123.048 92.9402C122.225 91.6397 121.807 90.3641 121.796 89.1133C121.775 87.847 122.048 86.7198 122.616 85.7317C123.189 84.7183 123.932 83.9225 124.845 83.3442C126.393 82.364 128.09 82.1143 129.934 82.595L129.566 82.0144C129.38 81.7203 129.324 81.4088 129.398 81.0801C129.462 80.736 129.641 80.4708 129.935 80.2845C130.229 80.0983 130.545 80.0498 130.884 80.1392C131.228 80.2032 131.493 80.3823 131.679 80.6765L138.252 91.0571C139.487 93.0079 139.965 94.8086 139.687 96.4593C139.409 98.11 138.396 99.4891 136.646 100.597ZM131.711 93.2133C132.439 92.7526 132.984 92.191 133.345 91.5285C133.706 90.866 133.976 90.1098 134.153 89.26L131.125 84.476C130.28 84.2731 129.482 84.1933 128.728 84.2365C127.975 84.2797 127.234 84.5317 126.507 84.9924C125.346 85.7275 124.619 86.6864 124.327 87.869C124.04 89.0264 124.318 90.2708 125.161 91.6023C126.004 92.9337 127.015 93.7252 128.193 93.9767C129.378 94.2029 130.55 93.9484 131.711 93.2133Z" fill="black"/>
<path d="M147.039 87.6178C146.303 87.9473 145.55 88.1037 144.78 88.0872C144.026 88.0632 143.338 87.8492 142.716 87.4453C142.086 87.0247 141.602 86.438 141.265 85.6854C140.711 84.4478 140.754 83.2439 141.395 82.0738C142.052 80.8962 143.326 79.8844 145.216 79.0383L148.251 77.6794L148.161 77.4787C147.667 76.3749 147.036 75.704 146.267 75.4661C145.514 75.2206 144.561 75.3562 143.407 75.8728C142.772 76.1574 142.225 76.4621 141.769 76.7871C141.329 77.1045 140.852 77.4984 140.34 77.9686C140.221 78.062 140.12 78.1274 140.037 78.1648C139.786 78.2771 139.527 78.2824 139.261 78.1808C138.994 78.0792 138.801 77.8946 138.682 77.627C138.479 77.1755 138.555 76.7604 138.907 76.3817C140.059 75.1432 141.371 74.1946 142.843 73.5357C143.997 73.0191 145.072 72.819 146.067 72.9353C147.08 73.0443 147.938 73.3926 148.643 73.9805C149.357 74.5442 149.909 75.2609 150.298 76.1306L153.477 83.2301C153.619 83.5479 153.622 83.8679 153.485 84.1901C153.365 84.5049 153.146 84.7334 152.828 84.8756C152.51 85.0179 152.194 85.029 151.879 84.9089C151.564 84.7888 151.336 84.5699 151.194 84.2521L150.902 83.5999C150.233 85.425 148.946 86.7643 147.039 87.6178ZM146.993 85.2291C147.729 84.8996 148.361 84.4058 148.89 83.7476C149.411 83.0727 149.786 82.3628 150.015 81.618L149.071 79.5107L146.337 80.7349C143.811 81.8654 142.844 83.0913 143.436 84.4126C143.705 85.0147 144.123 85.4098 144.689 85.5981C145.272 85.7788 146.04 85.6558 146.993 85.2291Z" fill="black"/>
<path d="M154.879 66.0255C154.514 66.1468 154.157 66.1203 153.81 65.9461C153.462 65.7719 153.228 65.5022 153.107 65.137L153.072 65.0326C152.951 64.6674 152.977 64.3111 153.152 63.9636C153.326 63.6162 153.595 63.3818 153.961 63.2605L154.117 63.2085C154.482 63.0873 154.839 63.1137 155.186 63.288C155.534 63.4622 155.768 63.7319 155.889 64.0971L155.924 64.2014C156.045 64.5666 156.019 64.923 155.845 65.2704C155.67 65.6179 155.401 65.8523 155.035 65.9736L154.879 66.0255ZM160.293 82.1549C159.963 82.2647 159.647 82.244 159.346 82.093C159.045 81.942 158.839 81.7013 158.73 81.3709L155.013 70.1804C154.904 69.85 154.924 69.5342 155.075 69.233C155.22 68.9145 155.458 68.7004 155.789 68.5906C156.136 68.4751 156.461 68.4929 156.762 68.6439C157.063 68.7949 157.272 69.0443 157.387 69.3921L161.103 80.5826C161.213 80.913 161.184 81.2317 161.015 81.5386C160.864 81.8398 160.624 82.0452 160.293 82.1549Z" fill="black"/>
<path d="M168.114 79.6811C167.774 79.7551 167.462 79.701 167.179 79.5189C166.895 79.3367 166.717 79.0755 166.643 78.7353L164.137 67.2131C164.063 66.8729 164.117 66.5611 164.299 66.2777C164.478 65.9764 164.737 65.7888 165.077 65.7148C165.417 65.6409 165.731 65.7039 166.018 65.904C166.32 66.0822 166.507 66.3414 166.581 66.6817L166.821 67.7828C167.338 66.8828 167.941 66.1234 168.632 65.5044C169.322 64.8855 170.205 64.4592 171.279 64.2255C172.264 64.0114 173.165 64.0592 173.982 64.369C174.818 64.6749 175.511 65.1899 176.062 65.9138C176.631 66.6339 177.021 67.4774 177.231 68.4443L178.89 76.0721C178.964 76.4123 178.901 76.726 178.701 77.0133C178.519 77.2967 178.258 77.4754 177.917 77.5493C177.577 77.6233 177.265 77.5692 176.982 77.3871C176.699 77.2049 176.52 76.9437 176.446 76.6035L174.846 69.2444C174.371 67.0599 173.148 66.1818 171.179 66.6101C170.283 66.8048 169.528 67.2128 168.913 67.8341C168.316 68.4515 167.79 69.2222 167.335 70.1464L169.087 78.2038C169.161 78.544 169.098 78.8578 168.898 79.1451C168.716 79.4285 168.454 79.6071 168.114 79.6811Z" fill="black"/>
</svg>
