<svg width="400" height="400" viewBox="0 0 400 400" fill="none" xmlns="http://www.w3.org/2000/svg">
<path d="M172 199.595L198.896 209.872V149L172 199.595Z" class="fill-black dark:fill-white"/>
<path d="M198.896 209.872L225 199.595L198.896 149V209.872Z" class="fill-black dark:fill-white"/>
<path d="M172 205.919L198.896 251.5V216.986L172 205.919Z" class="fill-black dark:fill-white"/>
<path d="M198.896 216.986V251.5L225 205.919L198.896 216.986Z" class="fill-black dark:fill-white"/>
<path d="M198.896 251.5L172 205.919L198.896 216.986M198.896 251.5V216.986M198.896 251.5L225 205.919L198.896 216.986M198.896 209.872L172 199.595L198.896 149M198.896 209.872L225 199.595L198.896 149M198.896 209.872V149" stroke="white"/>
</svg>
