<svg width="57" height="106" viewBox="0 0 57 106" fill="none" xmlns="http://www.w3.org/2000/svg">
<path d="M2 52.5946L28.8955 62.8716V2L2 52.5946Z" fill="black"/>
<path d="M28.8955 62.8716L55 52.5946L28.8955 2V62.8716Z" fill="black"/>
<path d="M2 58.9189L28.8955 104.5V69.9865L2 58.9189Z" fill="black"/>
<path d="M28.8955 69.9865V104.5L55 58.9189L28.8955 69.9865Z" fill="black"/>
<path d="M28.8955 104.5L2 58.9189L28.8955 69.9865M28.8955 104.5V69.9865M28.8955 104.5L55 58.9189L28.8955 69.9865M28.8955 62.8716L2 52.5946L28.8955 2M28.8955 62.8716L55 52.5946L28.8955 2M28.8955 62.8716V2" stroke="white"/>
</svg>
