<svg width="400" height="400" viewBox="0 0 400 400" fill="none" xmlns="http://www.w3.org/2000/svg">
<path d="M202.521 117.237C202.29 117.212 202.104 117.112 201.963 116.937C201.823 116.762 201.765 116.559 201.79 116.328L202.634 108.513C202.659 108.282 202.759 108.096 202.934 107.956C203.11 107.803 203.313 107.739 203.544 107.763C203.775 107.788 203.96 107.894 204.1 108.081C204.253 108.258 204.317 108.461 204.292 108.692L204.211 109.439C204.604 108.99 205.054 108.633 205.562 108.368C206.081 108.105 206.724 108.015 207.489 108.097C208.169 108.171 208.733 108.416 209.179 108.833C209.625 109.25 209.924 109.73 210.074 110.275C210.962 109.105 212.147 108.601 213.629 108.761C214.309 108.834 214.855 109.065 215.268 109.454C215.693 109.844 215.985 110.318 216.146 110.876C216.307 111.434 216.356 112.004 216.293 112.587L215.726 117.834C215.701 118.065 215.595 118.25 215.408 118.389C215.233 118.53 215.031 118.588 214.8 118.563C214.569 118.538 214.383 118.438 214.242 118.263C214.102 118.088 214.044 117.886 214.069 117.655L214.6 112.736C214.685 111.946 214.608 111.355 214.368 110.96C214.129 110.553 213.67 110.313 212.99 110.24C212.37 110.173 211.836 110.281 211.388 110.564C210.953 110.837 210.549 111.217 210.177 111.705L209.587 117.171C209.562 117.401 209.456 117.587 209.269 117.726C209.094 117.867 208.891 117.925 208.66 117.9C208.43 117.875 208.244 117.775 208.103 117.6C207.962 117.425 207.904 117.222 207.929 116.992L208.46 112.073C208.546 111.283 208.468 110.691 208.228 110.297C207.99 109.89 207.53 109.65 206.85 109.577C206.231 109.51 205.697 109.618 205.248 109.901C204.814 110.174 204.41 110.554 204.038 111.042L203.447 116.508C203.423 116.738 203.317 116.923 203.129 117.063C202.954 117.204 202.752 117.262 202.521 117.237Z" class="fill-black dark:fill-white"/>
<path d="M221.509 120.359C220.993 120.209 220.543 119.963 220.159 119.622C219.786 119.285 219.529 118.879 219.387 118.405C219.249 117.919 219.256 117.413 219.41 116.885C219.663 116.017 220.205 115.424 221.035 115.106C221.878 114.792 222.961 114.828 224.287 115.214L226.415 115.834L226.456 115.693C226.682 114.919 226.651 114.305 226.363 113.853C226.086 113.403 225.544 113.06 224.734 112.825C224.289 112.695 223.88 112.614 223.507 112.582C223.147 112.553 222.735 112.548 222.272 112.565C222.171 112.561 222.091 112.551 222.033 112.534C221.857 112.483 221.723 112.374 221.632 112.207C221.54 112.041 221.522 111.863 221.576 111.676C221.669 111.359 221.886 111.181 222.229 111.14C223.349 111.009 224.425 111.093 225.457 111.394C226.266 111.63 226.898 111.992 227.354 112.481C227.821 112.973 228.107 113.521 228.211 114.124C228.331 114.719 228.302 115.321 228.124 115.931L226.674 120.909C226.609 121.132 226.472 121.296 226.263 121.401C226.066 121.509 225.856 121.53 225.634 121.465C225.411 121.4 225.245 121.269 225.137 121.073C225.029 120.876 225.008 120.666 225.073 120.443L225.206 119.986C224.078 120.624 222.846 120.749 221.509 120.359ZM222.517 119.126C223.033 119.276 223.567 119.298 224.12 119.192C224.676 119.074 225.173 118.875 225.611 118.596L226.041 117.118L224.124 116.559C222.353 116.043 221.332 116.249 221.062 117.175C220.939 117.598 220.981 117.979 221.187 118.319C221.405 118.662 221.849 118.931 222.517 119.126Z" class="fill-black dark:fill-white"/>
<path d="M230.628 123.262C230.416 123.168 230.269 123.016 230.188 122.807C230.107 122.597 230.113 122.386 230.207 122.174L235.017 111.298C235.111 111.085 235.263 110.939 235.472 110.858C235.686 110.766 235.9 110.766 236.112 110.86C236.324 110.954 236.469 111.111 236.545 111.332C236.637 111.547 236.636 111.76 236.542 111.972L233.511 118.826L239.13 116.903C239.362 116.832 239.561 116.834 239.729 116.908C239.986 117.021 240.138 117.176 240.186 117.37C240.244 117.57 240.229 117.77 240.14 117.971C240.056 118.161 239.877 118.309 239.603 118.415L236.234 119.51L237.489 124.873C237.536 125.068 237.525 125.243 237.456 125.4C237.357 125.623 237.206 125.77 237.001 125.84C236.797 125.909 236.583 125.895 236.359 125.796C236.247 125.747 236.148 125.669 236.061 125.564C235.974 125.459 235.914 125.339 235.88 125.204L234.732 120.007L232.688 120.686L231.732 122.848C231.638 123.061 231.481 123.205 231.26 123.281C231.051 123.362 230.84 123.355 230.628 123.262Z" class="fill-black dark:fill-white"/>
<path d="M243.101 129.69C241.83 128.912 241.055 127.943 240.777 126.784C240.516 125.62 240.787 124.383 241.591 123.07C242.044 122.331 242.598 121.731 243.251 121.272C243.905 120.813 244.631 120.563 245.43 120.523C246.229 120.482 247.039 120.714 247.862 121.218C248.633 121.69 249.188 122.281 249.527 122.99C249.872 123.689 250.006 124.43 249.927 125.212C249.855 125.985 249.602 126.725 249.168 127.434C249.047 127.631 248.877 127.757 248.659 127.809C248.451 127.868 248.237 127.83 248.019 127.696L242.722 124.451C242.359 125.231 242.282 125.965 242.491 126.652C242.7 127.339 243.217 127.934 244.039 128.439C244.477 128.707 244.883 128.898 245.257 129.013C245.641 129.133 246.037 129.211 246.446 129.247C246.554 129.256 246.661 129.293 246.765 129.357C246.932 129.459 247.042 129.605 247.097 129.796C247.152 129.988 247.125 130.172 247.017 130.349C246.876 130.578 246.623 130.688 246.256 130.678C245.71 130.658 245.203 130.584 244.737 130.456C244.271 130.329 243.726 130.073 243.101 129.69ZM248.04 126.119C248.321 125.589 248.447 125.079 248.418 124.589C248.4 124.105 248.267 123.679 248.019 123.312C247.777 122.935 247.479 122.638 247.125 122.421C246.771 122.204 246.371 122.073 245.925 122.029C245.486 121.975 245.046 122.05 244.606 122.253C244.166 122.456 243.775 122.803 243.431 123.295L248.04 126.119Z" class="fill-black dark:fill-white"/>
<path d="M256.399 139.847C255.311 138.828 254.747 137.723 254.708 136.532C254.686 135.34 255.2 134.182 256.252 133.058C256.845 132.425 257.507 131.949 258.24 131.631C258.973 131.313 259.734 131.214 260.525 131.335C261.315 131.456 262.063 131.846 262.768 132.505C263.428 133.123 263.852 133.813 264.042 134.576C264.24 135.33 264.221 136.083 263.987 136.834C263.761 137.576 263.364 138.25 262.797 138.857C262.638 139.026 262.447 139.115 262.222 139.122C262.007 139.138 261.805 139.058 261.618 138.883L257.082 134.638C256.569 135.329 256.346 136.033 256.413 136.748C256.48 137.463 256.866 138.15 257.571 138.809C257.945 139.16 258.304 139.429 258.647 139.616C259 139.812 259.372 139.968 259.765 140.085C259.87 140.116 259.967 140.173 260.056 140.257C260.198 140.39 260.277 140.556 260.293 140.755C260.308 140.953 260.245 141.128 260.103 141.279C259.919 141.476 259.649 141.532 259.291 141.449C258.76 141.32 258.279 141.145 257.848 140.926C257.417 140.707 256.934 140.347 256.399 139.847ZM261.956 137.342C262.338 136.88 262.564 136.406 262.634 135.919C262.714 135.441 262.669 134.998 262.5 134.588C262.339 134.17 262.107 133.819 261.804 133.535C261.5 133.252 261.135 133.043 260.707 132.911C260.287 132.769 259.842 132.753 259.37 132.864C258.898 132.975 258.445 133.236 258.009 133.648L261.956 137.342Z" class="fill-black dark:fill-white"/>
<path d="M263.424 147.297C262.27 145.937 262.308 144.736 263.537 143.692L267.867 140.016L267.025 139.024C266.962 138.949 266.93 138.865 266.929 138.769C266.946 138.675 266.991 138.596 267.066 138.533C267.159 138.454 267.273 138.429 267.41 138.457L270.88 138.78C271.035 138.793 271.145 138.836 271.208 138.911C271.271 138.985 271.294 139.069 271.278 139.163C271.27 139.267 271.228 139.35 271.154 139.413L270.036 140.362L271.376 141.941C271.511 142.099 271.57 142.273 271.555 142.462C271.539 142.651 271.452 142.813 271.294 142.948C271.145 143.074 270.971 143.134 270.772 143.126C270.583 143.111 270.421 143.024 270.287 142.865L268.947 141.287L264.728 144.868C264.365 145.177 264.203 145.458 264.243 145.713C264.3 145.969 264.439 146.227 264.661 146.488C264.819 146.674 265.005 146.837 265.219 146.975C265.26 147.005 265.301 147.034 265.342 147.063C265.39 147.102 265.442 147.154 265.498 147.219C265.608 147.35 265.656 147.51 265.641 147.699C265.634 147.88 265.562 148.03 265.422 148.149C265.208 148.331 264.954 148.362 264.66 148.243C264.184 148.022 263.772 147.707 263.424 147.297Z" class="fill-black dark:fill-white"/>
<path d="M266.904 151.497C266.776 151.303 266.734 151.097 266.779 150.877C266.824 150.657 266.944 150.483 267.137 150.355L277.059 143.798C277.252 143.67 277.459 143.628 277.679 143.673C277.909 143.712 278.088 143.827 278.216 144.021C278.344 144.215 278.381 144.425 278.326 144.652C278.288 144.882 278.172 145.061 277.978 145.189L273.988 147.826C274.672 147.93 275.29 148.122 275.841 148.403C276.392 148.683 276.869 149.128 277.274 149.74C277.644 150.3 277.831 150.872 277.836 151.455C277.847 152.048 277.694 152.603 277.377 153.12C277.066 153.647 276.636 154.093 276.086 154.456L271.744 157.326C271.55 157.454 271.34 157.49 271.113 157.435C270.893 157.39 270.719 157.271 270.591 157.077C270.463 156.883 270.422 156.677 270.467 156.456C270.512 156.236 270.631 156.062 270.825 155.934L275.013 153.166C276.257 152.345 276.508 151.373 275.767 150.252C275.43 149.743 274.995 149.371 274.46 149.139C273.933 148.917 273.327 148.775 272.643 148.715L268.057 151.746C267.863 151.874 267.653 151.91 267.426 151.855C267.206 151.81 267.032 151.691 266.904 151.497Z" class="fill-black dark:fill-white"/>
<path d="M274.586 164.795C273.947 163.449 273.828 162.214 274.228 161.091C274.645 159.974 275.549 159.086 276.94 158.426C277.723 158.055 278.514 157.855 279.313 157.828C280.111 157.801 280.856 157.989 281.547 158.391C282.238 158.794 282.79 159.431 283.204 160.303C283.591 161.12 283.733 161.918 283.629 162.697C283.536 163.471 283.243 164.164 282.75 164.777C282.267 165.384 281.651 165.866 280.9 166.222C280.69 166.321 280.48 166.333 280.268 166.258C280.062 166.193 279.904 166.045 279.794 165.814L277.132 160.201C276.401 160.656 275.936 161.228 275.736 161.918C275.536 162.607 275.642 163.388 276.056 164.26C276.276 164.724 276.511 165.106 276.761 165.406C277.017 165.717 277.306 165.999 277.629 166.252C277.715 166.319 277.784 166.408 277.836 166.519C277.92 166.695 277.933 166.879 277.874 167.069C277.816 167.259 277.692 167.398 277.505 167.487C277.262 167.602 276.99 167.556 276.688 167.347C276.241 167.032 275.857 166.693 275.537 166.331C275.217 165.969 274.9 165.457 274.586 164.795ZM280.673 164.504C281.199 164.214 281.583 163.856 281.827 163.43C282.076 163.014 282.197 162.585 282.19 162.142C282.194 161.694 282.107 161.283 281.929 160.907C281.751 160.532 281.487 160.204 281.138 159.924C280.8 159.638 280.391 159.46 279.911 159.39C279.432 159.32 278.914 159.396 278.357 159.62L280.673 164.504Z" class="fill-black dark:fill-white"/>
<path d="M277.689 171.99C277.614 171.771 277.626 171.56 277.725 171.358C277.824 171.157 277.983 171.019 278.203 170.944L285.644 168.408C285.864 168.333 286.074 168.345 286.276 168.444C286.489 168.539 286.633 168.697 286.708 168.917C286.783 169.136 286.765 169.349 286.654 169.554C286.559 169.767 286.402 169.911 286.182 169.986L285.436 170.24C286.799 170.679 287.652 171.402 287.994 172.408L288.024 172.495C288.099 172.714 288.085 172.919 287.982 173.109C287.883 173.311 287.723 173.449 287.504 173.524C287.284 173.599 287.079 173.585 286.889 173.482C286.699 173.379 286.565 173.211 286.486 172.98L286.456 172.893C286.267 172.338 285.955 171.877 285.52 171.509C285.096 171.137 284.594 170.876 284.014 170.725L278.741 172.522C278.521 172.597 278.309 172.579 278.103 172.468C277.902 172.369 277.764 172.21 277.689 171.99Z" class="fill-black dark:fill-white"/>
<path d="M280.607 182.552C280.292 181.096 280.457 179.866 281.102 178.864C281.762 177.871 282.844 177.212 284.348 176.886C285.196 176.702 286.012 176.688 286.795 176.843C287.579 176.998 288.261 177.351 288.843 177.9C289.424 178.449 289.817 179.195 290.021 180.138C290.213 181.021 290.169 181.831 289.891 182.566C289.625 183.299 289.182 183.907 288.561 184.391C287.953 184.873 287.243 185.202 286.432 185.378C286.205 185.427 285.997 185.391 285.808 185.269C285.622 185.159 285.501 184.979 285.447 184.728L284.132 178.657C283.317 178.934 282.734 179.385 282.382 180.012C282.03 180.638 281.956 181.422 282.161 182.366C282.269 182.867 282.411 183.292 282.587 183.642C282.765 184.003 282.983 184.344 283.239 184.663C283.308 184.748 283.355 184.85 283.381 184.97C283.422 185.161 283.393 185.342 283.292 185.514C283.192 185.686 283.041 185.794 282.838 185.837C282.575 185.894 282.32 185.787 282.074 185.515C281.711 185.107 281.414 184.69 281.184 184.264C280.955 183.839 280.762 183.268 280.607 182.552ZM286.602 183.653C287.179 183.491 287.635 183.23 287.969 182.87C288.306 182.522 288.522 182.131 288.616 181.699C288.721 181.263 288.73 180.843 288.642 180.437C288.554 180.031 288.372 179.651 288.096 179.299C287.831 178.944 287.474 178.677 287.023 178.5C286.572 178.323 286.05 178.279 285.457 178.37L286.602 183.653Z" class="fill-black dark:fill-white"/>
<path d="M282.141 192.62C282.092 191.95 282.208 191.354 282.488 190.831C282.769 190.321 283.174 189.911 283.703 189.603C284.232 189.307 284.826 189.135 285.484 189.087L290.674 188.708C290.906 188.691 291.106 188.756 291.276 188.903C291.447 189.062 291.541 189.257 291.558 189.489C291.575 189.72 291.51 189.921 291.363 190.091C291.216 190.261 291.027 190.354 290.796 190.371L285.788 190.737C284.302 190.846 283.608 191.57 283.705 192.91C283.75 193.519 283.948 194.05 284.299 194.502C284.652 194.966 285.112 195.392 285.679 195.779L291.161 195.379C291.393 195.362 291.594 195.427 291.763 195.574C291.934 195.733 292.028 195.928 292.045 196.159C292.062 196.391 291.997 196.592 291.85 196.761C291.703 196.931 291.514 197.025 291.283 197.042L283.443 197.614C283.211 197.631 283.004 197.567 282.822 197.421C282.652 197.274 282.559 197.085 282.542 196.853C282.525 196.622 282.59 196.415 282.735 196.233C282.894 196.062 283.09 195.968 283.321 195.951L284.071 195.897C283.525 195.471 283.08 195.001 282.737 194.487C282.393 193.974 282.194 193.351 282.141 192.62Z" class="fill-black dark:fill-white"/>
<path d="M282.763 202.51C282.788 202.279 282.888 202.093 283.063 201.953C283.238 201.812 283.441 201.754 283.672 201.779L291.487 202.622C291.718 202.647 291.904 202.747 292.045 202.922C292.198 203.099 292.262 203.302 292.237 203.533C292.212 203.764 292.106 203.949 291.919 204.088C291.742 204.241 291.539 204.305 291.308 204.28L290.561 204.2C291.01 204.592 291.367 205.042 291.632 205.55C291.895 206.07 291.985 206.713 291.903 207.478C291.829 208.158 291.584 208.721 291.168 209.168C290.751 209.614 290.27 209.912 289.725 210.063C290.895 210.951 291.4 212.135 291.24 213.617C291.167 214.297 290.936 214.844 290.547 215.256C290.157 215.681 289.683 215.974 289.125 216.135C288.567 216.296 287.997 216.345 287.414 216.282L282.167 215.716C281.936 215.691 281.751 215.585 281.611 215.398C281.471 215.223 281.413 215.02 281.438 214.789C281.462 214.558 281.562 214.372 281.737 214.232C281.912 214.091 282.115 214.033 282.346 214.058L287.265 214.589C288.054 214.674 288.646 214.597 289.041 214.357C289.447 214.118 289.687 213.658 289.761 212.978C289.828 212.359 289.72 211.825 289.436 211.377C289.164 210.942 288.783 210.538 288.295 210.166L282.83 209.576C282.599 209.551 282.414 209.445 282.274 209.258C282.133 209.083 282.075 208.88 282.1 208.65C282.125 208.419 282.225 208.233 282.4 208.092C282.575 207.951 282.778 207.893 283.009 207.918L287.928 208.449C288.717 208.534 289.309 208.457 289.704 208.217C290.11 207.978 290.35 207.519 290.424 206.839C290.491 206.219 290.382 205.686 290.099 205.237C289.826 204.802 289.446 204.399 288.958 204.027L283.493 203.437C283.262 203.412 283.077 203.306 282.937 203.119C282.796 202.944 282.738 202.741 282.763 202.51Z" class="fill-black dark:fill-white"/>
<path d="M277.36 228.606C277.659 227.779 278.119 227.081 278.74 226.514C279.362 225.946 280.094 225.575 280.937 225.399C281.776 225.235 282.66 225.321 283.591 225.658C284.521 225.995 285.256 226.495 285.796 227.158C286.331 227.832 286.656 228.586 286.77 229.42C286.884 230.254 286.791 231.084 286.492 231.911C286.271 232.52 286.002 233.013 285.683 233.392C285.371 233.786 285.026 234.128 284.648 234.42C284.416 234.596 284.173 234.638 283.92 234.547C283.748 234.484 283.612 234.357 283.513 234.165C283.421 233.989 283.406 233.815 283.468 233.642C283.514 233.516 283.594 233.402 283.709 233.301C284.041 232.992 284.297 232.715 284.478 232.468C284.665 232.237 284.832 231.921 284.977 231.519C285.335 230.531 285.328 229.652 284.958 228.881C284.598 228.114 283.954 227.563 283.023 227.226C282.093 226.889 281.239 226.898 280.461 227.253C279.694 227.612 279.132 228.286 278.774 229.274C278.629 229.676 278.548 230.023 278.533 230.317C278.525 230.626 278.55 231.005 278.609 231.455C278.632 231.606 278.62 231.745 278.575 231.871C278.512 232.044 278.384 232.166 278.189 232.238C278.001 232.326 277.821 232.339 277.649 232.277C277.396 232.185 277.236 231.997 277.17 231.714C277.066 231.247 277.015 230.761 277.016 230.255C277.025 229.764 277.139 229.215 277.36 228.606Z" class="fill-black dark:fill-white"/>
<path d="M273.165 238.059C273.604 237.226 274.166 236.591 274.853 236.152C275.54 235.712 276.299 235.491 277.129 235.486C277.965 235.499 278.805 235.727 279.648 236.171C280.491 236.615 281.148 237.175 281.62 237.852C282.098 238.545 282.349 239.299 282.376 240.113C282.402 240.928 282.197 241.752 281.758 242.584C281.326 243.405 280.766 244.036 280.079 244.475C279.392 244.914 278.628 245.133 277.786 245.131C276.956 245.136 276.119 244.916 275.276 244.472C274.433 244.028 273.773 243.459 273.296 242.766C272.829 242.079 272.583 241.328 272.556 240.513C272.53 239.698 272.733 238.88 273.165 238.059ZM274.511 238.767C274.278 239.21 274.158 239.686 274.153 240.194C274.142 240.713 274.29 241.219 274.596 241.712C274.897 242.215 275.388 242.646 276.069 243.005C276.739 243.358 277.367 243.516 277.953 243.479C278.532 243.453 279.028 243.286 279.438 242.978C279.854 242.686 280.179 242.318 280.413 241.875C280.652 241.421 280.777 240.935 280.788 240.416C280.804 239.914 280.658 239.416 280.352 238.923C280.045 238.43 279.557 238.008 278.887 237.655C278.206 237.296 277.576 237.13 276.996 237.156C276.416 237.182 275.918 237.341 275.502 237.632C275.08 237.935 274.75 238.313 274.511 238.767Z" class="fill-black dark:fill-white"/>
<path d="M266.864 248.259C267.418 247.499 268.067 246.952 268.81 246.617C269.554 246.282 270.337 246.173 271.159 246.289C271.984 246.422 272.782 246.769 273.552 247.331C274.321 247.893 274.891 248.542 275.26 249.28C275.631 250.035 275.771 250.818 275.679 251.628C275.587 252.438 275.264 253.223 274.71 253.982C274.163 254.733 273.518 255.275 272.774 255.61C272.031 255.945 271.243 256.05 270.411 255.927C269.588 255.811 268.792 255.472 268.022 254.911C267.253 254.349 266.682 253.691 266.31 252.936C265.949 252.188 265.814 251.409 265.905 250.599C265.997 249.789 266.317 249.009 266.864 248.259ZM268.093 249.155C267.798 249.56 267.611 250.013 267.532 250.515C267.446 251.027 267.519 251.549 267.75 252.081C267.975 252.623 268.398 253.121 269.02 253.574C269.632 254.021 270.23 254.268 270.815 254.316C271.392 254.375 271.906 254.281 272.358 254.036C272.812 253.807 273.186 253.491 273.481 253.086C273.784 252.672 273.978 252.209 274.064 251.697C274.153 251.202 274.081 250.689 273.849 250.157C273.617 249.625 273.196 249.135 272.584 248.689C271.962 248.235 271.362 247.979 270.785 247.921C270.207 247.863 269.692 247.948 269.238 248.176C268.777 248.415 268.395 248.741 268.093 249.155Z" class="fill-black dark:fill-white"/>
<path d="M261.495 255.066C261.651 254.894 261.841 254.802 262.065 254.79C262.29 254.779 262.488 254.851 262.66 255.007L271.483 262.981C271.655 263.137 271.747 263.327 271.758 263.551C271.778 263.784 271.711 263.986 271.555 264.158C271.391 264.339 271.197 264.436 270.973 264.447C270.749 264.458 270.546 264.382 270.365 264.218L261.542 256.244C261.37 256.088 261.282 255.894 261.279 255.66C261.268 255.436 261.34 255.238 261.495 255.066Z" class="fill-black dark:fill-white"/>
<path d="M252.456 263.639C252.877 263.305 253.338 263.081 253.839 262.965C254.33 262.857 254.809 262.882 255.278 263.041C255.754 263.209 256.163 263.509 256.504 263.94C257.065 264.648 257.235 265.433 257.013 266.294C256.782 267.163 256.125 268.026 255.043 268.883L253.305 270.26L253.396 270.375C253.896 271.007 254.414 271.336 254.95 271.364C255.477 271.399 256.07 271.155 256.731 270.632C257.095 270.343 257.398 270.057 257.64 269.772C257.872 269.494 258.115 269.162 258.369 268.774C258.43 268.694 258.485 268.635 258.533 268.597C258.676 268.483 258.843 268.437 259.031 268.459C259.22 268.481 259.375 268.569 259.497 268.722C259.701 268.981 259.721 269.261 259.555 269.564C259.014 270.553 258.322 271.382 257.48 272.049C256.819 272.572 256.157 272.878 255.495 272.966C254.823 273.062 254.211 272.978 253.659 272.714C253.105 272.467 252.631 272.095 252.236 271.597L249.017 267.531C248.873 267.349 248.819 267.143 248.854 266.912C248.88 266.689 248.984 266.506 249.166 266.362C249.348 266.217 249.55 266.158 249.773 266.184C249.996 266.21 250.18 266.314 250.324 266.496L250.62 266.87C250.752 265.581 251.364 264.504 252.456 263.639ZM252.878 265.175C252.456 265.509 252.129 265.932 251.896 266.444C251.67 266.965 251.544 267.486 251.519 268.004L252.474 269.211L254.04 267.971C255.486 266.826 255.91 265.875 255.31 265.118C255.037 264.774 254.703 264.587 254.306 264.558C253.9 264.537 253.424 264.743 252.878 265.175Z" class="fill-black dark:fill-white"/>
<path d="M239.577 267.505C240.189 267.149 240.853 266.868 241.568 266.664C242.283 266.46 242.909 266.357 243.445 266.356C243.703 266.361 243.905 266.491 244.053 266.744C244.151 266.913 244.182 267.1 244.146 267.305C244.093 267.505 243.977 267.658 243.797 267.762C243.713 267.811 243.606 267.846 243.475 267.865C242.439 267.931 241.452 268.237 240.512 268.784C238.897 269.724 238.59 271.055 239.592 272.776L240.209 273.837C240.492 272.598 241.161 271.671 242.217 271.057C242.84 270.694 243.536 270.494 244.305 270.456C245.07 270.435 245.821 270.62 246.558 271.011C247.3 271.413 247.93 272.057 248.446 272.944C248.962 273.831 249.208 274.691 249.185 275.524C249.167 276.369 248.957 277.113 248.555 277.757C248.148 278.418 247.633 278.929 247.01 279.292C245.954 279.907 244.818 280.031 243.601 279.665L243.832 280.061C243.949 280.261 243.978 280.47 243.921 280.687C243.87 280.915 243.744 281.087 243.543 281.204C243.343 281.321 243.131 281.345 242.907 281.277C242.68 281.226 242.507 281.1 242.391 280.899L238.27 273.82C237.496 272.49 237.222 271.279 237.448 270.186C237.674 269.093 238.384 268.199 239.577 267.505ZM242.681 272.547C242.185 272.835 241.808 273.196 241.551 273.628C241.294 274.061 241.095 274.558 240.956 275.12L242.855 278.382C243.412 278.538 243.942 278.611 244.445 278.601C244.948 278.591 245.448 278.442 245.944 278.153C246.736 277.692 247.244 277.071 247.468 276.29C247.688 275.526 247.533 274.691 247.005 273.783C246.476 272.875 245.822 272.322 245.044 272.125C244.26 271.945 243.473 272.086 242.681 272.547Z" class="fill-black dark:fill-white"/>
<path d="M232.368 275.874C232.866 275.673 233.372 275.587 233.885 275.618C234.386 275.653 234.839 275.812 235.244 276.097C235.653 276.393 235.96 276.796 236.166 277.306C236.504 278.144 236.445 278.945 235.989 279.709C235.521 280.477 234.648 281.119 233.367 281.635L231.311 282.464L231.366 282.6C231.667 283.348 232.071 283.811 232.578 283.989C233.073 284.171 233.711 284.104 234.493 283.789C234.923 283.616 235.295 283.426 235.607 283.221C235.909 283.021 236.236 282.77 236.589 282.47C236.67 282.411 236.739 282.37 236.796 282.347C236.966 282.278 237.138 282.281 237.313 282.355C237.488 282.43 237.612 282.558 237.685 282.739C237.808 283.045 237.748 283.319 237.504 283.563C236.705 284.359 235.807 284.958 234.81 285.36C234.029 285.676 233.308 285.782 232.647 285.68C231.976 285.582 231.412 285.328 230.957 284.919C230.496 284.525 230.146 284.034 229.909 283.445L227.969 278.636C227.882 278.42 227.888 278.207 227.988 277.996C228.076 277.789 228.227 277.642 228.442 277.556C228.658 277.469 228.869 277.469 229.075 277.557C229.282 277.645 229.429 277.797 229.515 278.012L229.694 278.454C230.185 277.255 231.076 276.395 232.368 275.874ZM232.338 277.466C231.84 277.667 231.406 277.98 231.038 278.406C230.674 278.842 230.406 279.306 230.235 279.796L230.811 281.224L232.663 280.477C234.374 279.787 235.049 278.994 234.688 278.099C234.523 277.691 234.255 277.418 233.882 277.278C233.499 277.143 232.984 277.206 232.338 277.466Z" class="fill-black dark:fill-white"/>
<path d="M226.632 290.052C226.879 289.98 227.116 290.007 227.343 290.131C227.57 290.256 227.719 290.442 227.791 290.688L227.811 290.758C227.883 291.005 227.856 291.242 227.731 291.469C227.607 291.696 227.421 291.845 227.175 291.917L227.069 291.947C226.823 292.019 226.586 291.992 226.359 291.868C226.132 291.743 225.983 291.557 225.911 291.311L225.89 291.241C225.819 290.994 225.845 290.758 225.97 290.53C226.095 290.303 226.281 290.154 226.527 290.082L226.632 290.052ZM223.43 279.17C223.653 279.106 223.863 279.127 224.06 279.235C224.257 279.344 224.388 279.509 224.452 279.732L226.647 287.28C226.712 287.503 226.69 287.713 226.582 287.91C226.477 288.118 226.314 288.255 226.091 288.32C225.856 288.388 225.64 288.368 225.444 288.26C225.247 288.152 225.114 287.981 225.046 287.746L222.851 280.198C222.786 279.975 222.814 279.763 222.934 279.563C223.042 279.366 223.208 279.235 223.43 279.17Z" class="fill-black dark:fill-white"/>
<path d="M218.212 280.61C218.44 280.569 218.646 280.613 218.831 280.741C219.015 280.869 219.128 281.048 219.168 281.276L220.551 289.015C220.592 289.243 220.548 289.45 220.42 289.634C220.293 289.83 220.116 289.949 219.887 289.99C219.659 290.03 219.451 289.981 219.265 289.84C219.069 289.714 218.95 289.537 218.909 289.308L218.777 288.569C218.411 289.155 217.989 289.646 217.514 290.041C217.039 290.437 216.44 290.699 215.719 290.828C215.057 290.946 214.458 290.891 213.921 290.665C213.372 290.44 212.923 290.08 212.574 289.584C212.213 289.09 211.974 288.518 211.858 287.869L210.943 282.746C210.902 282.517 210.952 282.31 211.092 282.124C211.221 281.939 211.399 281.827 211.628 281.786C211.856 281.745 212.062 281.789 212.247 281.917C212.431 282.046 212.544 282.224 212.584 282.453L213.467 287.395C213.729 288.862 214.522 289.478 215.845 289.241C216.446 289.134 216.959 288.881 217.384 288.482C217.798 288.086 218.167 287.585 218.494 286.981L217.527 281.57C217.486 281.341 217.536 281.134 217.676 280.947C217.805 280.763 217.983 280.651 218.212 280.61Z" class="fill-black dark:fill-white"/>
<path d="M200.586 282.791C200.817 282.807 201.007 282.9 201.154 283.07C201.301 283.239 201.367 283.44 201.35 283.671L200.798 291.513C200.782 291.745 200.689 291.934 200.519 292.081C200.349 292.241 200.148 292.312 199.916 292.296C199.685 292.28 199.496 292.18 199.349 291.999C199.19 291.828 199.118 291.627 199.135 291.396L199.187 290.646C198.812 291.11 198.375 291.483 197.878 291.766C197.368 292.049 196.729 292.163 195.961 292.109C195.279 292.061 194.707 291.837 194.245 291.437C193.784 291.037 193.468 290.568 193.297 290.029C192.454 291.231 191.288 291.78 189.802 291.675C189.119 291.627 188.565 291.416 188.138 291.043C187.699 290.67 187.388 290.207 187.207 289.655C187.025 289.104 186.955 288.535 186.996 287.95L187.367 282.686C187.384 282.455 187.483 282.266 187.664 282.119C187.834 281.972 188.035 281.907 188.266 281.923C188.498 281.939 188.687 282.032 188.834 282.202C188.981 282.371 189.047 282.572 189.031 282.803L188.683 287.739C188.627 288.531 188.726 289.119 188.981 289.505C189.235 289.902 189.703 290.125 190.385 290.173C191.006 290.217 191.536 290.089 191.973 289.789C192.398 289.501 192.787 289.105 193.141 288.604L193.527 283.12C193.543 282.889 193.643 282.7 193.824 282.553C193.994 282.406 194.194 282.341 194.426 282.357C194.657 282.373 194.847 282.466 194.994 282.636C195.141 282.805 195.207 283.006 195.191 283.237L194.843 288.173C194.787 288.965 194.886 289.553 195.141 289.939C195.394 290.336 195.862 290.559 196.545 290.607C197.166 290.651 197.696 290.523 198.133 290.223C198.558 289.935 198.947 289.539 199.301 289.038L199.687 283.554C199.703 283.323 199.802 283.134 199.984 282.987C200.154 282.84 200.354 282.775 200.586 282.791Z" class="fill-black dark:fill-white"/>
<path d="M181.501 280.383C182.023 280.514 182.482 280.742 182.879 281.069C183.264 281.392 183.536 281.788 183.696 282.256C183.852 282.736 183.864 283.243 183.73 283.776C183.51 284.653 182.991 285.266 182.173 285.615C181.344 285.961 180.259 285.966 178.92 285.63L176.77 285.091L176.734 285.233C176.538 286.015 176.592 286.627 176.897 287.069C177.19 287.507 177.746 287.829 178.563 288.034C179.013 288.147 179.425 288.213 179.798 288.231C180.16 288.246 180.572 288.236 181.034 288.2C181.135 288.2 181.215 288.208 181.274 288.223C181.452 288.267 181.589 288.371 181.687 288.534C181.785 288.697 181.81 288.873 181.762 289.063C181.682 289.383 181.472 289.57 181.131 289.623C180.017 289.797 178.938 289.753 177.896 289.492C177.078 289.287 176.432 288.948 175.959 288.477C175.473 288.003 175.167 287.466 175.04 286.868C174.898 286.278 174.904 285.675 175.059 285.059L176.32 280.029C176.376 279.804 176.507 279.635 176.711 279.522C176.904 279.407 177.113 279.377 177.338 279.434C177.563 279.49 177.733 279.615 177.849 279.808C177.964 280 177.994 280.209 177.937 280.434L177.821 280.896C178.924 280.216 180.151 280.045 181.501 280.383ZM180.541 281.654C180.019 281.523 179.484 281.521 178.936 281.648C178.385 281.787 177.896 282.005 177.469 282.301L177.095 283.794L179.032 284.279C180.822 284.728 181.833 284.484 182.068 283.548C182.175 283.121 182.119 282.742 181.9 282.41C181.669 282.075 181.216 281.823 180.541 281.654Z" class="fill-black dark:fill-white"/>
<path d="M172.26 277.821C172.475 277.907 172.628 278.053 172.716 278.259C172.805 278.465 172.807 278.676 172.721 278.892L168.322 289.941C168.236 290.157 168.09 290.309 167.884 290.398C167.673 290.498 167.46 290.505 167.244 290.419C167.029 290.333 166.879 290.181 166.795 289.964C166.694 289.753 166.687 289.54 166.773 289.324L169.545 282.361L164.002 284.494C163.773 284.573 163.574 284.579 163.403 284.512C163.142 284.408 162.984 284.259 162.93 284.067C162.863 283.869 162.871 283.669 162.952 283.464C163.029 283.271 163.202 283.117 163.472 283.001L166.798 281.78L165.343 276.468C165.288 276.275 165.293 276.099 165.356 275.94C165.446 275.713 165.592 275.561 165.794 275.484C165.996 275.406 166.21 275.413 166.437 275.503C166.551 275.548 166.653 275.622 166.744 275.724C166.835 275.826 166.9 275.944 166.938 276.077L168.281 281.227L170.297 280.471L171.172 278.275C171.257 278.06 171.409 277.91 171.627 277.825C171.833 277.737 172.044 277.735 172.26 277.821Z" class="fill-black dark:fill-white"/>
<path d="M159.556 271.864C160.855 272.595 161.665 273.534 161.987 274.682C162.291 275.835 162.067 277.082 161.312 278.423C160.887 279.179 160.356 279.799 159.72 280.282C159.084 280.765 158.367 281.042 157.571 281.113C156.774 281.183 155.955 280.982 155.114 280.509C154.326 280.065 153.75 279.496 153.384 278.8C153.013 278.114 152.852 277.379 152.901 276.594C152.945 275.819 153.17 275.07 153.577 274.346C153.691 274.144 153.856 274.012 154.072 273.952C154.278 273.885 154.492 273.915 154.716 274.041L160.13 277.086C160.464 276.293 160.514 275.557 160.279 274.878C160.044 274.199 159.506 273.623 158.665 273.15C158.218 272.899 157.805 272.723 157.427 272.622C157.038 272.516 156.639 272.452 156.23 272.432C156.121 272.427 156.013 272.395 155.907 272.335C155.736 272.239 155.62 272.096 155.558 271.907C155.497 271.718 155.517 271.533 155.618 271.352C155.75 271.118 155.999 270.999 156.366 270.995C156.913 270.994 157.422 271.049 157.892 271.16C158.363 271.27 158.917 271.505 159.556 271.864ZM154.754 275.618C154.492 276.157 154.385 276.672 154.433 277.161C154.469 277.644 154.618 278.064 154.88 278.421C155.135 278.789 155.444 279.075 155.806 279.279C156.168 279.483 156.573 279.598 157.02 279.625C157.461 279.663 157.898 279.572 158.329 279.353C158.761 279.133 159.14 278.772 159.465 278.268L154.754 275.618Z" class="fill-black dark:fill-white"/>
<path d="M145.892 262.212C147.017 263.189 147.622 264.272 147.705 265.462C147.772 266.652 147.3 267.828 146.291 268.99C145.722 269.645 145.078 270.145 144.357 270.49C143.637 270.835 142.88 270.962 142.085 270.871C141.291 270.78 140.529 270.418 139.801 269.785C139.118 269.192 138.668 268.518 138.45 267.763C138.225 267.016 138.215 266.264 138.421 265.505C138.62 264.755 138.991 264.066 139.536 263.439C139.688 263.264 139.876 263.168 140.1 263.152C140.315 263.128 140.519 263.201 140.713 263.369L145.403 267.442C145.89 266.732 146.086 266.021 145.993 265.309C145.9 264.597 145.489 263.925 144.76 263.292C144.373 262.955 144.004 262.7 143.654 262.525C143.295 262.343 142.917 262.201 142.52 262.099C142.414 262.071 142.315 262.018 142.223 261.938C142.075 261.81 141.99 261.647 141.968 261.449C141.945 261.252 142.002 261.074 142.138 260.918C142.314 260.715 142.582 260.648 142.942 260.718C143.478 260.828 143.965 260.984 144.404 261.187C144.843 261.39 145.339 261.731 145.892 262.212ZM140.432 264.921C140.068 265.397 139.859 265.88 139.807 266.368C139.745 266.849 139.807 267.29 139.991 267.693C140.167 268.105 140.412 268.447 140.726 268.719C141.039 268.992 141.412 269.186 141.845 269.303C142.269 269.429 142.715 269.428 143.183 269.3C143.65 269.172 144.094 268.894 144.514 268.466L140.432 264.921Z" class="fill-black dark:fill-white"/>
<path d="M138.595 255.028C139.799 256.344 139.806 257.546 138.617 258.634L134.426 262.469L135.304 263.429C135.37 263.501 135.405 263.585 135.41 263.68C135.397 263.774 135.354 263.855 135.282 263.921C135.192 264.003 135.078 264.033 134.941 264.009L131.461 263.816C131.305 263.809 131.195 263.769 131.129 263.697C131.063 263.625 131.036 263.542 131.049 263.447C131.054 263.344 131.092 263.259 131.164 263.193L132.246 262.204L130.848 260.676C130.708 260.523 130.642 260.351 130.65 260.161C130.659 259.971 130.74 259.806 130.893 259.666C131.037 259.534 131.209 259.468 131.407 259.469C131.597 259.477 131.762 259.558 131.902 259.711L133.3 261.239L137.383 257.503C137.734 257.182 137.886 256.894 137.836 256.641C137.77 256.388 137.621 256.135 137.39 255.882C137.225 255.702 137.033 255.547 136.814 255.416C136.772 255.388 136.73 255.36 136.688 255.332C136.638 255.296 136.584 255.246 136.526 255.182C136.411 255.056 136.357 254.898 136.366 254.708C136.365 254.527 136.432 254.374 136.568 254.25C136.775 254.061 137.028 254.02 137.325 254.128C137.809 254.332 138.232 254.631 138.595 255.028Z" class="fill-black dark:fill-white"/>
<path d="M134.964 250.962C135.099 251.151 135.148 251.356 135.111 251.577C135.075 251.799 134.962 251.977 134.773 252.112L125.103 259.035C124.915 259.17 124.709 259.219 124.488 259.182C124.256 259.153 124.073 259.043 123.938 258.855C123.803 258.666 123.759 258.457 123.805 258.229C123.835 257.997 123.944 257.814 124.133 257.679L128.022 254.895C127.334 254.816 126.71 254.647 126.149 254.388C125.588 254.128 125.094 253.701 124.667 253.105C124.276 252.558 124.067 251.994 124.041 251.412C124.008 250.82 124.14 250.259 124.438 249.731C124.728 249.192 125.142 248.731 125.678 248.347L129.91 245.318C130.098 245.183 130.307 245.139 130.536 245.185C130.757 245.222 130.936 245.335 131.071 245.523C131.206 245.712 131.255 245.917 131.218 246.139C131.182 246.36 131.069 246.539 130.88 246.674L126.798 249.596C125.586 250.464 125.371 251.444 126.153 252.537C126.509 253.033 126.958 253.388 127.501 253.6C128.036 253.803 128.647 253.921 129.333 253.956L133.803 250.756C133.991 250.621 134.2 250.577 134.429 250.624C134.65 250.66 134.829 250.773 134.964 250.962Z" class="fill-black dark:fill-white"/>
<path d="M126.793 237.966C127.482 239.287 127.647 240.517 127.289 241.654C126.915 242.786 126.045 243.707 124.68 244.419C123.911 244.819 123.128 245.048 122.331 245.105C121.535 245.162 120.783 245.003 120.078 244.627C119.372 244.251 118.796 243.635 118.35 242.779C117.932 241.977 117.761 241.185 117.835 240.403C117.898 239.626 118.165 238.922 118.636 238.291C119.095 237.666 119.693 237.161 120.43 236.777C120.636 236.67 120.846 236.65 121.06 236.718C121.268 236.774 121.432 236.916 121.551 237.144L124.421 242.653C125.134 242.171 125.578 241.581 125.752 240.885C125.926 240.188 125.79 239.411 125.344 238.556C125.107 238.101 124.858 237.728 124.596 237.437C124.329 237.136 124.029 236.865 123.697 236.624C123.609 236.56 123.536 236.474 123.48 236.366C123.39 236.192 123.37 236.01 123.422 235.818C123.473 235.625 123.591 235.481 123.775 235.385C124.013 235.261 124.287 235.298 124.596 235.495C125.055 235.793 125.451 236.117 125.785 236.466C126.118 236.816 126.455 237.316 126.793 237.966ZM120.721 238.486C120.207 238.795 119.836 239.167 119.608 239.602C119.375 240.027 119.27 240.46 119.294 240.903C119.307 241.35 119.41 241.759 119.601 242.127C119.793 242.495 120.069 242.813 120.429 243.08C120.778 243.353 121.193 243.515 121.675 243.567C122.156 243.619 122.671 243.523 123.219 243.279L120.721 238.486Z" class="fill-black dark:fill-white"/>
<path d="M123.413 230.872C123.496 231.089 123.492 231.3 123.4 231.505C123.309 231.71 123.155 231.854 122.938 231.937L115.598 234.75C115.381 234.833 115.17 234.829 114.965 234.737C114.748 234.65 114.598 234.498 114.515 234.281C114.432 234.065 114.442 233.852 114.545 233.642C114.632 233.426 114.784 233.276 115.001 233.193L115.737 232.911C114.358 232.523 113.479 231.833 113.099 230.841L113.066 230.755C112.983 230.538 112.989 230.333 113.085 230.14C113.177 229.934 113.331 229.79 113.548 229.707C113.764 229.624 113.97 229.631 114.163 229.726C114.357 229.822 114.498 229.984 114.585 230.212L114.618 230.298C114.828 230.846 115.157 231.295 115.605 231.646C116.043 232.002 116.554 232.244 117.14 232.373L122.341 230.38C122.558 230.297 122.771 230.307 122.981 230.41C123.186 230.501 123.33 230.655 123.413 230.872Z" class="fill-black dark:fill-white"/>
<path d="M120.111 220.468C120.482 221.911 120.363 223.146 119.757 224.172C119.135 225.189 118.079 225.889 116.588 226.272C115.748 226.487 114.933 226.533 114.144 226.407C113.355 226.282 112.66 225.956 112.058 225.429C111.456 224.903 111.035 224.172 110.795 223.237C110.571 222.362 110.583 221.551 110.833 220.806C111.072 220.064 111.491 219.439 112.093 218.931C112.682 218.427 113.379 218.071 114.184 217.865C114.409 217.807 114.618 217.836 114.811 217.95C115.001 218.052 115.128 218.228 115.192 218.476L116.736 224.493C117.54 224.186 118.106 223.713 118.434 223.074C118.762 222.434 118.806 221.648 118.566 220.713C118.438 220.216 118.28 219.796 118.091 219.454C117.9 219.099 117.669 218.767 117.401 218.458C117.329 218.375 117.278 218.275 117.248 218.157C117.199 217.967 117.222 217.785 117.315 217.61C117.409 217.434 117.556 217.321 117.758 217.269C118.018 217.202 118.276 217.3 118.533 217.562C118.912 217.957 119.224 218.362 119.469 218.778C119.715 219.195 119.929 219.758 120.111 220.468ZM114.079 219.594C113.508 219.779 113.063 220.057 112.742 220.429C112.418 220.79 112.218 221.188 112.141 221.624C112.052 222.063 112.059 222.484 112.162 222.886C112.265 223.289 112.462 223.661 112.751 224.003C113.029 224.348 113.397 224.6 113.854 224.76C114.311 224.92 114.834 224.944 115.423 224.83L114.079 219.594Z" class="fill-black dark:fill-white"/>
<path d="M118.195 210.443C118.269 211.11 118.176 211.711 117.915 212.243C117.653 212.764 117.264 213.188 116.747 213.516C116.229 213.831 115.642 214.025 114.986 214.098L109.814 214.67C109.583 214.695 109.38 214.638 109.205 214.497C109.028 214.345 108.927 214.153 108.901 213.922C108.876 213.692 108.933 213.489 109.074 213.313C109.214 213.138 109.4 213.038 109.63 213.012L114.621 212.46C116.102 212.296 116.769 211.547 116.621 210.211C116.554 209.604 116.336 209.081 115.968 208.643C115.599 208.192 115.123 207.783 114.542 207.418L109.078 208.022C108.848 208.047 108.645 207.99 108.469 207.85C108.293 207.697 108.192 207.505 108.166 207.275C108.141 207.044 108.198 206.841 108.338 206.666C108.479 206.49 108.664 206.39 108.895 206.365L116.708 205.5C116.939 205.475 117.148 205.532 117.336 205.671C117.511 205.811 117.611 205.997 117.637 206.227C117.662 206.458 117.606 206.667 117.466 206.854C117.314 207.031 117.122 207.132 116.892 207.158L116.145 207.24C116.706 207.645 117.168 208.098 117.53 208.599C117.893 209.099 118.115 209.714 118.195 210.443Z" class="fill-black dark:fill-white"/>
<path d="M117.209 200.584C117.193 200.816 117.1 201.005 116.93 201.152C116.761 201.3 116.56 201.365 116.329 201.349L108.487 200.797C108.255 200.78 108.066 200.688 107.919 200.518C107.759 200.348 107.688 200.147 107.704 199.915C107.72 199.683 107.819 199.495 108.001 199.348C108.172 199.189 108.373 199.117 108.604 199.133L109.354 199.186C108.89 198.811 108.517 198.374 108.233 197.877C107.951 197.367 107.837 196.728 107.891 195.96C107.939 195.278 108.163 194.706 108.563 194.244C108.962 193.783 109.432 193.467 109.97 193.296C108.768 192.452 108.22 191.287 108.324 189.8C108.372 189.118 108.583 188.563 108.956 188.137C109.33 187.698 109.792 187.387 110.344 187.206C110.896 187.024 111.464 186.954 112.049 186.995L117.313 187.366C117.545 187.382 117.734 187.481 117.88 187.663C118.027 187.832 118.093 188.033 118.076 188.264C118.06 188.496 117.967 188.685 117.798 188.833C117.628 188.98 117.428 189.045 117.196 189.029L112.261 188.682C111.469 188.626 110.88 188.725 110.495 188.98C110.097 189.233 109.874 189.701 109.826 190.384C109.783 191.005 109.911 191.535 110.21 191.972C110.499 192.397 110.894 192.786 111.396 193.14L116.879 193.526C117.111 193.542 117.3 193.641 117.446 193.823C117.594 193.992 117.659 194.193 117.643 194.424C117.626 194.656 117.533 194.845 117.364 194.993C117.194 195.14 116.994 195.205 116.762 195.189L111.827 194.841C111.035 194.786 110.446 194.885 110.061 195.14C109.663 195.393 109.441 195.861 109.393 196.544C109.349 197.165 109.477 197.695 109.777 198.132C110.065 198.557 110.46 198.946 110.962 199.299L116.446 199.686C116.677 199.702 116.866 199.801 117.013 199.983C117.16 200.152 117.225 200.353 117.209 200.584Z" class="fill-black dark:fill-white"/>
<path d="M121.634 174.289C121.366 175.127 120.933 175.841 120.333 176.432C119.734 177.022 119.016 177.421 118.18 177.628C117.348 177.824 116.461 177.771 115.518 177.469C114.576 177.167 113.823 176.695 113.259 176.053C112.698 175.399 112.346 174.658 112.2 173.829C112.055 173 112.117 172.167 112.385 171.329C112.582 170.713 112.833 170.209 113.137 169.819C113.434 169.414 113.766 169.058 114.133 168.753C114.359 168.568 114.599 168.517 114.855 168.599C115.03 168.655 115.17 168.777 115.277 168.965C115.376 169.137 115.397 169.311 115.341 169.486C115.3 169.614 115.224 169.73 115.114 169.836C114.793 170.157 114.547 170.444 114.376 170.697C114.198 170.935 114.043 171.257 113.913 171.664C113.593 172.665 113.632 173.543 114.032 174.3C114.419 175.052 115.084 175.579 116.027 175.881C116.969 176.182 117.822 176.141 118.587 175.757C119.339 175.37 119.875 174.675 120.196 173.675C120.326 173.268 120.393 172.917 120.397 172.624C120.394 172.315 120.354 171.936 120.28 171.489C120.251 171.339 120.257 171.2 120.298 171.072C120.354 170.897 120.478 170.77 120.67 170.691C120.854 170.596 121.033 170.576 121.208 170.632C121.464 170.714 121.63 170.895 121.707 171.176C121.829 171.639 121.898 172.123 121.916 172.629C121.926 173.119 121.832 173.673 121.634 174.289Z" class="fill-black dark:fill-white"/>
<path d="M125.465 164.7C125.058 165.548 124.52 166.204 123.85 166.669C123.18 167.133 122.43 167.384 121.6 167.419C120.765 167.438 119.917 167.242 119.058 166.83C118.199 166.418 117.521 165.883 117.024 165.224C116.521 164.55 116.241 163.806 116.184 162.992C116.127 162.179 116.301 161.349 116.708 160.501C117.11 159.663 117.645 159.013 118.315 158.548C118.985 158.083 119.74 157.836 120.581 157.806C121.411 157.77 122.256 157.958 123.115 158.37C123.974 158.782 124.655 159.326 125.158 160.001C125.65 160.67 125.924 161.411 125.981 162.224C126.039 163.038 125.866 163.863 125.465 164.7ZM124.094 164.042C124.31 163.591 124.412 163.111 124.398 162.603C124.389 162.084 124.222 161.584 123.898 161.103C123.578 160.611 123.071 160.199 122.377 159.866C121.694 159.539 121.061 159.404 120.477 159.463C119.899 159.511 119.41 159.696 119.011 160.02C118.607 160.327 118.296 160.707 118.079 161.158C117.858 161.621 117.751 162.112 117.76 162.63C117.762 163.133 117.926 163.625 118.251 164.106C118.576 164.587 119.08 164.991 119.763 165.318C120.457 165.651 121.093 165.794 121.671 165.746C122.25 165.698 122.741 165.521 123.146 165.213C123.556 164.895 123.872 164.505 124.094 164.042Z" class="fill-black dark:fill-white"/>
<path d="M131.38 154.27C130.855 155.05 130.227 155.621 129.496 155.983C128.766 156.346 127.988 156.484 127.162 156.399C126.332 156.296 125.522 155.979 124.732 155.447C123.942 154.914 123.348 154.286 122.952 153.563C122.553 152.822 122.384 152.045 122.445 151.233C122.507 150.42 122.8 149.623 123.326 148.843C123.845 148.073 124.469 147.507 125.199 147.145C125.93 146.782 126.713 146.647 127.549 146.739C128.376 146.825 129.184 147.134 129.974 147.666C130.764 148.198 131.359 148.835 131.759 149.576C132.148 150.309 132.312 151.083 132.251 151.895C132.189 152.708 131.899 153.5 131.38 154.27ZM130.119 153.42C130.399 153.004 130.569 152.544 130.629 152.04C130.696 151.525 130.603 151.006 130.352 150.483C130.107 149.95 129.665 149.469 129.027 149.039C128.399 148.616 127.792 148.391 127.206 148.364C126.627 148.327 126.116 148.44 125.675 148.702C125.23 148.947 124.867 149.278 124.587 149.693C124.301 150.118 124.124 150.589 124.057 151.103C123.987 151.601 124.077 152.111 124.329 152.634C124.58 153.157 125.02 153.63 125.648 154.054C126.287 154.484 126.895 154.717 127.475 154.754C128.054 154.79 128.566 154.686 129.011 154.441C129.463 154.186 129.832 153.845 130.119 153.42Z" class="fill-black dark:fill-white"/>
<path d="M136.496 147.262C136.346 147.44 136.16 147.539 135.936 147.559C135.713 147.578 135.512 147.514 135.334 147.364L126.221 139.723C126.043 139.574 125.945 139.388 125.925 139.164C125.896 138.933 125.956 138.728 126.105 138.55C126.262 138.363 126.452 138.259 126.676 138.24C126.9 138.22 127.105 138.289 127.293 138.446L136.405 146.087C136.583 146.236 136.678 146.427 136.69 146.66C136.709 146.884 136.645 147.084 136.496 147.262Z" class="fill-black dark:fill-white"/>
<path d="M145.209 138.36C144.801 138.709 144.348 138.951 143.853 139.085C143.366 139.212 142.886 139.204 142.412 139.063C141.93 138.913 141.51 138.628 141.153 138.21C140.566 137.523 140.367 136.745 140.557 135.876C140.756 134.999 141.38 134.113 142.429 133.216L144.115 131.776L144.02 131.664C143.496 131.051 142.966 130.741 142.429 130.733C141.902 130.718 141.318 130.984 140.677 131.532C140.324 131.833 140.032 132.131 139.801 132.425C139.579 132.71 139.349 133.052 139.11 133.449C139.051 133.531 138.999 133.592 138.952 133.632C138.813 133.751 138.649 133.803 138.459 133.788C138.27 133.773 138.112 133.691 137.985 133.543C137.77 133.292 137.74 133.012 137.895 132.704C138.398 131.695 139.059 130.841 139.876 130.143C140.517 129.595 141.167 129.265 141.826 129.152C142.494 129.032 143.108 129.093 143.67 129.336C144.233 129.562 144.72 129.917 145.133 130.4L148.501 134.343C148.652 134.519 148.714 134.723 148.687 134.955C148.67 135.179 148.573 135.366 148.396 135.517C148.22 135.668 148.019 135.735 147.795 135.717C147.572 135.699 147.384 135.602 147.233 135.426L146.924 135.064C146.84 136.357 146.268 137.456 145.209 138.36ZM144.731 136.841C145.14 136.492 145.451 136.057 145.665 135.537C145.871 135.007 145.978 134.482 145.984 133.963L144.984 132.793L143.465 134.09C142.063 135.288 141.675 136.254 142.302 136.988C142.588 137.322 142.929 137.496 143.327 137.51C143.733 137.516 144.201 137.293 144.731 136.841Z" class="fill-black dark:fill-white"/>
<path d="M157.942 134.013C157.344 134.392 156.691 134.697 155.984 134.927C155.277 135.158 154.656 135.284 154.12 135.305C153.862 135.309 153.655 135.188 153.498 134.94C153.393 134.775 153.355 134.589 153.384 134.383C153.429 134.181 153.54 134.024 153.715 133.913C153.798 133.861 153.904 133.823 154.033 133.799C155.066 133.694 156.042 133.351 156.96 132.77C158.539 131.77 158.796 130.429 157.731 128.746L157.074 127.709C156.838 128.957 156.204 129.908 155.172 130.562C154.563 130.947 153.875 131.173 153.107 131.24C152.344 131.29 151.586 131.133 150.836 130.77C150.079 130.396 149.426 129.775 148.877 128.908C148.328 128.041 148.05 127.191 148.042 126.357C148.028 125.513 148.211 124.761 148.589 124.103C148.971 123.427 149.466 122.897 150.075 122.511C151.107 121.858 152.238 121.691 153.467 122.012L153.222 121.625C153.098 121.428 153.061 121.221 153.11 121.002C153.153 120.772 153.272 120.595 153.468 120.471C153.664 120.347 153.875 120.315 154.101 120.374C154.33 120.417 154.507 120.537 154.631 120.733L159.013 127.653C159.836 128.954 160.155 130.154 159.97 131.254C159.785 132.355 159.109 133.274 157.942 134.013ZM154.653 129.091C155.138 128.783 155.501 128.409 155.742 127.967C155.982 127.526 156.162 127.022 156.281 126.455L154.261 123.266C153.699 123.13 153.166 123.077 152.664 123.106C152.162 123.135 151.668 123.303 151.183 123.61C150.409 124.1 149.924 124.739 149.729 125.528C149.538 126.299 149.724 127.129 150.286 128.016C150.848 128.904 151.522 129.432 152.307 129.599C153.097 129.75 153.879 129.581 154.653 129.091Z" class="fill-black dark:fill-white"/>
<path d="M164.829 125.383C164.338 125.602 163.836 125.707 163.323 125.696C162.82 125.68 162.362 125.537 161.947 125.268C161.527 124.987 161.204 124.596 160.98 124.095C160.61 123.269 160.639 122.467 161.066 121.687C161.504 120.902 162.354 120.227 163.613 119.663L165.637 118.757L165.577 118.623C165.248 117.887 164.827 117.44 164.314 117.282C163.812 117.118 163.177 117.208 162.408 117.553C161.984 117.742 161.62 117.946 161.315 118.162C161.022 118.374 160.705 118.636 160.363 118.95C160.284 119.012 160.216 119.056 160.161 119.081C159.993 119.156 159.821 119.159 159.643 119.091C159.466 119.024 159.337 118.901 159.257 118.722C159.122 118.421 159.173 118.144 159.408 117.892C160.176 117.066 161.05 116.434 162.031 115.995C162.801 115.65 163.517 115.517 164.181 115.594C164.856 115.667 165.428 115.899 165.898 116.291C166.374 116.667 166.742 117.145 167.002 117.725L169.121 122.458C169.215 122.669 169.217 122.883 169.126 123.098C169.046 123.307 168.9 123.46 168.688 123.555C168.476 123.649 168.266 123.657 168.056 123.577C167.846 123.497 167.694 123.351 167.599 123.139L167.404 122.704C166.958 123.921 166.1 124.814 164.829 125.383ZM164.799 123.79C165.289 123.571 165.711 123.241 166.063 122.803C166.41 122.353 166.66 121.879 166.813 121.383L166.184 119.978L164.361 120.794C162.677 121.548 162.032 122.365 162.427 123.246C162.606 123.647 162.885 123.911 163.262 124.036C163.651 124.157 164.163 124.075 164.799 123.79Z" class="fill-black dark:fill-white"/>
<path d="M170.024 111C169.781 111.081 169.543 111.063 169.312 110.947C169.08 110.831 168.924 110.651 168.843 110.408L168.82 110.338C168.739 110.095 168.757 109.857 168.873 109.625C168.989 109.394 169.169 109.238 169.412 109.157L169.517 109.122C169.76 109.041 169.998 109.059 170.229 109.175C170.461 109.291 170.617 109.471 170.698 109.714L170.721 109.784C170.802 110.027 170.784 110.265 170.668 110.497C170.552 110.728 170.372 110.885 170.129 110.965L170.024 111ZM173.634 121.753C173.414 121.826 173.203 121.812 173.002 121.712C172.802 121.611 172.665 121.451 172.591 121.23L170.114 113.77C170.041 113.55 170.055 113.339 170.155 113.138C170.252 112.926 170.411 112.783 170.631 112.71C170.863 112.633 171.079 112.645 171.28 112.746C171.481 112.846 171.619 113.013 171.696 113.244L174.174 120.705C174.247 120.925 174.228 121.137 174.115 121.342C174.015 121.543 173.854 121.68 173.634 121.753Z" class="fill-black dark:fill-white"/>
<path d="M178.814 120.113C178.587 120.162 178.379 120.126 178.19 120.005C178.001 119.884 177.882 119.709 177.833 119.483L176.162 111.801C176.113 111.574 176.149 111.366 176.27 111.178C176.389 110.977 176.562 110.852 176.789 110.802C177.016 110.753 177.225 110.795 177.416 110.928C177.617 111.047 177.742 111.22 177.792 111.447L177.951 112.181C178.296 111.581 178.698 111.075 179.159 110.662C179.619 110.249 180.207 109.965 180.923 109.809C181.58 109.667 182.181 109.699 182.726 109.905C183.283 110.109 183.745 110.452 184.112 110.935C184.492 111.415 184.751 111.977 184.892 112.622L185.997 117.707C186.047 117.934 186.005 118.143 185.871 118.335C185.75 118.524 185.576 118.643 185.349 118.692C185.122 118.741 184.914 118.705 184.725 118.584C184.537 118.462 184.417 118.288 184.368 118.061L183.301 113.155C182.985 111.699 182.17 111.114 180.857 111.399C180.26 111.529 179.756 111.801 179.346 112.215C178.948 112.627 178.597 113.141 178.294 113.757L179.462 119.128C179.511 119.355 179.469 119.564 179.336 119.756C179.214 119.945 179.04 120.064 178.814 120.113Z" class="fill-black dark:fill-white"/>
</svg>
