<svg width="200" height="200" viewBox="0 0 200 200" fill="none" xmlns="http://www.w3.org/2000/svg">
<path d="M102.521 17.2368C102.29 17.2119 102.104 17.1119 101.964 16.937C101.823 16.762 101.765 16.5592 101.79 16.3284L102.634 8.51291C102.659 8.28215 102.759 8.09635 102.934 7.95551C103.11 7.80253 103.313 7.73851 103.544 7.76343C103.775 7.78836 103.96 7.89437 104.1 8.08146C104.253 8.25772 104.317 8.46123 104.292 8.69199L104.211 9.43892C104.604 8.98985 105.054 8.633 105.562 8.36839C106.081 8.10509 106.724 8.01476 107.489 8.09741C108.169 8.17088 108.733 8.41604 109.179 8.83287C109.625 9.24971 109.924 9.7304 110.074 10.275C110.962 9.10533 112.147 8.60054 113.629 8.7606C114.309 8.83407 114.855 9.06511 115.268 9.45372C115.693 9.84364 115.985 10.3176 116.146 10.8756C116.307 11.4336 116.356 12.0041 116.293 12.5871L115.726 17.8339C115.701 18.0646 115.595 18.2498 115.408 18.3893C115.233 18.5301 115.031 18.5881 114.8 18.5632C114.569 18.5382 114.383 18.4383 114.242 18.2634C114.102 18.0884 114.044 17.8856 114.069 17.6548L114.6 12.7359C114.685 11.9465 114.608 11.3545 114.368 10.96C114.129 10.5533 113.67 10.3132 112.99 10.2397C112.37 10.1728 111.836 10.281 111.388 10.5644C110.953 10.8368 110.55 11.2172 110.177 11.7053L109.587 17.1707C109.562 17.4015 109.456 17.5866 109.269 17.7261C109.094 17.8669 108.891 17.9249 108.66 17.9C108.43 17.875 108.244 17.7751 108.103 17.6002C107.962 17.4252 107.904 17.2224 107.929 16.9916L108.46 12.0728C108.546 11.2833 108.468 10.6913 108.228 10.2968C107.99 9.8901 107.53 9.65003 106.85 9.57656C106.231 9.50965 105.697 9.61785 105.249 9.90117C104.814 10.1737 104.41 10.554 104.038 11.0421L103.447 16.5075C103.423 16.7383 103.317 16.9234 103.129 17.0629C102.955 17.2038 102.752 17.2617 102.521 17.2368Z" fill="white"/>
<path d="M121.509 20.3591C120.993 20.2088 120.543 19.9631 120.159 19.6222C119.786 19.2846 119.529 18.8789 119.387 18.405C119.249 17.9193 119.256 17.4126 119.41 16.8848C119.663 16.0169 120.205 15.424 121.035 15.1061C121.878 14.7917 122.961 14.8275 124.287 15.2136L126.415 15.8337L126.456 15.6929C126.682 14.9189 126.651 14.3054 126.363 13.8525C126.086 13.4031 125.544 13.0605 124.734 12.8247C124.289 12.6949 123.88 12.6139 123.507 12.5818C123.147 12.553 122.735 12.5476 122.272 12.5653C122.171 12.5614 122.091 12.5509 122.033 12.5339C121.857 12.4826 121.723 12.3737 121.632 12.2071C121.54 12.0405 121.522 11.8634 121.577 11.6757C121.669 11.359 121.886 11.1806 122.229 11.1404C123.349 11.0086 124.425 11.0931 125.457 11.3937C126.266 11.6295 126.898 11.9919 127.354 12.4808C127.821 12.9732 128.107 13.5209 128.211 14.1239C128.331 14.7185 128.302 15.3207 128.124 15.9306L126.674 20.9093C126.609 21.1322 126.472 21.2959 126.263 21.4006C126.066 21.5086 125.857 21.5302 125.634 21.4653C125.411 21.4003 125.245 21.2694 125.137 21.0726C125.029 20.8757 125.008 20.6658 125.073 20.443L125.206 19.9856C124.078 20.6241 122.846 20.7486 121.509 20.3591ZM122.517 19.1259C123.033 19.2763 123.567 19.2983 124.12 19.1921C124.676 19.0742 125.173 18.8754 125.611 18.5957L126.041 17.118L124.124 16.5593C122.353 16.0434 121.332 16.2487 121.062 17.1753C120.939 17.5975 120.981 17.9786 121.187 18.3186C121.405 18.6621 121.849 18.9312 122.517 19.1259Z" fill="white"/>
<path d="M130.628 23.2615C130.416 23.1676 130.269 23.0159 130.188 22.8065C130.107 22.597 130.113 22.3861 130.207 22.1739L135.017 11.2977C135.111 11.0854 135.263 10.9388 135.472 10.8578C135.687 10.7656 135.9 10.7664 136.112 10.8603C136.324 10.9542 136.469 11.1114 136.545 11.3321C136.637 11.5465 136.636 11.7598 136.542 11.9721L133.511 18.8263L139.13 16.9033C139.362 16.8322 139.561 16.8337 139.729 16.9078C139.986 17.0214 140.138 17.1756 140.186 17.3702C140.244 17.5698 140.229 17.7701 140.14 17.9712C140.056 18.1612 139.877 18.3091 139.603 18.415L136.234 19.5096L137.489 24.8731C137.536 25.0677 137.525 25.2432 137.456 25.3997C137.357 25.6231 137.206 25.7697 137.001 25.8396C136.797 25.9094 136.583 25.8949 136.359 25.7961C136.248 25.7467 136.148 25.6694 136.061 25.5641C135.974 25.4588 135.914 25.3386 135.88 25.2035L134.732 20.0073L132.688 20.6865L131.732 22.8483C131.638 23.0606 131.481 23.2047 131.26 23.2808C131.051 23.3618 130.84 23.3554 130.628 23.2615Z" fill="white"/>
<path d="M143.101 29.6901C141.83 28.9115 141.055 27.9426 140.777 26.7835C140.516 25.6204 140.787 24.3826 141.591 23.0702C142.044 22.3306 142.598 21.7313 143.251 21.2723C143.905 20.8133 144.631 20.5634 145.43 20.5226C146.229 20.4818 147.039 20.7136 147.862 21.2178C148.633 21.6901 149.188 22.2808 149.527 22.99C149.872 23.6888 150.006 24.4296 149.927 25.2125C149.855 25.9849 149.602 26.7252 149.168 27.4335C149.047 27.6315 148.877 27.7566 148.659 27.8091C148.451 27.8679 148.237 27.8303 148.019 27.6963L142.722 24.4509C142.359 25.2311 142.282 25.9647 142.491 26.6518C142.7 27.3388 143.217 27.9344 144.039 28.4386C144.477 28.7067 144.883 28.898 145.257 29.0125C145.641 29.1334 146.037 29.2115 146.446 29.2467C146.554 29.2561 146.661 29.2927 146.765 29.3565C146.932 29.4586 147.042 29.6053 147.097 29.7964C147.152 29.9876 147.125 30.1717 147.017 30.3488C146.876 30.5779 146.623 30.6877 146.256 30.678C145.71 30.6582 145.203 30.5844 144.737 30.4564C144.271 30.3285 143.726 30.073 143.101 29.6901ZM148.04 26.1188C148.321 25.5893 148.447 25.0793 148.418 24.5887C148.4 24.1046 148.267 23.6791 148.019 23.3122C147.777 22.935 147.479 22.6378 147.125 22.4208C146.771 22.2038 146.371 22.0734 145.925 22.0294C145.486 21.975 145.046 22.0495 144.606 22.2528C144.166 22.4562 143.775 22.8035 143.431 23.2947L148.04 26.1188Z" fill="white"/>
<path d="M156.399 39.8465C155.311 38.8282 154.747 37.7233 154.708 36.5319C154.686 35.34 155.2 34.1821 156.252 33.0582C156.845 32.4249 157.507 31.9492 158.24 31.6311C158.973 31.313 159.734 31.2143 160.525 31.335C161.315 31.4557 162.063 31.8458 162.768 32.5052C163.428 33.1229 163.852 33.8132 164.042 34.5761C164.24 35.3301 164.221 36.0826 163.987 36.8337C163.761 37.5758 163.364 38.2501 162.797 38.8567C162.638 39.0261 162.447 39.1146 162.222 39.122C162.007 39.1378 161.805 39.0581 161.618 38.8828L157.082 34.6383C156.569 35.3294 156.346 36.0325 156.413 36.7477C156.48 37.4628 156.866 38.1501 157.571 38.8095C157.945 39.1601 158.304 39.4291 158.647 39.6165C159 39.8122 159.372 39.9684 159.765 40.085C159.87 40.1161 159.967 40.1734 160.056 40.2569C160.198 40.3904 160.277 40.5563 160.293 40.7546C160.308 40.9529 160.245 41.1279 160.103 41.2795C159.919 41.4757 159.649 41.5322 159.291 41.449C158.76 41.3197 158.279 41.1455 157.848 40.9264C157.417 40.7073 156.934 40.3474 156.399 39.8465ZM161.956 37.3418C162.338 36.8797 162.564 36.4055 162.634 35.9192C162.714 35.4412 162.669 34.9976 162.5 34.5883C162.339 34.1702 162.107 33.8192 161.804 33.5354C161.5 33.2516 161.135 33.0433 160.707 32.9106C160.287 32.7689 159.842 32.7534 159.37 32.8641C158.898 32.9748 158.445 33.2362 158.009 33.6482L161.956 37.3418Z" fill="white"/>
<path d="M163.424 47.2968C162.27 45.9372 162.308 44.7355 163.537 43.692L167.867 40.0157L167.025 39.0239C166.962 38.9494 166.93 38.8645 166.929 38.7691C166.946 38.6751 166.991 38.5965 167.066 38.5332C167.159 38.4541 167.273 38.4289 167.41 38.4573L170.88 38.7799C171.035 38.7926 171.145 38.8362 171.208 38.9107C171.271 38.9852 171.294 39.0694 171.278 39.1634C171.27 39.2667 171.228 39.35 171.154 39.4133L170.036 40.362L171.376 41.9405C171.511 42.0988 171.57 42.2727 171.555 42.4621C171.539 42.6515 171.452 42.8134 171.294 42.9478C171.145 43.0743 170.971 43.1337 170.772 43.1261C170.583 43.1107 170.421 43.0238 170.287 42.8655L168.947 41.2869L164.728 44.8683C164.365 45.1766 164.203 45.4581 164.243 45.7127C164.3 45.9687 164.439 46.227 164.661 46.4878C164.819 46.6741 165.005 46.8366 165.219 46.9754C165.26 47.0048 165.301 47.0341 165.342 47.0635C165.39 47.1021 165.442 47.154 165.498 47.2192C165.608 47.3496 165.656 47.5095 165.641 47.6989C165.634 47.8804 165.562 48.0304 165.422 48.149C165.208 48.3309 164.954 48.3621 164.66 48.2428C164.184 48.0219 163.772 47.7066 163.424 47.2968Z" fill="white"/>
<path d="M166.904 51.4972C166.776 51.3035 166.734 51.0967 166.779 50.8766C166.824 50.6566 166.943 50.4826 167.137 50.3546L177.059 43.7979C177.252 43.6699 177.459 43.6284 177.679 43.6733C177.909 43.7115 178.088 43.8275 178.216 44.0211C178.344 44.2147 178.381 44.4249 178.326 44.6517C178.287 44.882 178.172 45.0611 177.978 45.189L173.988 47.8259C174.672 47.9303 175.289 48.1225 175.841 48.4025C176.392 48.6826 176.869 49.1284 177.273 49.7398C177.644 50.3004 177.831 50.872 177.836 51.4548C177.847 52.0478 177.694 52.6028 177.377 53.1199C177.066 53.6472 176.636 54.0927 176.086 54.4564L171.744 57.3256C171.55 57.4536 171.34 57.49 171.113 57.4349C170.893 57.3899 170.719 57.2707 170.591 57.077C170.463 56.8834 170.422 56.6765 170.467 56.4565C170.512 56.2364 170.631 56.0624 170.825 55.9345L175.013 53.1663C176.257 52.3446 176.508 51.3732 175.767 50.2522C175.43 49.7426 174.995 49.3715 174.46 49.139C173.933 48.9166 173.327 48.7753 172.643 48.7149L168.056 51.7457C167.863 51.8737 167.653 51.9101 167.426 51.855C167.206 51.8101 167.032 51.6908 166.904 51.4972Z" fill="white"/>
<path d="M174.586 64.7951C173.947 63.4485 173.828 62.2138 174.228 61.0911C174.645 59.9741 175.549 59.0859 176.94 58.4264C177.723 58.0547 178.514 57.8554 179.313 57.8283C180.111 57.8012 180.856 57.9889 181.547 58.3913C182.238 58.7937 182.79 59.4308 183.204 60.3028C183.591 61.1196 183.733 61.9177 183.629 62.6969C183.536 63.4709 183.243 64.1642 182.75 64.7769C182.267 65.3843 181.65 65.8659 180.9 66.2219C180.69 66.3213 180.48 66.3333 180.268 66.2579C180.062 66.1934 179.904 66.0453 179.794 65.8135L177.132 60.2008C176.401 60.6555 175.936 61.2278 175.736 61.9175C175.536 62.6073 175.642 63.3882 176.056 64.2602C176.275 64.7238 176.511 65.1058 176.761 65.4061C177.017 65.7174 177.306 65.9994 177.629 66.252C177.715 66.3194 177.784 66.4082 177.836 66.5186C177.92 66.6952 177.933 66.8785 177.874 67.0686C177.815 67.2586 177.692 67.3981 177.505 67.4871C177.262 67.6022 176.99 67.5556 176.688 67.3471C176.241 67.0318 175.857 66.6932 175.537 66.3313C175.217 65.9695 174.9 65.4574 174.586 64.7951ZM180.673 64.5041C181.199 64.2145 181.583 63.8564 181.827 63.4298C182.076 63.0142 182.197 62.5851 182.19 62.1423C182.194 61.6943 182.107 61.2827 181.929 60.9074C181.751 60.5321 181.487 60.2042 181.138 59.9237C180.799 59.638 180.391 59.46 179.911 59.3899C179.432 59.3198 178.914 59.3965 178.357 59.6198L180.673 64.5041Z" fill="white"/>
<path d="M177.689 71.9903C177.614 71.7706 177.626 71.5599 177.725 71.3584C177.824 71.1569 177.983 71.0186 178.203 70.9438L185.644 68.408C185.864 68.3331 186.074 68.3452 186.276 68.4443C186.489 68.5395 186.633 68.6969 186.708 68.9166C186.783 69.1363 186.765 69.3489 186.654 69.5544C186.559 69.7675 186.402 69.9115 186.182 69.9864L185.436 70.2405C186.799 70.6795 187.652 71.402 187.994 72.408L188.024 72.4947C188.099 72.7144 188.085 72.9192 187.982 73.1092C187.883 73.3108 187.723 73.449 187.504 73.5238C187.284 73.5987 187.079 73.5846 186.889 73.4816C186.699 73.3786 186.565 73.2114 186.486 72.9802L186.456 72.8934C186.267 72.3384 185.955 71.8769 185.52 71.509C185.096 71.1371 184.594 70.8758 184.014 70.7252L178.741 72.5221C178.521 72.597 178.309 72.5791 178.103 72.4684C177.902 72.3694 177.764 72.21 177.689 71.9903Z" fill="white"/>
<path d="M180.607 82.5521C180.292 81.0955 180.457 79.8661 181.102 78.8639C181.762 77.871 182.844 77.2116 184.348 76.8857C185.196 76.7021 186.012 76.6879 186.795 76.8432C187.579 76.9984 188.261 77.3506 188.843 77.8996C189.424 78.4486 189.817 79.1947 190.021 80.1379C190.213 81.0214 190.169 81.8308 189.891 82.566C189.625 83.2986 189.182 83.9071 188.561 84.3914C187.953 84.8731 187.243 85.2019 186.432 85.3777C186.205 85.4269 185.997 85.3906 185.808 85.2691C185.622 85.1594 185.501 84.9792 185.447 84.7285L184.132 78.6575C183.317 78.934 182.734 79.3854 182.382 80.0116C182.03 80.6377 181.956 81.4224 182.161 82.3656C182.269 82.867 182.411 83.2925 182.587 83.6419C182.765 84.0033 182.983 84.3436 183.239 84.663C183.308 84.7482 183.355 84.8505 183.381 84.9699C183.422 85.1609 183.393 85.3423 183.292 85.514C183.192 85.6857 183.041 85.7935 182.838 85.8375C182.575 85.8944 182.32 85.787 182.074 85.5154C181.711 85.1067 181.414 84.6897 181.184 84.2644C180.955 83.8392 180.762 83.2684 180.607 82.5521ZM186.602 83.6535C187.179 83.4909 187.635 83.2297 187.969 82.8697C188.306 82.5217 188.522 82.1313 188.616 81.6986C188.721 81.2632 188.73 80.8425 188.642 80.4366C188.554 80.0307 188.372 79.6514 188.096 79.2988C187.831 78.9436 187.474 78.6773 187.023 78.5C186.572 78.3227 186.05 78.2795 185.457 78.3704L186.602 83.6535Z" fill="white"/>
<path d="M182.141 92.6202C182.092 91.9501 182.208 91.3537 182.488 90.8311C182.769 90.3206 183.174 89.9113 183.703 89.6032C184.232 89.3073 184.826 89.1354 185.484 89.0873L190.674 88.7082C190.906 88.6913 191.106 88.7563 191.276 88.9031C191.447 89.0621 191.541 89.2574 191.558 89.4888C191.575 89.7203 191.51 89.921 191.363 90.091C191.216 90.261 191.027 90.3544 190.796 90.3713L185.788 90.737C184.302 90.8456 183.607 91.57 183.705 92.9102C183.75 93.5193 183.948 94.0499 184.299 94.5019C184.652 94.9662 185.111 95.3919 185.679 95.7792L191.161 95.3787C191.393 95.3618 191.593 95.4268 191.763 95.5736C191.934 95.7326 192.028 95.9278 192.045 96.1593C192.062 96.3908 191.997 96.5915 191.85 96.7615C191.703 96.9314 191.514 97.0249 191.283 97.0418L183.443 97.6144C183.211 97.6313 183.004 97.5668 182.822 97.4209C182.652 97.274 182.559 97.0849 182.542 96.8534C182.525 96.6219 182.589 96.4151 182.735 96.233C182.894 96.0621 183.09 95.9683 183.321 95.9513L184.07 95.8966C183.525 95.471 183.08 95.0013 182.737 94.4875C182.393 93.9736 182.194 93.3512 182.141 92.6202Z" fill="white"/>
<path d="M182.763 102.51C182.788 102.279 182.888 102.093 183.063 101.953C183.238 101.812 183.441 101.754 183.672 101.779L191.487 102.623C191.718 102.647 191.904 102.747 192.045 102.922C192.198 103.099 192.262 103.302 192.237 103.533C192.212 103.764 192.106 103.949 191.919 104.088C191.742 104.241 191.539 104.305 191.308 104.28L190.561 104.2C191.01 104.592 191.367 105.042 191.632 105.55C191.895 106.07 191.985 106.713 191.903 107.478C191.829 108.158 191.584 108.721 191.168 109.168C190.751 109.614 190.27 109.912 189.725 110.063C190.895 110.951 191.4 112.136 191.24 113.617C191.167 114.297 190.936 114.844 190.547 115.256C190.157 115.681 189.683 115.974 189.125 116.135C188.567 116.296 187.997 116.345 187.414 116.282L182.167 115.716C181.936 115.691 181.751 115.585 181.611 115.398C181.471 115.223 181.413 115.02 181.438 114.789C181.462 114.558 181.562 114.372 181.737 114.232C181.912 114.091 182.115 114.033 182.346 114.058L187.265 114.589C188.054 114.674 188.646 114.597 189.041 114.357C189.447 114.118 189.687 113.659 189.761 112.978C189.828 112.359 189.72 111.825 189.436 111.377C189.164 110.942 188.783 110.538 188.295 110.166L182.83 109.576C182.599 109.551 182.414 109.445 182.274 109.258C182.133 109.083 182.075 108.88 182.1 108.65C182.125 108.419 182.225 108.233 182.4 108.092C182.575 107.951 182.778 107.893 183.009 107.918L187.928 108.449C188.717 108.535 189.309 108.457 189.704 108.217C190.11 107.978 190.35 107.519 190.424 106.839C190.491 106.219 190.382 105.686 190.099 105.237C189.826 104.802 189.446 104.399 188.958 104.027L183.493 103.437C183.262 103.412 183.077 103.306 182.937 103.119C182.796 102.944 182.738 102.741 182.763 102.51Z" fill="white"/>
<path d="M177.36 128.606C177.659 127.779 178.119 127.081 178.741 126.514C179.362 125.946 180.094 125.574 180.937 125.399C181.776 125.235 182.66 125.321 183.591 125.658C184.521 125.995 185.256 126.495 185.796 127.158C186.331 127.832 186.656 128.586 186.77 129.42C186.884 130.254 186.791 131.084 186.492 131.911C186.271 132.52 186.002 133.013 185.683 133.392C185.371 133.786 185.027 134.128 184.648 134.42C184.416 134.596 184.173 134.638 183.92 134.547C183.748 134.484 183.612 134.357 183.513 134.165C183.421 133.989 183.406 133.815 183.468 133.642C183.514 133.516 183.594 133.402 183.709 133.301C184.041 132.992 184.297 132.715 184.478 132.468C184.665 132.237 184.832 131.921 184.977 131.519C185.335 130.531 185.328 129.652 184.958 128.881C184.598 128.114 183.954 127.563 183.023 127.226C182.093 126.889 181.239 126.898 180.461 127.253C179.694 127.612 179.132 128.286 178.774 129.274C178.629 129.676 178.549 130.023 178.533 130.317C178.525 130.626 178.55 131.005 178.609 131.455C178.632 131.606 178.62 131.745 178.575 131.871C178.512 132.044 178.384 132.166 178.189 132.238C178.001 132.326 177.821 132.339 177.649 132.276C177.396 132.185 177.236 131.997 177.17 131.714C177.066 131.247 177.015 130.761 177.016 130.255C177.025 129.764 177.139 129.215 177.36 128.606Z" fill="white"/>
<path d="M173.165 138.059C173.604 137.226 174.166 136.591 174.853 136.152C175.54 135.712 176.299 135.491 177.129 135.486C177.965 135.499 178.805 135.727 179.648 136.171C180.491 136.615 181.148 137.175 181.62 137.852C182.098 138.545 182.349 139.299 182.376 140.113C182.402 140.928 182.197 141.752 181.758 142.584C181.326 143.405 180.766 144.036 180.079 144.475C179.392 144.914 178.628 145.133 177.787 145.131C176.956 145.136 176.119 144.916 175.276 144.472C174.433 144.028 173.773 143.459 173.296 142.766C172.829 142.079 172.583 141.328 172.556 140.513C172.53 139.698 172.733 138.88 173.165 138.059ZM174.511 138.767C174.278 139.21 174.158 139.686 174.153 140.194C174.142 140.713 174.29 141.219 174.596 141.712C174.897 142.215 175.388 142.646 176.069 143.005C176.739 143.358 177.367 143.516 177.953 143.479C178.532 143.453 179.028 143.286 179.439 142.978C179.855 142.686 180.179 142.318 180.413 141.875C180.652 141.421 180.777 140.935 180.788 140.416C180.804 139.914 180.658 139.416 180.352 138.923C180.045 138.43 179.557 138.008 178.887 137.655C178.206 137.296 177.576 137.13 176.996 137.156C176.416 137.182 175.918 137.341 175.502 137.632C175.081 137.935 174.75 138.313 174.511 138.767Z" fill="white"/>
<path d="M166.864 148.259C167.418 147.499 168.067 146.952 168.81 146.617C169.554 146.282 170.337 146.173 171.159 146.289C171.984 146.422 172.782 146.77 173.552 147.331C174.321 147.893 174.891 148.542 175.26 149.28C175.631 150.035 175.771 150.818 175.679 151.628C175.587 152.438 175.264 153.223 174.71 153.983C174.163 154.733 173.518 155.275 172.774 155.61C172.031 155.945 171.243 156.05 170.411 155.927C169.588 155.811 168.792 155.472 168.022 154.911C167.253 154.349 166.682 153.691 166.31 152.936C165.949 152.188 165.814 151.409 165.905 150.599C165.997 149.789 166.317 149.009 166.864 148.259ZM168.093 149.155C167.798 149.56 167.611 150.013 167.532 150.515C167.446 151.027 167.519 151.549 167.75 152.081C167.975 152.623 168.398 153.121 169.02 153.574C169.632 154.021 170.23 154.268 170.815 154.316C171.392 154.375 171.906 154.281 172.358 154.036C172.812 153.807 173.186 153.491 173.481 153.086C173.784 152.672 173.978 152.209 174.064 151.697C174.153 151.202 174.081 150.689 173.849 150.157C173.617 149.625 173.196 149.135 172.584 148.689C171.962 148.235 171.362 147.98 170.785 147.921C170.207 147.863 169.692 147.948 169.238 148.176C168.777 148.415 168.395 148.741 168.093 149.155Z" fill="white"/>
<path d="M161.495 155.066C161.651 154.894 161.841 154.802 162.065 154.79C162.29 154.779 162.488 154.851 162.66 155.007L171.483 162.981C171.655 163.137 171.747 163.327 171.758 163.551C171.778 163.784 171.711 163.986 171.555 164.158C171.391 164.339 171.197 164.436 170.973 164.447C170.749 164.458 170.546 164.382 170.365 164.218L161.542 156.244C161.37 156.088 161.282 155.894 161.279 155.66C161.268 155.436 161.34 155.238 161.495 155.066Z" fill="white"/>
<path d="M152.456 163.639C152.877 163.305 153.338 163.081 153.839 162.965C154.33 162.857 154.809 162.882 155.278 163.041C155.754 163.209 156.163 163.509 156.504 163.94C157.065 164.648 157.235 165.433 157.013 166.294C156.782 167.163 156.125 168.026 155.043 168.883L153.305 170.26L153.396 170.375C153.896 171.007 154.415 171.336 154.951 171.364C155.477 171.399 156.07 171.155 156.731 170.632C157.095 170.343 157.398 170.057 157.64 169.772C157.872 169.494 158.115 169.162 158.369 168.774C158.43 168.694 158.485 168.635 158.533 168.597C158.676 168.483 158.843 168.437 159.031 168.459C159.22 168.481 159.375 168.569 159.497 168.722C159.701 168.981 159.721 169.261 159.555 169.564C159.014 170.553 158.323 171.382 157.48 172.049C156.819 172.572 156.157 172.878 155.495 172.966C154.823 173.062 154.211 172.978 153.659 172.714C153.105 172.467 152.631 172.095 152.236 171.597L149.017 167.531C148.873 167.349 148.819 167.143 148.854 166.912C148.88 166.689 148.984 166.506 149.166 166.362C149.348 166.217 149.55 166.158 149.773 166.184C149.997 166.21 150.18 166.314 150.324 166.496L150.62 166.87C150.752 165.581 151.364 164.504 152.456 163.639ZM152.878 165.175C152.456 165.509 152.129 165.932 151.896 166.444C151.67 166.965 151.544 167.486 151.519 168.004L152.474 169.211L154.04 167.971C155.486 166.826 155.91 165.875 155.31 165.118C155.037 164.774 154.703 164.587 154.306 164.558C153.9 164.537 153.424 164.743 152.878 165.175Z" fill="white"/>
<path d="M139.577 167.505C140.189 167.149 140.853 166.868 141.568 166.664C142.283 166.46 142.909 166.357 143.445 166.356C143.703 166.361 143.905 166.491 144.053 166.744C144.151 166.913 144.182 167.1 144.146 167.305C144.093 167.505 143.977 167.658 143.797 167.762C143.713 167.811 143.606 167.846 143.475 167.865C142.439 167.931 141.452 168.237 140.512 168.784C138.897 169.724 138.59 171.055 139.592 172.776L140.209 173.837C140.492 172.598 141.161 171.671 142.217 171.057C142.84 170.694 143.536 170.494 144.305 170.456C145.07 170.435 145.821 170.62 146.558 171.011C147.3 171.413 147.93 172.057 148.446 172.944C148.962 173.831 149.208 174.691 149.185 175.524C149.167 176.369 148.957 177.113 148.555 177.757C148.148 178.418 147.633 178.929 147.01 179.292C145.954 179.907 144.818 180.031 143.601 179.665L143.832 180.061C143.949 180.261 143.978 180.47 143.921 180.687C143.87 180.915 143.744 181.087 143.543 181.204C143.343 181.321 143.131 181.345 142.907 181.277C142.68 181.226 142.507 181.1 142.391 180.899L138.27 173.82C137.496 172.49 137.222 171.279 137.448 170.186C137.674 169.093 138.384 168.199 139.577 167.505ZM142.681 172.547C142.185 172.835 141.808 173.196 141.551 173.628C141.294 174.061 141.095 174.558 140.956 175.12L142.855 178.382C143.412 178.538 143.942 178.611 144.445 178.601C144.948 178.591 145.448 178.442 145.944 178.153C146.736 177.692 147.244 177.071 147.468 176.29C147.688 175.526 147.533 174.691 147.005 173.783C146.476 172.875 145.822 172.322 145.044 172.125C144.26 171.945 143.473 172.086 142.681 172.547Z" fill="white"/>
<path d="M132.368 175.874C132.866 175.673 133.372 175.587 133.885 175.618C134.386 175.653 134.839 175.812 135.244 176.097C135.653 176.393 135.96 176.796 136.166 177.306C136.504 178.144 136.445 178.945 135.989 179.709C135.521 180.477 134.648 181.119 133.367 181.635L131.311 182.464L131.366 182.6C131.668 183.348 132.071 183.811 132.578 183.989C133.073 184.171 133.711 184.104 134.493 183.789C134.924 183.616 135.295 183.426 135.607 183.221C135.909 183.021 136.236 182.77 136.589 182.47C136.67 182.411 136.739 182.37 136.796 182.347C136.966 182.278 137.138 182.281 137.313 182.355C137.488 182.43 137.612 182.558 137.685 182.739C137.809 183.045 137.748 183.319 137.504 183.563C136.705 184.359 135.807 184.958 134.811 185.36C134.029 185.676 133.308 185.782 132.647 185.68C131.976 185.582 131.412 185.328 130.957 184.919C130.496 184.525 130.146 184.034 129.909 183.445L127.969 178.636C127.882 178.42 127.888 178.207 127.988 177.996C128.076 177.789 128.227 177.642 128.442 177.556C128.658 177.469 128.869 177.469 129.075 177.557C129.282 177.645 129.429 177.797 129.516 178.012L129.694 178.454C130.185 177.255 131.076 176.395 132.368 175.874ZM132.338 177.466C131.84 177.667 131.406 177.98 131.038 178.406C130.674 178.842 130.406 179.306 130.235 179.796L130.811 181.224L132.663 180.477C134.374 179.787 135.049 178.994 134.688 178.099C134.523 177.691 134.255 177.418 133.882 177.278C133.499 177.143 132.984 177.206 132.338 177.466Z" fill="white"/>
<path d="M126.633 190.052C126.879 189.98 127.116 190.007 127.343 190.131C127.57 190.256 127.719 190.442 127.791 190.688L127.811 190.758C127.883 191.005 127.856 191.242 127.732 191.469C127.607 191.696 127.421 191.845 127.175 191.917L127.069 191.947C126.823 192.019 126.586 191.992 126.359 191.868C126.132 191.743 125.983 191.557 125.911 191.311L125.891 191.241C125.819 190.994 125.846 190.758 125.97 190.53C126.095 190.303 126.281 190.154 126.527 190.082L126.633 190.052ZM123.431 179.17C123.653 179.106 123.863 179.127 124.06 179.235C124.257 179.344 124.388 179.509 124.453 179.732L126.647 187.28C126.712 187.503 126.69 187.713 126.582 187.91C126.478 188.118 126.314 188.255 126.091 188.32C125.856 188.388 125.641 188.368 125.444 188.26C125.247 188.152 125.114 187.981 125.046 187.746L122.851 180.198C122.787 179.975 122.814 179.763 122.934 179.563C123.042 179.366 123.208 179.235 123.431 179.17Z" fill="white"/>
<path d="M118.212 180.61C118.44 180.569 118.647 180.613 118.831 180.741C119.015 180.869 119.128 181.048 119.168 181.276L120.551 189.015C120.592 189.243 120.548 189.45 120.42 189.634C120.293 189.83 120.116 189.949 119.887 189.99C119.659 190.03 119.452 189.981 119.265 189.84C119.069 189.714 118.95 189.537 118.909 189.308L118.777 188.569C118.411 189.155 117.99 189.646 117.514 190.041C117.039 190.437 116.44 190.699 115.719 190.828C115.057 190.946 114.458 190.891 113.921 190.665C113.372 190.44 112.923 190.08 112.574 189.584C112.213 189.09 111.974 188.518 111.858 187.869L110.943 182.746C110.902 182.517 110.952 182.31 111.092 182.124C111.221 181.939 111.399 181.827 111.628 181.786C111.856 181.745 112.063 181.789 112.247 181.917C112.431 182.046 112.544 182.224 112.584 182.453L113.467 187.395C113.73 188.862 114.522 189.478 115.845 189.241C116.446 189.134 116.959 188.881 117.384 188.482C117.798 188.086 118.167 187.585 118.494 186.981L117.527 181.57C117.486 181.341 117.536 181.134 117.676 180.947C117.805 180.763 117.983 180.651 118.212 180.61Z" fill="white"/>
<path d="M100.586 182.791C100.817 182.807 101.007 182.9 101.154 183.07C101.301 183.239 101.367 183.44 101.35 183.671L100.798 191.513C100.782 191.745 100.689 191.934 100.519 192.081C100.349 192.241 100.148 192.312 99.916 192.296C99.6845 192.28 99.4956 192.18 99.3492 191.999C99.1897 191.828 99.1182 191.627 99.1345 191.396L99.1873 190.646C98.8117 191.11 98.3752 191.483 97.8776 191.766C97.3678 192.049 96.7291 192.163 95.9614 192.109C95.279 192.061 94.707 191.837 94.2453 191.437C93.7836 191.037 93.4677 190.568 93.2974 190.029C92.4535 191.231 91.2882 191.78 89.8015 191.675C89.1191 191.627 88.5645 191.416 88.1377 191.043C87.6986 190.67 87.3884 190.207 87.2068 189.655C87.0252 189.104 86.9551 188.535 86.9963 187.95L87.3672 182.686C87.3835 182.455 87.4826 182.266 87.6643 182.119C87.8339 181.972 88.0345 181.907 88.266 181.923C88.4975 181.939 88.6869 182.032 88.8342 182.202C88.9814 182.371 89.0469 182.572 89.0306 182.803L88.6828 187.739C88.627 188.531 88.7264 189.119 88.9809 189.505C89.2345 189.902 89.7025 190.125 90.385 190.173C91.0064 190.217 91.5359 190.089 91.9734 189.789C92.3979 189.501 92.787 189.105 93.1407 188.604L93.5271 183.12C93.5434 182.889 93.6425 182.7 93.8242 182.553C93.9938 182.406 94.1944 182.341 94.4259 182.357C94.6574 182.373 94.8468 182.466 94.9941 182.636C95.1413 182.805 95.2068 183.006 95.1905 183.237L94.8427 188.173C94.7869 188.965 94.8863 189.553 95.1408 189.939C95.3944 190.336 95.8625 190.559 96.5449 190.607C97.1663 190.651 97.6958 190.523 98.1333 190.223C98.5578 189.935 98.9469 189.539 99.3006 189.038L99.687 183.554C99.7033 183.323 99.8024 183.134 99.9842 182.987C100.154 182.84 100.354 182.775 100.586 182.791Z" fill="white"/>
<path d="M81.5014 180.383C82.0228 180.514 82.4818 180.742 82.8786 181.069C83.2636 181.392 83.5359 181.788 83.6956 182.256C83.8523 182.736 83.8638 183.243 83.7301 183.776C83.5103 184.653 82.9914 185.266 82.1734 185.615C81.3436 185.961 80.2592 185.966 78.9202 185.63L76.7696 185.091L76.734 185.233C76.5379 186.015 76.5923 186.627 76.8972 187.069C77.1902 187.507 77.7455 187.829 78.5631 188.034C79.0134 188.147 79.4252 188.213 79.7985 188.231C80.1599 188.246 80.5717 188.236 81.034 188.2C81.1347 188.2 81.2147 188.208 81.2739 188.223C81.4517 188.267 81.5894 188.371 81.687 188.534C81.7847 188.697 81.8098 188.873 81.7622 189.063C81.682 189.383 81.4715 189.57 81.1308 189.623C80.0167 189.797 78.9382 189.753 77.8955 189.492C77.0779 189.287 76.4322 188.948 75.9585 188.477C75.4729 188.003 75.1666 187.466 75.0396 186.868C74.8978 186.278 74.9041 185.675 75.0586 185.059L76.3197 180.029C76.3761 179.804 76.5066 179.635 76.7111 179.522C76.9038 179.407 77.1127 179.377 77.3378 179.434C77.5629 179.49 77.7332 179.615 77.8486 179.808C77.9641 180 77.9935 180.209 77.9371 180.434L77.8212 180.896C78.9239 180.216 80.1506 180.045 81.5014 180.383ZM80.5406 181.654C80.0192 181.523 79.4844 181.521 78.9362 181.648C78.3851 181.787 77.896 182.005 77.4692 182.301L77.0949 183.794L79.0322 184.279C80.8215 184.728 81.8334 184.484 82.0681 183.548C82.1751 183.121 82.119 182.742 81.9 182.41C81.6691 182.075 81.216 181.823 80.5406 181.654Z" fill="white"/>
<path d="M72.2597 177.821C72.4753 177.907 72.6275 178.053 72.7163 178.259C72.8052 178.465 72.8066 178.676 72.7208 178.892L68.3223 189.941C68.2365 190.157 68.0904 190.309 67.8841 190.398C67.6733 190.498 67.4601 190.505 67.2445 190.419C67.0288 190.333 66.8789 190.181 66.7946 189.964C66.6944 189.753 66.6873 189.54 66.7731 189.324L69.545 182.361L64.0022 184.494C63.7732 184.573 63.5736 184.579 63.4033 184.512C63.1423 184.408 62.9844 184.259 62.9296 184.067C62.8635 183.869 62.8711 183.669 62.9524 183.464C63.0292 183.271 63.2025 183.117 63.4723 183.001L66.7981 181.78L65.3432 176.468C65.2884 176.275 65.2927 176.099 65.3559 175.94C65.4463 175.713 65.5924 175.561 65.7941 175.484C65.9959 175.406 66.2103 175.413 66.4373 175.503C66.5508 175.548 66.653 175.622 66.7439 175.724C66.8348 175.826 66.8996 175.944 66.9384 176.077L68.2807 181.227L70.2973 180.471L71.1716 178.275C71.2574 178.06 71.4091 177.91 71.6268 177.825C71.8331 177.737 72.044 177.735 72.2597 177.821Z" fill="white"/>
<path d="M59.5561 171.864C60.8551 172.595 61.6652 173.534 61.9867 174.682C62.2914 175.835 62.0665 177.082 61.3119 178.423C60.8867 179.179 60.356 179.799 59.7198 180.282C59.0837 180.765 58.3673 181.042 57.5708 181.113C56.7742 181.183 55.9554 180.982 55.1143 180.509C54.3264 180.065 53.7498 179.496 53.3844 178.8C53.0131 178.114 52.8521 177.379 52.9013 176.594C52.9446 175.819 53.1698 175.07 53.5771 174.346C53.6909 174.144 53.8559 174.012 54.0722 173.952C54.2778 173.885 54.4924 173.915 54.716 174.041L60.1301 177.086C60.4641 176.293 60.5137 175.557 60.2788 174.878C60.0439 174.199 59.5059 173.623 58.6647 173.15C58.2176 172.899 57.805 172.723 57.427 172.622C57.0384 172.516 56.6395 172.452 56.2302 172.432C56.1211 172.427 56.0133 172.395 55.9068 172.335C55.7364 172.239 55.6203 172.096 55.5584 171.907C55.4966 171.718 55.5165 171.533 55.6183 171.352C55.7501 171.118 55.9993 170.999 56.366 170.995C56.913 170.994 57.4217 171.049 57.8922 171.16C58.3626 171.27 58.9173 171.505 59.5561 171.864ZM54.7539 175.618C54.4924 176.157 54.3853 176.672 54.4325 177.161C54.4691 177.644 54.6182 178.064 54.8797 178.421C55.1352 178.789 55.444 179.075 55.806 179.279C56.168 179.483 56.5726 179.598 57.0198 179.625C57.461 179.663 57.8975 179.572 58.3294 179.353C58.7612 179.133 59.1399 178.772 59.4653 178.268L54.7539 175.618Z" fill="white"/>
<path d="M45.892 162.212C47.0172 163.189 47.6217 164.272 47.7053 165.462C47.7718 166.652 47.3004 167.828 46.2911 168.99C45.7224 169.645 45.0778 170.145 44.3574 170.49C43.637 170.835 42.8796 170.962 42.0851 170.871C41.2907 170.78 40.5292 170.418 39.8006 169.785C39.118 169.192 38.6679 168.518 38.4502 167.763C38.2245 167.016 38.2149 166.264 38.4212 165.505C38.6195 164.755 38.991 164.066 39.5357 163.439C39.6879 163.264 39.876 163.168 40.1001 163.152C40.3149 163.128 40.5191 163.201 40.7128 163.369L45.4028 167.442C45.8897 166.732 46.0865 166.021 45.9931 165.309C45.8996 164.597 45.4886 163.925 44.76 163.292C44.3726 162.955 44.0039 162.7 43.6539 162.525C43.2947 162.343 42.9167 162.201 42.5198 162.099C42.414 162.071 42.315 162.018 42.2227 161.938C42.0752 161.81 41.9901 161.647 41.9675 161.449C41.945 161.252 42.0018 161.074 42.1379 160.918C42.3142 160.715 42.5823 160.648 42.9422 160.718C43.4781 160.828 43.9654 160.984 44.404 161.187C44.8426 161.39 45.3386 161.731 45.892 162.212ZM40.4324 164.921C40.0676 165.397 39.8591 165.88 39.8069 166.368C39.7454 166.849 39.8068 167.29 39.9911 167.693C40.1673 168.105 40.4121 168.447 40.7257 168.719C41.0393 168.992 41.4124 169.186 41.8449 169.303C42.2694 169.429 42.7153 169.428 43.1826 169.3C43.6498 169.172 44.0935 168.894 44.5137 168.466L40.4324 164.921Z" fill="white"/>
<path d="M38.5953 155.028C39.7992 156.344 39.8064 157.546 38.6167 158.634L34.4258 162.469L35.304 163.429C35.3699 163.501 35.4051 163.585 35.4096 163.68C35.3967 163.774 35.3542 163.855 35.2821 163.921C35.192 164.003 35.0783 164.033 34.941 164.009L31.4607 163.816C31.3054 163.809 31.1947 163.769 31.1288 163.697C31.0628 163.625 31.0362 163.542 31.0491 163.447C31.0537 163.344 31.092 163.259 31.1641 163.193L32.2457 162.204L30.8479 160.676C30.7077 160.523 30.6418 160.351 30.6503 160.161C30.6587 159.971 30.7395 159.806 30.8928 159.666C31.037 159.534 31.2085 159.468 31.4073 159.469C31.5972 159.477 31.7622 159.558 31.9024 159.711L33.3001 161.239L37.3829 157.503C37.7344 157.182 37.8855 156.894 37.8362 156.641C37.7697 156.388 37.6209 156.135 37.3901 155.882C37.2251 155.702 37.0332 155.547 36.8142 155.416C36.7722 155.388 36.7302 155.36 36.6882 155.332C36.6379 155.296 36.5839 155.246 36.5262 155.182C36.4108 155.056 36.3573 154.898 36.3657 154.708C36.3651 154.527 36.4324 154.374 36.5676 154.25C36.7749 154.061 37.0275 154.02 37.3253 154.128C37.8091 154.332 38.2324 154.631 38.5953 155.028Z" fill="white"/>
<path d="M34.9639 150.962C35.099 151.151 35.1482 151.356 35.1115 151.577C35.0748 151.799 34.9621 151.977 34.7734 152.112L25.1034 159.035C24.9147 159.17 24.7095 159.219 24.4879 159.182C24.2564 159.153 24.0731 159.043 23.938 158.855C23.8029 158.666 23.7587 158.457 23.8053 158.229C23.8349 157.997 23.9441 157.814 24.1328 157.679L28.0216 154.895C27.3342 154.816 26.7099 154.647 26.1487 154.388C25.5875 154.128 25.0936 153.701 24.667 153.105C24.2759 152.558 24.0673 151.994 24.0411 151.412C24.0079 150.82 24.1401 150.259 24.4377 149.731C24.7283 149.192 25.1418 148.731 25.6782 148.347L29.9097 145.318C30.0984 145.183 30.3072 145.139 30.5358 145.185C30.7574 145.222 30.9357 145.335 31.0708 145.523C31.2059 145.712 31.2551 145.917 31.2185 146.139C31.1818 146.36 31.069 146.539 30.8803 146.674L26.7978 149.596C25.5859 150.464 25.3711 151.444 26.1532 152.537C26.5088 153.033 26.9579 153.388 27.5006 153.6C28.0361 153.803 28.6469 153.921 29.3328 153.956L33.8028 150.756C33.9915 150.621 34.2002 150.577 34.4289 150.624C34.6505 150.66 34.8288 150.773 34.9639 150.962Z" fill="white"/>
<path d="M26.7932 137.966C27.482 139.287 27.6474 140.517 27.2894 141.654C26.915 142.786 26.0453 143.707 24.6803 144.419C23.9111 144.819 23.1282 145.048 22.3314 145.105C21.5346 145.162 20.7834 145.003 20.0777 144.627C19.372 144.251 18.7962 143.635 18.3502 142.779C17.9324 141.977 17.7607 141.185 17.835 140.403C17.8985 139.626 18.1653 138.922 18.6356 138.291C19.095 137.666 19.693 137.161 20.4297 136.777C20.6355 136.67 20.8456 136.65 21.0598 136.718C21.2684 136.774 21.4319 136.916 21.5505 137.144L24.4212 142.653C25.1344 142.171 25.578 141.581 25.7521 140.885C25.9262 140.188 25.7902 139.411 25.3442 138.556C25.1071 138.101 24.8577 137.728 24.5961 137.437C24.3287 137.136 24.0291 136.865 23.6973 136.624C23.6088 136.56 23.5363 136.474 23.4799 136.366C23.3895 136.192 23.3701 136.01 23.4215 135.818C23.4729 135.625 23.5907 135.481 23.7749 135.385C24.0132 135.261 24.287 135.298 24.5963 135.495C25.0548 135.793 25.4509 136.117 25.7846 136.466C26.1183 136.816 26.4545 137.316 26.7932 137.966ZM20.7206 138.486C20.2067 138.795 19.8359 139.167 19.6083 139.602C19.375 140.027 19.2702 140.46 19.294 140.903C19.307 141.35 19.4095 141.759 19.6014 142.127C19.7934 142.495 20.0692 142.813 20.4288 143.08C20.7776 143.353 21.1928 143.515 21.6745 143.567C22.1562 143.619 22.671 143.523 23.2187 143.279L20.7206 138.486Z" fill="white"/>
<path d="M23.413 130.872C23.4961 131.089 23.4918 131.3 23.4004 131.505C23.3089 131.71 23.1548 131.854 22.9381 131.937L15.5975 134.75C15.3808 134.833 15.1699 134.829 14.9648 134.737C14.7482 134.65 14.5984 134.498 14.5154 134.281C14.4323 134.065 14.4423 133.852 14.5451 133.642C14.6322 133.426 14.7842 133.276 15.0009 133.193L15.7367 132.911C14.3584 132.523 13.4791 131.833 13.0989 130.841L13.0661 130.755C12.983 130.538 12.9894 130.333 13.0853 130.14C13.1767 129.934 13.3308 129.79 13.5476 129.707C13.7643 129.624 13.9695 129.631 14.1632 129.726C14.357 129.822 14.4975 129.984 14.5849 130.212L14.6177 130.298C14.8275 130.846 15.1567 131.295 15.6054 131.646C16.0426 132.002 16.554 132.244 17.1397 132.373L22.3414 130.38C22.5582 130.297 22.7713 130.307 22.9808 130.41C23.1859 130.501 23.33 130.655 23.413 130.872Z" fill="white"/>
<path d="M20.1111 120.468C20.4816 121.911 20.3635 123.146 19.7566 124.172C19.1349 125.189 18.0786 125.889 16.5877 126.272C15.7476 126.487 14.9331 126.533 14.1442 126.407C13.3553 126.282 12.6599 125.956 12.0581 125.429C11.4563 124.903 11.0354 124.172 10.7955 123.237C10.5707 122.362 10.5834 121.551 10.8335 120.806C11.0718 120.064 11.4915 119.439 12.0928 118.931C12.6822 118.427 13.3792 118.071 14.1838 117.865C14.4086 117.807 14.6176 117.836 14.811 117.95C15.0012 118.052 15.1282 118.228 15.192 118.476L16.7365 124.493C17.5405 124.186 18.1064 123.713 18.4342 123.074C18.762 122.434 18.806 121.648 18.566 120.713C18.4384 120.216 18.2802 119.796 18.0914 119.454C17.8996 119.099 17.6693 118.767 17.4007 118.458C17.3291 118.375 17.2781 118.275 17.2477 118.157C17.1991 117.967 17.2217 117.785 17.3154 117.61C17.4091 117.434 17.5565 117.321 17.7577 117.269C18.018 117.202 18.2764 117.3 18.5328 117.562C18.9116 117.957 19.2238 118.362 19.4694 118.778C19.7149 119.195 19.9288 119.758 20.1111 120.468ZM14.0791 119.594C13.5084 119.779 13.0628 120.057 12.7422 120.429C12.4185 120.79 12.2181 121.188 12.1408 121.624C12.0518 122.063 12.0588 122.484 12.1621 122.886C12.2654 123.289 12.4618 123.661 12.7513 124.003C13.0291 124.348 13.3966 124.6 13.8539 124.76C14.3111 124.92 14.8342 124.944 15.4231 124.83L14.0791 119.594Z" fill="white"/>
<path d="M18.1951 110.443C18.269 111.11 18.1756 111.711 17.915 112.243C17.653 112.764 17.2636 113.188 16.7467 113.516C16.2286 113.831 15.6416 114.025 14.986 114.098L9.8135 114.67C9.5828 114.695 9.3798 114.638 9.2045 114.497C9.02785 114.345 8.92677 114.153 8.90126 113.922C8.87574 113.692 8.93317 113.489 9.07356 113.313C9.21395 113.138 9.39949 113.038 9.63019 113.012L14.6205 112.46C16.1018 112.296 16.7686 111.547 16.6209 110.211C16.5538 109.604 16.3362 109.081 15.9681 108.643C15.5987 108.192 15.1234 107.783 14.5421 107.418L9.07823 108.022C8.84754 108.047 8.64454 107.99 8.46923 107.85C8.29259 107.697 8.19151 107.505 8.16599 107.275C8.14047 107.044 8.19791 106.841 8.3383 106.666C8.47868 106.49 8.66423 106.39 8.89492 106.365L16.7083 105.5C16.939 105.475 17.148 105.532 17.3355 105.671C17.5108 105.811 17.6112 105.997 17.6367 106.227C17.6622 106.458 17.6055 106.667 17.4664 106.854C17.3139 107.031 17.1223 107.132 16.8916 107.158L16.1448 107.24C16.7058 107.645 17.1677 108.098 17.5303 108.599C17.8929 109.099 18.1145 109.714 18.1951 110.443Z" fill="white"/>
<path d="M17.209 100.584C17.1927 100.816 17.0998 101.005 16.9302 101.152C16.7606 101.3 16.5601 101.365 16.3285 101.349L8.48697 100.797C8.25544 100.78 8.06605 100.688 7.91878 100.518C7.75934 100.348 7.68776 100.147 7.70407 99.915C7.72037 99.6835 7.8194 99.4945 8.00115 99.3481C8.17158 99.1887 8.37256 99.1171 8.60409 99.1334L9.35352 99.1862C8.89011 98.8107 8.51672 98.3741 8.23335 97.8766C7.95084 97.3668 7.83661 96.7281 7.89066 95.9604C7.93871 95.278 8.16268 94.7059 8.56257 94.2442C8.96247 93.7826 9.4317 93.4666 9.97028 93.2963C8.76833 92.4524 8.2197 91.2871 8.32437 89.8005C8.37242 89.1181 8.58292 88.5634 8.95587 88.1366C9.32968 87.6975 9.79239 87.3872 10.344 87.2056C10.8956 87.024 11.4639 86.9538 12.0488 86.995L17.3131 87.3657C17.5446 87.382 17.7336 87.481 17.88 87.6628C18.0272 87.8323 18.0927 88.0329 18.0764 88.2644C18.0601 88.4959 17.9672 88.6853 17.7976 88.8326C17.6281 88.9799 17.4275 89.0453 17.196 89.029L12.2607 88.6815C11.4686 88.6258 10.8799 88.7252 10.4946 88.9797C10.0971 89.2334 9.87437 89.7014 9.82633 90.3838C9.78257 91.0053 9.91061 91.5348 10.2105 91.9723C10.499 92.3967 10.8941 92.7858 11.3958 93.1395L16.8794 93.5256C17.1109 93.5419 17.2999 93.6409 17.4463 93.8227C17.5935 93.9923 17.659 94.1928 17.6427 94.4243C17.6264 94.6559 17.5335 94.8453 17.3639 94.9925C17.1943 95.1398 16.9938 95.2053 16.7623 95.189L11.827 94.8415C11.0349 94.7857 10.4462 94.8851 10.0609 95.1396C9.66343 95.3933 9.44066 95.8613 9.39261 96.5437C9.34885 97.1652 9.4769 97.6947 9.77674 98.1322C10.0653 98.5566 10.4604 98.9457 10.962 99.2994L16.4457 99.6855C16.6772 99.7018 16.8662 99.8009 17.0126 99.9826C17.1598 100.152 17.2253 100.353 17.209 100.584Z" fill="white"/>
<path d="M21.6345 74.2893C21.3664 75.127 20.9326 75.8411 20.3332 76.4317C19.7338 77.0222 19.0161 77.4211 18.1803 77.6281C17.3481 77.8236 16.4609 77.7705 15.5185 77.4689C14.5761 77.1673 13.8228 76.6954 13.2588 76.0532C12.6985 75.3993 12.3457 74.6579 12.2005 73.829C12.0553 73.0002 12.1168 72.1669 12.3849 71.3292C12.5822 70.7125 12.8331 70.2092 13.1374 69.8192C13.4339 69.4139 13.7657 69.0583 14.1329 68.7526C14.3586 68.5683 14.5995 68.5171 14.8555 68.599C15.03 68.6549 15.1705 68.7768 15.2771 68.9648C15.3757 69.1375 15.3972 69.3111 15.3413 69.4856C15.3003 69.6136 15.2245 69.7304 15.1137 69.836C14.7931 70.1567 14.5473 70.4436 14.3765 70.6968C14.1978 70.9346 14.0433 71.2571 13.913 71.6643C13.5928 72.6649 13.6323 73.5433 14.0316 74.2996C14.4193 75.0521 15.0843 75.5792 16.0267 75.8808C16.9691 76.1824 17.8224 76.1412 18.5866 75.7573C19.3391 75.3696 19.8755 74.6755 20.1957 73.6749C20.326 73.2677 20.3933 72.9173 20.3975 72.6236C20.3938 72.3146 20.3545 71.9364 20.2795 71.4892C20.2507 71.3389 20.2567 71.1997 20.2977 71.0717C20.3535 70.8972 20.4776 70.7702 20.6698 70.6906C20.8541 70.5957 21.0335 70.5761 21.208 70.632C21.464 70.7139 21.6303 70.8954 21.7071 71.1765C21.8286 71.6386 21.8982 72.1226 21.9158 72.6285C21.9256 73.119 21.8318 73.6726 21.6345 74.2893Z" fill="white"/>
<path d="M25.4649 64.6999C25.0582 65.548 24.5199 66.2044 23.85 66.6689C23.1802 67.1335 22.4303 67.3835 21.6004 67.4191C20.7647 67.4383 19.9173 67.2419 19.0581 66.8299C18.199 66.4179 17.5208 65.8827 17.0237 65.2243C16.5208 64.5496 16.2408 63.8057 16.1837 62.9925C16.1265 62.1793 16.3013 61.3487 16.7081 60.5005C17.1095 59.6634 17.6452 59.0125 18.315 58.548C18.9849 58.0834 19.7403 57.836 20.5812 57.8058C21.4112 57.7702 22.2557 57.9584 23.1149 58.3705C23.974 58.7825 24.6551 59.3258 25.1579 60.0005C25.6498 60.6699 25.9243 61.4112 25.9814 62.2244C26.0385 63.0376 25.8664 63.8627 25.4649 64.6999ZM24.0936 64.0422C24.3101 63.5906 24.4115 63.1109 24.3977 62.6029C24.3891 62.084 24.2224 61.5841 23.8976 61.1032C23.578 60.6112 23.0713 60.1989 22.3773 59.8661C21.6944 59.5386 21.0611 59.4042 20.4774 59.463C19.8991 59.5108 19.4104 59.6965 19.0114 60.0199C18.6066 60.3271 18.296 60.7065 18.0794 61.1581C17.8576 61.6208 17.7509 62.1115 17.7595 62.6305C17.7623 63.1331 17.9261 63.6249 18.251 64.1058C18.5758 64.5867 19.0797 64.991 19.7626 65.3185C20.4566 65.6512 21.0927 65.7937 21.6711 65.7459C22.2495 65.6982 22.7411 65.5207 23.1458 65.2135C23.5558 64.8953 23.8717 64.5049 24.0936 64.0422Z" fill="white"/>
<path d="M31.3801 54.2696C30.8546 55.0497 30.2267 55.6209 29.4964 55.9833C28.7662 56.3456 27.988 56.4841 27.1617 56.3988C26.3321 56.2965 25.5222 55.9791 24.7319 55.4467C23.9417 54.9143 23.3485 54.2863 22.9522 53.5627C22.5526 52.8221 22.3836 52.0454 22.4452 51.2325C22.5068 50.4197 22.8003 49.6232 23.3259 48.8431C23.8447 48.0732 24.4692 47.507 25.1994 47.1446C25.9296 46.7823 26.7129 46.6472 27.5494 46.7394C28.3756 46.8247 29.1839 47.1336 29.9741 47.666C30.7644 48.1984 31.3593 48.8349 31.7588 49.5755C32.1483 50.3092 32.3122 51.0825 32.2506 51.8954C32.1891 52.7082 31.8989 53.4996 31.3801 54.2696ZM30.1188 53.4198C30.3987 53.0044 30.5686 52.5445 30.6287 52.0399C30.6956 51.5253 30.6033 51.0064 30.3517 50.4834C30.107 49.9503 29.6655 49.4687 29.0272 49.0387C28.3991 48.6155 27.792 48.3906 27.206 48.364C26.6268 48.3273 26.1163 48.44 25.6746 48.7021C25.2296 48.9473 24.8671 49.2776 24.5872 49.6929C24.3006 50.1184 24.1238 50.5885 24.0569 51.1032C23.9867 51.6009 24.0774 52.1113 24.3289 52.6343C24.5805 53.1573 25.0203 53.6304 25.6485 54.0536C26.2867 54.4836 26.8954 54.717 27.4746 54.7537C28.0538 54.7904 28.566 54.6862 29.011 54.441C29.4629 54.1857 29.8321 53.8453 30.1188 53.4198Z" fill="white"/>
<path d="M36.4956 47.2623C36.3465 47.4402 36.16 47.5389 35.9363 47.5586C35.7126 47.5782 35.5118 47.5135 35.3339 47.3644L26.2213 39.7234C26.0434 39.5742 25.9447 39.3878 25.925 39.1641C25.896 38.9325 25.9561 38.7278 26.1052 38.5499C26.2622 38.3627 26.4525 38.2593 26.6763 38.2396C26.9 38.22 27.1054 38.2886 27.2927 38.4456L36.4053 46.0866C36.5832 46.2358 36.678 46.4269 36.6898 46.66C36.7095 46.8837 36.6447 47.0845 36.4956 47.2623Z" fill="white"/>
<path d="M45.2094 38.3601C44.8007 38.7093 44.3485 38.951 43.8527 39.0853C43.3662 39.2117 42.8859 39.2043 42.4118 39.0631C41.9297 38.9126 41.5102 38.6283 41.1531 38.2104C40.5659 37.5231 40.3671 36.745 40.5567 35.8761C40.7556 34.9992 41.3798 34.1125 42.4293 33.2159L44.1151 31.7757L44.0199 31.6642C43.4962 31.0512 42.966 30.7409 42.4294 30.7334C41.9021 30.718 41.318 30.984 40.6771 31.5315C40.3241 31.8331 40.0322 32.1307 39.8011 32.4245C39.5794 32.7103 39.3489 33.0518 39.1098 33.4489C39.0513 33.531 38.9989 33.5918 38.9525 33.6315C38.8131 33.7505 38.6488 33.8026 38.4593 33.7877C38.2699 33.7728 38.1116 33.6911 37.9847 33.5425C37.7704 33.2917 37.7404 33.0121 37.8946 32.7036C38.3985 31.6948 39.0591 30.8412 39.8764 30.143C40.5173 29.5954 41.1671 29.2653 41.8258 29.1524C42.4938 29.0316 43.1085 29.0929 43.6699 29.3363C44.2327 29.5624 44.7204 29.917 45.133 30.4L48.5013 34.3428C48.6521 34.5192 48.714 34.7234 48.6871 34.9552C48.6695 35.1791 48.5725 35.3665 48.396 35.5172C48.2196 35.668 48.0194 35.7346 47.7955 35.717C47.5716 35.6994 47.3843 35.6024 47.2335 35.4259L46.924 35.0636C46.8398 36.3567 46.2682 37.4555 45.2094 38.3601ZM44.7309 36.8409C45.1396 36.4917 45.451 36.057 45.6652 35.5366C45.8714 35.0069 45.9776 34.4824 45.9838 33.963L44.984 32.7927L43.4654 34.0901C42.0629 35.2882 41.675 36.2542 42.3019 36.9879C42.5876 37.3223 42.9291 37.4965 43.3266 37.5104C43.7334 37.5163 44.2015 37.2932 44.7309 36.8409Z" fill="white"/>
<path d="M57.9424 34.0128C57.3438 34.3918 56.691 34.6966 55.984 34.9274C55.277 35.1581 54.6555 35.2841 54.1196 35.3053C53.8619 35.3094 53.6547 35.1876 53.4978 34.9399C53.3933 34.7747 53.3553 34.5891 53.3839 34.3831C53.4293 34.1808 53.5398 34.0241 53.7152 33.913C53.7978 33.8607 53.9038 33.8226 54.0331 33.7985C55.0659 33.6941 56.0415 33.3511 56.9601 32.7695C58.5393 31.7698 58.7963 30.4287 57.7312 28.7463L57.0745 27.709C56.8383 28.9574 56.2041 29.9083 55.172 30.5617C54.563 30.9473 53.8748 31.1734 53.1073 31.24C52.3436 31.2897 51.5864 31.1329 50.8359 30.7695C50.0788 30.3958 49.4258 29.7755 48.8769 28.9085C48.328 28.0415 48.0498 27.191 48.0424 26.3572C48.0284 25.5129 48.2105 24.7615 48.5887 24.1028C48.9706 23.4272 49.4661 22.8966 50.075 22.5111C51.1072 21.8576 52.2379 21.6912 53.4674 22.0116L53.2223 21.6246C53.0982 21.4285 53.0607 21.2209 53.11 21.0017C53.1526 20.7723 53.272 20.5955 53.4681 20.4713C53.6643 20.3472 53.8751 20.3149 54.1008 20.3744C54.3302 20.4171 54.507 20.5365 54.6312 20.7326L59.0126 27.6531C59.836 28.9535 60.155 30.154 59.9698 31.2545C59.7845 32.3549 59.1087 33.2744 57.9424 34.0128ZM54.6526 29.0905C55.1377 28.7834 55.5007 28.409 55.7415 27.9673C55.9824 27.5256 56.1621 27.0215 56.2805 26.455L54.2613 23.2657C53.6986 23.1304 53.166 23.0771 52.6638 23.106C52.1615 23.1348 51.6678 23.3027 51.1827 23.6099C50.4086 24.1 49.9242 24.7392 49.7293 25.5277C49.5383 26.2993 49.7237 27.1289 50.2857 28.0165C50.8477 28.9041 51.5215 29.4318 52.3072 29.5994C53.0967 29.7502 53.8785 29.5806 54.6526 29.0905Z" fill="white"/>
<path d="M64.8288 25.3828C64.3382 25.6024 63.8362 25.7067 63.3226 25.6957C62.8202 25.6797 62.3616 25.537 61.9466 25.2678C61.5266 24.9873 61.2043 24.5962 60.9796 24.0945C60.6103 23.2694 60.6391 22.4668 61.0662 21.6868C61.5044 20.9017 62.3534 20.2271 63.6134 19.6631L65.637 18.7571L65.5771 18.6233C65.2477 17.8875 64.8266 17.4402 64.3139 17.2816C63.8124 17.118 63.177 17.2084 62.4076 17.5528C61.9839 17.7425 61.6198 17.9456 61.3153 18.1623C61.0219 18.3739 60.7045 18.6365 60.363 18.95C60.2837 19.0122 60.2163 19.0558 60.1605 19.0807C59.9933 19.1556 59.8209 19.1592 59.6433 19.0914C59.4658 19.0237 59.3371 18.9006 59.2572 18.7222C59.1224 18.4212 59.1725 18.1445 59.4075 17.892C60.1756 17.0664 61.0502 16.4339 62.0313 15.9947C62.8007 15.6503 63.5172 15.5169 64.181 15.5944C64.856 15.6671 65.4284 15.8993 65.8983 16.2912C66.3744 16.667 66.7422 17.1448 67.0017 17.7246L69.1206 22.4576C69.2154 22.6695 69.2173 22.8828 69.126 23.0976C69.046 23.3075 68.9 23.4598 68.6882 23.5546C68.4764 23.6495 68.2655 23.6569 68.0557 23.5768C67.8458 23.4968 67.6935 23.3508 67.5987 23.139L67.404 22.7041C66.9583 23.9209 66.0999 24.8138 64.8288 25.3828ZM64.7985 23.7903C65.2891 23.5706 65.7105 23.2414 66.0628 22.8026C66.4102 22.3527 66.66 21.8794 66.8125 21.3829L66.1836 19.978L64.3606 20.7941C62.677 21.5478 62.0324 22.3651 62.4267 23.2459C62.6064 23.6473 62.8849 23.9108 63.2623 24.0363C63.6509 24.1568 64.1629 24.0748 64.7985 23.7903Z" fill="white"/>
<path d="M70.0243 11C69.7809 11.0809 69.5433 11.0632 69.3116 10.9471C69.08 10.8309 68.9237 10.6511 68.8429 10.4077L68.8198 10.3381C68.7389 10.0947 68.7566 9.8571 68.8727 9.62544C68.9889 9.39379 69.1687 9.23754 69.4122 9.15669L69.5165 9.12204C69.76 9.04119 69.9975 9.05884 70.2292 9.17499C70.4608 9.29114 70.6171 9.47095 70.6979 9.71441L70.721 9.78397C70.8019 10.0274 70.7842 10.265 70.6681 10.4966C70.5519 10.7283 70.3721 10.8845 70.1287 10.9654L70.0243 11ZM73.6338 21.753C73.4136 21.8261 73.2031 21.8124 73.0023 21.7117C72.8015 21.6111 72.6646 21.4506 72.5914 21.2303L70.1139 13.7699C70.0408 13.5497 70.0545 13.3391 70.1552 13.1384C70.252 12.926 70.4106 12.7833 70.6308 12.7101C70.8627 12.6331 71.079 12.6449 71.2798 12.7456C71.4805 12.8463 71.6194 13.0125 71.6964 13.2444L74.1739 20.7048C74.2471 20.9251 74.2275 21.1375 74.1153 21.3421C74.0146 21.5429 73.8541 21.6798 73.6338 21.753Z" fill="white"/>
<path d="M78.8136 20.1131C78.5868 20.1625 78.3789 20.1264 78.19 20.005C78.0011 19.8835 77.8819 19.7094 77.8326 19.4826L76.1622 11.8011C76.1129 11.5743 76.149 11.3665 76.2704 11.1776C76.3892 10.9767 76.5621 10.8516 76.7889 10.8023C77.0157 10.753 77.2248 10.795 77.4164 10.9284C77.6172 11.0472 77.7423 11.22 77.7916 11.4468L77.9513 12.1809C78.2959 11.581 78.6983 11.0746 79.1586 10.662C79.619 10.2494 80.2073 9.96516 80.9235 9.80942C81.58 9.66665 82.1808 9.69853 82.7257 9.90506C83.2826 10.109 83.7448 10.4523 84.1123 10.9349C84.4918 11.415 84.7516 11.9773 84.8917 12.6219L85.9975 17.7071C86.0468 17.9339 86.0048 18.1431 85.8714 18.3346C85.75 18.5235 85.5759 18.6426 85.3491 18.6919C85.1223 18.7413 84.9144 18.7052 84.7255 18.5838C84.5366 18.4623 84.4174 18.2882 84.3681 18.0614L83.3013 13.1553C82.9846 11.699 82.1697 11.1136 80.8566 11.3991C80.2598 11.5289 79.7564 11.8009 79.3464 12.2151C78.9483 12.6267 78.5975 13.1406 78.2939 13.7566L79.462 19.1283C79.5113 19.3551 79.4693 19.5642 79.3359 19.7558C79.2145 19.9447 79.0404 20.0638 78.8136 20.1131Z" fill="white"/>
</svg>
