<svg width="300" height="300" viewBox="0 0 300 300" fill="none" xmlns="http://www.w3.org/2000/svg">
<path d="M153.835 25.3581C153.489 25.3207 153.21 25.1708 152.999 24.9084C152.788 24.6459 152.701 24.3417 152.738 23.9955L154.005 12.2723C154.042 11.9261 154.192 11.6474 154.454 11.4362C154.719 11.2067 155.024 11.1107 155.37 11.148C155.716 11.1854 155.994 11.3444 156.203 11.6251C156.433 11.8895 156.529 12.1947 156.491 12.5409L156.37 13.6613C156.959 12.9877 157.634 12.4524 158.396 12.0555C159.176 11.6605 160.14 11.525 161.287 11.649C162.308 11.7592 163.153 12.1269 163.822 12.7522C164.492 13.3775 164.939 14.0985 165.164 14.9153C166.497 13.1609 168.274 12.4037 170.497 12.6438C171.517 12.754 172.336 13.1006 172.955 13.6835C173.593 14.2684 174.032 14.9793 174.273 15.8163C174.514 16.6533 174.588 17.5091 174.493 18.3835L173.643 26.2537C173.606 26.5998 173.447 26.8776 173.166 27.0868C172.904 27.2981 172.6 27.385 172.253 27.3476C171.907 27.3102 171.629 27.1603 171.417 26.8979C171.206 26.6355 171.119 26.3312 171.157 25.9851L171.954 18.6068C172.082 17.4226 171.965 16.5346 171.605 15.9428C171.247 15.3328 170.558 14.9727 169.538 14.8625C168.609 14.7621 167.808 14.9245 167.136 15.3494C166.483 15.7582 165.878 16.3286 165.32 17.0608L164.434 25.2589C164.397 25.6051 164.238 25.8828 163.957 26.0921C163.695 26.3033 163.39 26.3902 163.044 26.3529C162.698 26.3155 162.419 26.1656 162.208 25.9031C161.997 25.6407 161.91 25.3364 161.947 24.9903L162.744 17.612C162.872 16.4279 162.756 15.5399 162.396 14.9481C162.038 14.338 161.349 13.9779 160.329 13.8677C159.4 13.7674 158.599 13.9297 157.926 14.3547C157.274 14.7634 156.669 15.3338 156.111 16.0661L155.225 24.2641C155.188 24.6103 155.029 24.888 154.748 25.0973C154.486 25.3085 154.181 25.3955 153.835 25.3581Z" fill="white"/>
<path d="M182.403 30.0586C181.629 29.8331 180.954 29.4646 180.378 28.9532C179.819 28.4469 179.433 27.8383 179.221 27.1274C179.013 26.3989 179.024 25.6388 179.255 24.8472C179.634 23.5453 180.447 22.656 181.693 22.1791C182.956 21.7074 184.582 21.7611 186.57 22.3403L189.763 23.2705L189.824 23.0594C190.163 21.8982 190.116 20.978 189.684 20.2987C189.27 19.6245 188.455 19.1106 187.242 18.757C186.573 18.5622 185.96 18.4408 185.401 18.3926C184.86 18.3495 184.242 18.3413 183.547 18.3679C183.396 18.3621 183.277 18.3463 183.189 18.3207C182.925 18.2438 182.725 18.0805 182.587 17.8306C182.45 17.5807 182.423 17.315 182.505 17.0335C182.643 16.5585 182.969 16.2909 183.483 16.2306C185.163 16.0329 186.777 16.1595 188.325 16.6105C189.539 16.9642 190.487 17.5077 191.171 18.2412C191.872 18.9798 192.3 19.8013 192.457 20.7057C192.636 21.5977 192.592 22.5011 192.326 23.4159L190.15 30.884C190.053 31.2182 189.848 31.4638 189.535 31.6208C189.239 31.7829 188.925 31.8152 188.59 31.7178C188.256 31.6205 188.008 31.4241 187.846 31.1288C187.684 30.8334 187.651 30.5187 187.749 30.1844L187.949 29.4983C186.257 30.4561 184.409 30.6428 182.403 30.0586ZM183.916 28.2088C184.69 28.4343 185.491 28.4674 186.32 28.3081C187.154 28.1312 187.899 27.833 188.556 27.4135L189.202 25.1969L186.325 24.3589C183.669 23.585 182.138 23.893 181.733 25.2828C181.549 25.9162 181.611 26.4879 181.921 26.9979C182.248 27.5131 182.913 27.9167 183.916 28.2088Z" fill="white"/>
<path d="M196.144 34.435C195.826 34.2942 195.606 34.0667 195.484 33.7525C195.363 33.4382 195.372 33.1219 195.513 32.8035L202.728 16.4893C202.869 16.1709 203.096 15.9509 203.41 15.8294C203.732 15.6911 204.052 15.6924 204.37 15.8332C204.689 15.974 204.905 16.2099 205.019 16.5409C205.157 16.8625 205.156 17.1825 205.015 17.5009L200.469 27.7822L208.897 24.8977C209.245 24.791 209.544 24.7932 209.796 24.9044C210.181 25.0749 210.409 25.3061 210.481 25.598C210.569 25.8974 210.546 26.1979 210.413 26.4996C210.287 26.7845 210.018 27.0064 209.607 27.1653L204.553 28.8072L206.435 36.8523C206.507 37.1443 206.49 37.4076 206.387 37.6422C206.238 37.9774 206.011 38.1974 205.704 38.3021C205.397 38.4069 205.076 38.3851 204.741 38.2369C204.573 38.1628 204.424 38.0468 204.294 37.8889C204.163 37.731 204.073 37.5507 204.022 37.348L202.3 29.5537L199.235 30.5724L197.801 33.8152C197.66 34.1336 197.424 34.3498 197.093 34.4639C196.779 34.5854 196.462 34.5758 196.144 34.435Z" fill="white"/>
<path d="M214.912 44.1088C213.006 42.9409 211.844 41.4876 211.427 39.7489C211.035 38.0042 211.442 36.1476 212.648 34.1789C213.327 33.0696 214.158 32.1706 215.138 31.4821C216.119 30.7935 217.208 30.4187 218.406 30.3576C219.604 30.2964 220.82 30.644 222.054 31.4003C223.211 32.1087 224.043 32.9948 224.552 34.0587C225.07 35.1068 225.27 36.2181 225.152 37.3923C225.044 38.551 224.665 39.6615 224.014 40.724C223.832 41.0208 223.577 41.2086 223.249 41.2873C222.937 41.3755 222.617 41.3191 222.289 41.118L214.344 36.25C213.799 37.4203 213.684 38.5207 213.998 39.5513C214.312 40.5819 215.086 41.4753 216.32 42.2316C216.977 42.6337 217.585 42.9206 218.146 43.0924C218.723 43.2737 219.317 43.3908 219.93 43.4437C220.093 43.4578 220.253 43.5127 220.409 43.6084C220.659 43.7616 220.825 43.9815 220.907 44.2683C220.989 44.555 220.949 44.8312 220.786 45.0968C220.576 45.4406 220.195 45.6052 219.646 45.5906C218.826 45.561 218.066 45.4502 217.367 45.2583C216.668 45.0664 215.85 44.6832 214.912 44.1088ZM222.321 38.7519C222.743 37.9576 222.932 37.1926 222.889 36.4568C222.861 35.7305 222.661 35.0923 222.289 34.542C221.927 33.9761 221.48 33.5304 220.949 33.2049C220.418 32.8794 219.818 32.6837 219.149 32.6178C218.49 32.5362 217.83 32.6479 217.17 32.9529C216.511 33.2579 215.923 33.7788 215.407 34.5157L222.321 38.7519Z" fill="white"/>
<path d="M234.941 59.4047C233.308 57.8772 232.463 56.2199 232.403 54.4328C232.37 52.6449 233.142 50.908 234.72 49.2222C235.609 48.2723 236.603 47.5588 237.702 47.0815C238.801 46.6043 239.943 46.4563 241.129 46.6374C242.315 46.8185 243.436 47.4036 244.493 48.3927C245.483 49.3192 246.12 50.3547 246.405 51.4991C246.701 52.6301 246.674 53.7589 246.322 54.8854C245.983 55.9986 245.388 57.0101 244.537 57.9199C244.299 58.1741 244.011 58.3068 243.675 58.3179C243.351 58.3416 243.049 58.222 242.768 57.959L235.965 51.5923C235.196 52.629 234.861 53.6837 234.961 54.7564C235.062 55.8291 235.641 56.86 236.697 57.8491C237.259 58.375 237.798 58.7785 238.313 59.0596C238.841 59.3532 239.4 59.5875 239.989 59.7624C240.146 59.8091 240.291 59.895 240.425 60.0202C240.639 60.2205 240.758 60.4694 240.781 60.7668C240.803 61.0643 240.708 61.3267 240.496 61.5541C240.22 61.8485 239.815 61.9332 239.279 61.8084C238.482 61.6144 237.76 61.3531 237.114 61.0245C236.468 60.6959 235.743 60.156 234.941 59.4047ZM243.275 55.6476C243.848 54.9545 244.188 54.2432 244.293 53.5137C244.412 52.7967 244.345 52.1313 244.091 51.5174C243.85 50.8902 243.502 50.3637 243.047 49.938C242.592 49.5123 242.044 49.1999 241.402 49.0008C240.773 48.7883 240.104 48.765 239.397 48.9311C238.689 49.0972 238.008 49.4892 237.355 50.1072L243.275 55.6476Z" fill="white"/>
<path d="M245.518 70.6217C243.786 68.5822 243.843 66.7797 245.687 65.2144L252.182 59.7L250.919 58.2123C250.824 58.1006 250.776 57.9731 250.775 57.83C250.8 57.689 250.868 57.5711 250.98 57.4762C251.119 57.3576 251.291 57.3197 251.496 57.3624L256.702 57.8463C256.934 57.8653 257.098 57.9307 257.193 58.0424C257.288 58.1542 257.323 58.2806 257.298 58.4216C257.286 58.5765 257.223 58.7014 257.112 58.7963L255.435 60.2194L257.446 62.5871C257.647 62.8246 257.736 63.0854 257.713 63.3695C257.69 63.6536 257.56 63.8965 257.322 64.0981C257.099 64.2878 256.838 64.377 256.54 64.3656C256.256 64.3424 256.013 64.2121 255.811 63.9746L253.801 61.6068L247.473 66.9789C246.928 67.4413 246.686 67.8635 246.746 68.2454C246.831 68.6294 247.04 69.017 247.372 69.4081C247.609 69.6875 247.888 69.9313 248.209 70.1396C248.271 70.1836 248.332 70.2276 248.393 70.2716C248.467 70.3296 248.545 70.4075 248.628 70.5053C248.794 70.7008 248.865 70.9407 248.842 71.2248C248.833 71.497 248.723 71.7221 248.514 71.9C248.193 72.1727 247.812 72.2196 247.371 72.0406C246.657 71.7093 246.04 71.2363 245.518 70.6217Z" fill="white"/>
<path d="M250.773 76.97C250.581 76.6796 250.519 76.3693 250.586 76.0393C250.653 75.7092 250.832 75.4482 251.123 75.2562L266.005 65.4212C266.295 65.2292 266.606 65.1669 266.936 65.2343C267.281 65.2916 267.55 65.4655 267.742 65.756C267.934 66.0464 267.988 66.3617 267.906 66.7019C267.848 67.0473 267.674 67.3159 267.384 67.5079L261.399 71.4631C262.425 71.6197 263.351 71.908 264.178 72.3281C265.005 72.7482 265.721 73.4168 266.327 74.3341C266.883 75.1749 267.164 76.0324 267.171 76.9065C267.188 77.796 266.958 78.6285 266.482 79.4042C266.017 80.1951 265.371 80.8634 264.545 81.4089L258.033 85.7127C257.743 85.9047 257.427 85.9593 257.087 85.8766C256.757 85.8092 256.496 85.6303 256.304 85.3398C256.112 85.0494 256.05 84.7391 256.117 84.4091C256.185 84.079 256.364 83.818 256.654 83.626L262.937 79.4738C264.802 78.2412 265.179 76.7842 264.068 75.1026C263.563 74.3382 262.909 73.7816 262.108 73.4328C261.316 73.0992 260.407 72.8872 259.381 72.7967L252.502 77.3429C252.211 77.5349 251.896 77.5895 251.556 77.5068C251.226 77.4394 250.965 77.2605 250.773 76.97Z" fill="white"/>
<path d="M262.33 96.9785C261.372 94.9585 261.194 93.1065 261.794 91.4223C262.419 89.7469 263.775 88.4146 265.861 87.4253C267.037 86.8679 268.223 86.5688 269.421 86.5282C270.618 86.4876 271.735 86.7691 272.772 87.3727C273.809 87.9763 274.637 88.932 275.257 90.24C275.838 91.4652 276.051 92.6622 275.895 93.8311C275.756 94.9921 275.317 96.0321 274.576 96.9511C273.852 97.8622 272.927 98.5847 271.802 99.1185C271.487 99.2677 271.171 99.2857 270.854 99.1725C270.544 99.0759 270.307 98.8538 270.142 98.5061L266.15 90.087C265.054 90.769 264.356 91.6274 264.055 92.6621C263.755 93.6968 263.915 94.8681 264.535 96.1761C264.865 96.8715 265.218 97.4444 265.594 97.8949C265.977 98.3619 266.411 98.7848 266.895 99.1638C267.024 99.2648 267.128 99.3981 267.206 99.5637C267.332 99.8286 267.351 100.104 267.263 100.389C267.175 100.674 266.99 100.883 266.709 101.016C266.345 101.189 265.936 101.119 265.484 100.806C264.813 100.333 264.238 99.8255 263.757 99.2828C263.277 98.74 262.801 97.9719 262.33 96.9785ZM271.462 96.5419C272.25 96.1075 272.826 95.5703 273.192 94.9304C273.566 94.3071 273.747 93.6634 273.737 92.9992C273.742 92.3272 273.612 91.7098 273.345 91.1468C273.078 90.5839 272.682 90.0921 272.158 89.6713C271.651 89.2427 271.038 88.9758 270.319 88.8707C269.6 88.7655 268.823 88.8805 267.988 89.2155L271.462 96.5419Z" fill="white"/>
<path d="M267.006 107.824C266.894 107.495 266.912 107.179 267.061 106.876C267.209 106.574 267.448 106.367 267.778 106.254L278.939 102.451C279.269 102.338 279.585 102.357 279.887 102.505C280.207 102.648 280.423 102.884 280.535 103.214C280.647 103.543 280.62 103.862 280.454 104.17C280.312 104.49 280.075 104.706 279.746 104.818L278.627 105.199C280.671 105.858 281.951 106.942 282.465 108.451L282.509 108.581C282.621 108.91 282.6 109.218 282.446 109.503C282.297 109.805 282.058 110.012 281.728 110.124C281.399 110.237 281.092 110.216 280.807 110.061C280.522 109.907 280.32 109.656 280.202 109.309L280.158 109.179C279.874 108.346 279.406 107.654 278.753 107.102C278.118 106.544 277.365 106.152 276.494 105.927L268.585 108.622C268.255 108.734 267.936 108.707 267.628 108.541C267.326 108.393 267.119 108.154 267.006 107.824Z" fill="white"/>
<path d="M271.399 123.722C270.926 121.537 271.174 119.693 272.142 118.19C273.131 116.701 274.755 115.712 277.011 115.223C278.283 114.947 279.506 114.926 280.681 115.159C281.857 115.392 282.881 115.92 283.753 116.744C284.625 117.567 285.214 118.686 285.52 120.101C285.808 121.426 285.742 122.64 285.325 123.743C284.926 124.842 284.261 125.755 283.331 126.481C282.419 127.204 281.354 127.697 280.136 127.961C279.796 128.034 279.484 127.98 279.201 127.798C278.921 127.633 278.741 127.363 278.659 126.987L276.687 117.88C275.464 118.295 274.589 118.972 274.061 119.911C273.534 120.851 273.423 122.028 273.729 123.443C273.892 124.195 274.106 124.833 274.369 125.357C274.636 125.899 274.963 126.41 275.348 126.889C275.45 127.016 275.521 127.17 275.56 127.349C275.622 127.635 275.578 127.907 275.427 128.165C275.277 128.423 275.049 128.584 274.745 128.65C274.351 128.736 273.969 128.575 273.6 128.167C273.054 127.554 272.61 126.929 272.265 126.291C271.921 125.653 271.632 124.797 271.399 123.722ZM280.391 125.374C281.257 125.13 281.941 124.739 282.443 124.199C282.948 123.677 283.271 123.091 283.412 122.442C283.571 121.789 283.584 121.158 283.452 120.549C283.32 119.94 283.047 119.371 282.632 118.842C282.236 118.31 281.699 117.91 281.023 117.644C280.347 117.378 279.564 117.313 278.675 117.45L280.391 125.374Z" fill="white"/>
<path d="M273.71 138.894C273.637 137.889 273.81 136.994 274.23 136.21C274.652 135.444 275.26 134.831 276.053 134.368C276.847 133.925 277.738 133.667 278.725 133.595L286.51 133.026C286.857 133.001 287.158 133.098 287.413 133.318C287.669 133.557 287.81 133.85 287.835 134.197C287.861 134.544 287.763 134.845 287.543 135.1C287.323 135.355 287.039 135.495 286.692 135.521L279.181 136.069C276.951 136.232 275.91 137.319 276.057 139.329C276.123 140.243 276.42 141.038 276.948 141.716C277.476 142.413 278.166 143.051 279.017 143.632L287.241 143.032C287.588 143.006 287.889 143.104 288.144 143.324C288.4 143.562 288.541 143.855 288.566 144.203C288.592 144.55 288.494 144.851 288.274 145.106C288.054 145.361 287.77 145.501 287.423 145.526L275.663 146.385C275.315 146.411 275.005 146.314 274.732 146.095C274.477 145.875 274.337 145.591 274.312 145.244C274.286 144.896 274.383 144.586 274.602 144.313C274.84 144.057 275.133 143.916 275.48 143.891L276.604 143.809C275.786 143.17 275.119 142.466 274.604 141.695C274.088 140.924 273.79 139.99 273.71 138.894Z" fill="white"/>
<path d="M274.642 153.819C274.679 153.473 274.829 153.194 275.092 152.983C275.354 152.771 275.658 152.684 276.004 152.722L287.728 153.987C288.074 154.025 288.353 154.175 288.564 154.437C288.793 154.701 288.889 155.007 288.852 155.353C288.815 155.699 288.656 155.977 288.375 156.186C288.111 156.416 287.805 156.512 287.459 156.474L286.339 156.353C287.013 156.942 287.548 157.617 287.945 158.379C288.34 159.159 288.475 160.123 288.351 161.27C288.241 162.291 287.874 163.135 287.248 163.805C286.623 164.475 285.902 164.922 285.085 165.147C286.84 166.48 287.597 168.257 287.357 170.48C287.247 171.5 286.901 172.319 286.318 172.938C285.733 173.576 285.022 174.015 284.185 174.256C283.348 174.498 282.492 174.571 281.618 174.477L273.747 173.627C273.401 173.59 273.124 173.431 272.914 173.15C272.703 172.888 272.616 172.583 272.653 172.237C272.691 171.891 272.841 171.612 273.103 171.401C273.366 171.19 273.67 171.103 274.016 171.14L281.394 171.937C282.578 172.065 283.466 171.949 284.058 171.589C284.668 171.231 285.028 170.541 285.138 169.521C285.239 168.592 285.076 167.791 284.651 167.119C284.243 166.466 283.672 165.861 282.94 165.303L274.742 164.418C274.396 164.38 274.118 164.221 273.909 163.941C273.697 163.678 273.61 163.374 273.648 163.028C273.685 162.682 273.835 162.403 274.097 162.192C274.36 161.981 274.664 161.894 275.01 161.931L282.389 162.728C283.573 162.855 284.461 162.739 285.052 162.379C285.662 162.021 286.023 161.332 286.133 160.312C286.233 159.383 286.071 158.582 285.646 157.91C285.237 157.257 284.666 156.652 283.934 156.094L275.736 155.209C275.39 155.171 275.112 155.012 274.903 154.732C274.692 154.469 274.605 154.165 274.642 153.819Z" fill="white"/>
<path d="M266.51 193.079C266.959 191.838 267.649 190.792 268.581 189.941C269.513 189.089 270.611 188.532 271.875 188.269C273.134 188.022 274.461 188.152 275.856 188.657C277.252 189.162 278.354 189.912 279.164 190.907C279.967 191.918 280.454 193.049 280.625 194.3C280.796 195.551 280.657 196.796 280.208 198.037C279.877 198.95 279.473 199.69 278.995 200.258C278.527 200.849 278.01 201.363 277.442 201.8C277.094 202.064 276.73 202.127 276.351 201.99C276.092 201.896 275.888 201.706 275.739 201.418C275.601 201.154 275.579 200.892 275.672 200.634C275.741 200.444 275.861 200.273 276.033 200.121C276.532 199.659 276.916 199.242 277.187 198.873C277.468 198.526 277.718 198.051 277.936 197.448C278.472 195.967 278.462 194.648 277.907 193.492C277.368 192.342 276.401 191.514 275.005 191.009C273.609 190.504 272.328 190.518 271.161 191.05C270.011 191.589 269.168 192.599 268.632 194.081C268.413 194.684 268.293 195.205 268.27 195.645C268.258 196.109 268.296 196.678 268.383 197.352C268.418 197.579 268.401 197.787 268.332 197.977C268.239 198.235 268.046 198.419 267.753 198.527C267.471 198.659 267.201 198.678 266.943 198.585C266.564 198.448 266.325 198.166 266.225 197.741C266.069 197.041 265.992 196.312 265.994 195.552C266.007 194.817 266.179 193.992 266.51 193.079Z" fill="white"/>
<path d="M260.19 207.321C260.848 206.072 261.692 205.119 262.722 204.46C263.752 203.802 264.891 203.469 266.137 203.463C267.39 203.481 268.649 203.823 269.914 204.489C271.179 205.155 272.165 205.996 272.873 207.01C273.589 208.05 273.967 209.181 274.006 210.403C274.046 211.625 273.737 212.861 273.08 214.109C272.431 215.341 271.591 216.287 270.561 216.945C269.531 217.604 268.384 217.932 267.122 217.93C265.876 217.936 264.621 217.607 263.356 216.941C262.092 216.275 261.101 215.422 260.386 214.382C259.686 213.351 259.317 212.224 259.277 211.002C259.237 209.78 259.542 208.553 260.19 207.321ZM262.209 208.384C261.859 209.049 261.68 209.762 261.672 210.524C261.656 211.302 261.877 212.061 262.337 212.8C262.788 213.556 263.525 214.202 264.546 214.74C265.551 215.27 266.493 215.507 267.371 215.452C268.241 215.413 268.984 215.162 269.6 214.699C270.224 214.262 270.711 213.711 271.061 213.046C271.42 212.365 271.607 211.635 271.624 210.857C271.648 210.103 271.43 209.357 270.97 208.618C270.51 207.879 269.778 207.244 268.773 206.715C267.751 206.177 266.806 205.928 265.936 205.967C265.066 206.006 264.32 206.244 263.696 206.682C263.063 207.135 262.568 207.703 262.209 208.384Z" fill="white"/>
<path d="M250.7 222.683C251.531 221.543 252.505 220.722 253.62 220.22C254.734 219.718 255.909 219.554 257.143 219.728C258.38 219.928 259.577 220.449 260.731 221.291C261.886 222.134 262.74 223.108 263.293 224.215C263.851 225.347 264.061 226.521 263.923 227.736C263.785 228.951 263.3 230.129 262.469 231.268C261.648 232.394 260.68 233.207 259.566 233.709C258.451 234.212 257.269 234.37 256.02 234.185C254.787 234.011 253.592 233.503 252.438 232.661C251.283 231.818 250.427 230.831 249.869 229.698C249.327 228.577 249.124 227.408 249.262 226.193C249.4 224.978 249.879 223.808 250.7 222.683ZM252.543 224.028C252.1 224.635 251.82 225.315 251.701 226.068C251.572 226.835 251.682 227.618 252.029 228.416C252.366 229.229 253.001 229.976 253.934 230.656C254.852 231.326 255.749 231.697 256.626 231.769C257.492 231.857 258.264 231.716 258.94 231.348C259.621 231.006 260.183 230.531 260.626 229.924C261.079 229.302 261.371 228.608 261.5 227.84C261.633 227.098 261.526 226.328 261.178 225.53C260.83 224.731 260.197 223.998 259.279 223.328C258.347 222.648 257.447 222.264 256.581 222.176C255.715 222.089 254.942 222.217 254.261 222.559C253.569 222.916 252.997 223.406 252.543 224.028Z" fill="white"/>
<path d="M242.614 232.934C242.848 232.676 243.132 232.538 243.469 232.521C243.805 232.504 244.103 232.612 244.361 232.846L257.595 244.807C257.853 245.04 257.991 245.325 258.008 245.662C258.038 246.011 257.937 246.314 257.704 246.572C257.458 246.844 257.167 246.989 256.83 247.006C256.494 247.023 256.19 246.908 255.918 246.663L242.684 234.701C242.426 234.468 242.294 234.176 242.289 233.826C242.272 233.49 242.381 233.192 242.614 232.934Z" fill="white"/>
<path d="M228.994 245.851C229.627 245.35 230.318 245.013 231.069 244.839C231.805 244.677 232.524 244.715 233.227 244.953C233.941 245.205 234.554 245.655 235.066 246.301C235.908 247.364 236.163 248.542 235.83 249.834C235.483 251.137 234.498 252.431 232.875 253.717L230.267 255.781L230.404 255.954C231.155 256.902 231.932 257.397 232.736 257.438C233.526 257.49 234.416 257.124 235.407 256.339C235.953 255.907 236.407 255.477 236.77 255.05C237.118 254.633 237.483 254.134 237.864 253.553C237.956 253.433 238.038 253.344 238.11 253.288C238.325 253.117 238.574 253.048 238.858 253.081C239.141 253.114 239.373 253.245 239.555 253.475C239.862 253.863 239.892 254.284 239.643 254.737C238.832 256.222 237.794 257.464 236.53 258.465C235.539 259.25 234.546 259.709 233.553 259.841C232.545 259.985 231.627 259.859 230.799 259.463C229.968 259.092 229.257 258.534 228.665 257.787L223.836 251.689C223.62 251.416 223.538 251.106 223.592 250.76C223.63 250.426 223.786 250.15 224.059 249.934C224.332 249.718 224.636 249.629 224.971 249.668C225.305 249.707 225.581 249.863 225.797 250.136L226.24 250.696C226.439 248.763 227.357 247.147 228.994 245.851ZM229.627 248.155C228.995 248.655 228.504 249.289 228.154 250.058C227.815 250.84 227.627 251.62 227.588 252.399L229.022 254.209L231.37 252.349C233.54 250.631 234.175 249.204 233.276 248.07C232.867 247.552 232.364 247.272 231.769 247.229C231.16 247.198 230.446 247.506 229.627 248.155Z" fill="white"/>
<path d="M209.617 251.69C210.535 251.155 211.531 250.735 212.603 250.428C213.676 250.122 214.615 249.968 215.419 249.966C215.806 249.974 216.11 250.168 216.331 250.549C216.478 250.802 216.525 251.082 216.47 251.39C216.391 251.69 216.217 251.919 215.948 252.076C215.821 252.149 215.66 252.201 215.465 252.229C213.911 252.328 212.429 252.788 211.02 253.608C208.597 255.019 208.136 257.014 209.639 259.596L210.565 261.187C210.989 259.329 211.993 257.939 213.577 257.018C214.511 256.474 215.555 256.173 216.709 256.116C217.857 256.084 218.983 256.362 220.088 256.949C221.202 257.551 222.146 258.517 222.92 259.848C223.695 261.178 224.064 262.468 224.028 263.719C224.002 264.985 223.687 266.101 223.084 267.067C222.473 268.059 221.701 268.826 220.767 269.37C219.183 270.292 217.479 270.478 215.654 269.929L215.999 270.523C216.174 270.824 216.219 271.137 216.133 271.463C216.056 271.804 215.867 272.063 215.566 272.238C215.265 272.413 214.948 272.45 214.613 272.348C214.271 272.271 214.013 272.082 213.838 271.781L207.657 261.163C206.496 259.167 206.084 257.35 206.424 255.711C206.763 254.072 207.827 252.731 209.617 251.69ZM214.273 259.252C213.529 259.685 212.963 260.226 212.578 260.875C212.192 261.523 211.895 262.269 211.685 263.111L214.534 268.005C215.37 268.239 216.165 268.349 216.919 268.334C217.674 268.319 218.423 268.094 219.168 267.661C220.355 266.97 221.117 266.039 221.453 264.868C221.783 263.722 221.551 262.468 220.759 261.106C219.966 259.744 218.985 258.915 217.817 258.62C216.642 258.35 215.461 258.561 214.273 259.252Z" fill="white"/>
<path d="M198.739 264.274C199.486 263.973 200.245 263.845 201.014 263.89C201.766 263.942 202.446 264.182 203.052 264.609C203.666 265.053 204.127 265.658 204.436 266.422C204.943 267.68 204.854 268.881 204.17 270.026C203.469 271.179 202.158 272.142 200.238 272.916L197.154 274.16L197.236 274.364C197.688 275.486 198.294 276.18 199.054 276.447C199.796 276.72 200.754 276.62 201.927 276.147C202.572 275.887 203.13 275.603 203.598 275.295C204.05 274.995 204.541 274.619 205.07 274.168C205.192 274.08 205.296 274.018 205.381 273.984C205.636 273.881 205.894 273.885 206.157 273.997C206.419 274.108 206.605 274.3 206.715 274.572C206.9 275.031 206.809 275.443 206.443 275.808C205.245 277.002 203.898 277.901 202.403 278.504C201.23 278.977 200.149 279.137 199.158 278.983C198.15 278.836 197.305 278.456 196.623 277.842C195.931 277.252 195.406 276.515 195.05 275.631L192.141 268.417C192.01 268.094 192.02 267.774 192.169 267.457C192.3 267.147 192.528 266.927 192.851 266.797C193.173 266.667 193.49 266.668 193.8 266.8C194.11 266.931 194.33 267.159 194.46 267.482L194.728 268.144C195.464 266.346 196.801 265.056 198.739 264.274ZM198.694 266.663C197.947 266.965 197.296 267.434 196.743 268.072C196.197 268.727 195.796 269.422 195.54 270.158L196.403 272.299L199.182 271.179C201.748 270.144 202.76 268.955 202.219 267.613C201.972 267.001 201.569 266.59 201.011 266.381C200.435 266.178 199.663 266.272 198.694 266.663Z" fill="white"/>
<path d="M190.088 285.558C190.458 285.45 190.813 285.49 191.154 285.677C191.494 285.864 191.718 286.143 191.826 286.512L191.857 286.618C191.964 286.987 191.924 287.342 191.737 287.683C191.55 288.024 191.271 288.248 190.902 288.355L190.744 288.401C190.374 288.509 190.019 288.469 189.678 288.282C189.338 288.094 189.114 287.816 189.006 287.447L188.975 287.341C188.868 286.972 188.908 286.616 189.095 286.276C189.282 285.935 189.561 285.711 189.93 285.604L190.088 285.558ZM185.285 269.236C185.62 269.138 185.934 269.171 186.23 269.333C186.525 269.495 186.721 269.744 186.818 270.078L190.111 281.401C190.208 281.735 190.175 282.05 190.013 282.345C189.856 282.658 189.61 282.863 189.276 282.96C188.924 283.062 188.6 283.032 188.305 282.87C188.01 282.708 187.811 282.451 187.709 282.099L184.417 270.776C184.319 270.442 184.361 270.125 184.541 269.824C184.703 269.529 184.951 269.333 185.285 269.236Z" fill="white"/>
<path d="M177.405 271.407C177.748 271.345 178.058 271.411 178.334 271.604C178.61 271.796 178.779 272.064 178.84 272.407L180.914 284.014C180.976 284.357 180.91 284.667 180.717 284.943C180.528 285.238 180.262 285.415 179.919 285.477C179.576 285.538 179.265 285.463 178.986 285.252C178.691 285.063 178.513 284.797 178.452 284.454L178.254 283.345C177.704 284.225 177.072 284.961 176.359 285.554C175.646 286.147 174.748 286.54 173.666 286.733C172.674 286.911 171.775 286.829 170.97 286.489C170.146 286.152 169.473 285.612 168.949 284.868C168.407 284.127 168.049 283.27 167.875 282.295L166.502 274.611C166.441 274.268 166.516 273.957 166.726 273.678C166.919 273.401 167.187 273.232 167.529 273.171C167.872 273.11 168.182 273.176 168.458 273.368C168.734 273.561 168.903 273.828 168.965 274.171L170.289 281.585C170.682 283.786 171.871 284.709 173.855 284.354C174.757 284.193 175.527 283.814 176.165 283.216C176.784 282.621 177.339 281.87 177.828 280.964L176.378 272.847C176.317 272.504 176.392 272.193 176.602 271.913C176.795 271.637 177.063 271.468 177.405 271.407Z" fill="white"/>
<path d="M150.844 274.685C151.191 274.71 151.475 274.849 151.696 275.103C151.917 275.358 152.015 275.659 151.99 276.006L151.162 287.768C151.137 288.116 150.998 288.4 150.743 288.62C150.488 288.86 150.186 288.967 149.839 288.943C149.492 288.918 149.208 288.769 148.989 288.497C148.749 288.241 148.642 287.94 148.667 287.592L148.746 286.468C148.182 287.163 147.528 287.723 146.781 288.148C146.017 288.572 145.059 288.743 143.907 288.662C142.883 288.59 142.025 288.254 141.333 287.654C140.64 287.054 140.166 286.351 139.911 285.543C138.645 287.345 136.897 288.168 134.667 288.011C133.644 287.939 132.812 287.623 132.171 287.064C131.513 286.503 131.047 285.809 130.775 284.982C130.503 284.154 130.397 283.302 130.459 282.424L131.016 274.528C131.04 274.181 131.189 273.897 131.461 273.678C131.716 273.457 132.017 273.359 132.364 273.383C132.711 273.407 132.995 273.547 133.216 273.801C133.437 274.056 133.535 274.356 133.511 274.704L132.989 282.107C132.905 283.295 133.054 284.178 133.436 284.756C133.817 285.352 134.519 285.686 135.542 285.758C136.474 285.824 137.269 285.632 137.925 285.182C138.562 284.75 139.145 284.157 139.676 283.404L140.256 275.179C140.28 274.832 140.429 274.548 140.701 274.329C140.956 274.108 141.256 274.01 141.604 274.034C141.951 274.059 142.235 274.198 142.456 274.452C142.677 274.707 142.775 275.008 142.751 275.355L142.229 282.758C142.145 283.946 142.294 284.829 142.676 285.407C143.056 286.003 143.759 286.337 144.782 286.409C145.714 286.475 146.509 286.283 147.165 285.833C147.801 285.401 148.385 284.808 148.916 284.055L149.495 275.83C149.52 275.483 149.668 275.199 149.941 274.98C150.195 274.759 150.496 274.661 150.844 274.685Z" fill="white"/>
<path d="M122.131 271.06C122.913 271.256 123.601 271.599 124.196 272.088C124.774 272.573 125.182 273.166 125.422 273.869C125.657 274.589 125.674 275.349 125.474 276.149C125.144 277.464 124.366 278.383 123.139 278.907C121.894 279.426 120.267 279.434 118.259 278.93L115.033 278.121L114.979 278.335C114.685 279.508 114.767 280.426 115.224 281.088C115.664 281.746 116.497 282.229 117.723 282.536C118.398 282.706 119.016 282.804 119.576 282.831C120.118 282.854 120.736 282.838 121.429 282.786C121.58 282.786 121.7 282.797 121.789 282.819C122.056 282.886 122.262 283.042 122.409 283.286C122.555 283.531 122.593 283.795 122.522 284.08C122.401 284.559 122.086 284.839 121.575 284.919C119.903 285.18 118.286 285.114 116.722 284.722C115.495 284.415 114.527 283.908 113.816 283.2C113.088 282.489 112.628 281.684 112.438 280.786C112.225 279.902 112.235 278.997 112.466 278.073L114.358 270.528C114.443 270.19 114.638 269.937 114.945 269.769C115.234 269.595 115.547 269.551 115.885 269.636C116.223 269.72 116.478 269.907 116.651 270.196C116.825 270.485 116.869 270.799 116.784 271.136L116.61 271.83C118.264 270.808 120.104 270.552 122.131 271.06ZM120.689 272.966C119.907 272.769 119.105 272.767 118.283 272.957C117.456 273.166 116.722 273.492 116.082 273.936L115.521 276.175L118.427 276.904C121.111 277.577 122.629 277.211 122.981 275.807C123.141 275.167 123.057 274.598 122.728 274.1C122.382 273.598 121.702 273.22 120.689 272.966Z" fill="white"/>
<path d="M108.205 267.196C108.528 267.325 108.756 267.544 108.89 267.853C109.023 268.163 109.025 268.479 108.896 268.803L102.299 285.376C102.17 285.699 101.951 285.928 101.641 286.061C101.325 286.211 101.005 286.222 100.682 286.093C100.358 285.964 100.133 285.737 100.007 285.41C99.8567 285.094 99.8459 284.774 99.9747 284.451L104.133 274.006L95.8183 277.205C95.4748 277.325 95.1754 277.334 94.92 277.232C94.5285 277.076 94.2916 276.854 94.2095 276.564C94.1103 276.269 94.1217 275.967 94.2437 275.661C94.3589 275.372 94.6188 275.14 95.0235 274.966L100.012 273.135L97.8298 265.166C97.7477 264.877 97.7541 264.613 97.8489 264.375C97.9845 264.035 98.2036 263.806 98.5062 263.69C98.8089 263.574 99.1304 263.584 99.4709 263.719C99.6412 263.787 99.7945 263.897 99.9308 264.05C100.067 264.203 100.164 264.38 100.223 264.58L102.236 272.305L105.261 271.172L106.572 267.877C106.701 267.554 106.929 267.329 107.255 267.203C107.565 267.069 107.881 267.067 108.205 267.196Z" fill="white"/>
<path d="M89.089 258.233C91.0375 259.328 92.2527 260.737 92.7348 262.459C93.192 264.188 92.8546 266.059 91.7227 268.071C91.0849 269.205 90.2888 270.134 89.3346 270.859C88.3803 271.584 87.3058 271.999 86.111 272.105C84.9162 272.21 83.688 271.908 82.4263 271.199C81.2444 270.534 80.3795 269.68 79.8315 268.635C79.2745 267.607 79.033 266.504 79.1068 265.327C79.1717 264.165 79.5096 263.041 80.1205 261.955C80.2912 261.651 80.5387 261.454 80.8631 261.363C81.1715 261.263 81.4935 261.308 81.8288 261.497L89.95 266.065C90.451 264.875 90.5254 263.771 90.173 262.753C89.8207 261.735 89.0137 260.871 87.752 260.161C87.0812 259.784 86.4623 259.52 85.8954 259.369C85.3124 259.209 84.714 259.114 84.1002 259.084C83.9365 259.076 83.7748 259.028 83.6151 258.938C83.3595 258.794 83.1853 258.58 83.0925 258.297C82.9997 258.013 83.0296 257.736 83.1824 257.464C83.38 257.113 83.7538 256.934 84.3038 256.928C85.1243 256.927 85.8874 257.01 86.5931 257.175C87.2988 257.341 88.1308 257.693 89.089 258.233ZM81.8857 263.862C81.4935 264.672 81.3328 265.443 81.4036 266.177C81.4585 266.902 81.6821 267.532 82.0744 268.068C82.4577 268.62 82.9209 269.049 83.4639 269.354C84.0069 269.66 84.6138 269.833 85.2845 269.874C85.9463 269.931 86.6011 269.794 87.2489 269.465C87.8967 269.136 88.4647 268.593 88.9528 267.837L81.8857 263.862Z" fill="white"/>
<path d="M68.5101 243.695C70.1979 245.161 71.1046 246.786 71.2302 248.57C71.3299 250.355 70.6227 252.12 69.1088 253.863C68.2557 254.845 67.2889 255.595 66.2083 256.113C65.1276 256.63 63.9915 256.821 62.7999 256.684C61.6082 256.547 60.4659 256.004 59.373 255.055C58.3492 254.165 57.6741 253.154 57.3475 252.021C57.009 250.902 56.9944 249.773 57.3039 248.634C57.6014 247.509 58.1587 246.476 58.9757 245.536C59.204 245.273 59.4862 245.129 59.8223 245.106C60.1445 245.07 60.4508 245.178 60.7414 245.431L67.7764 251.541C68.5067 250.476 68.8019 249.41 68.6617 248.341C68.5216 247.273 67.9051 246.264 66.8121 245.315C66.2311 244.811 65.678 244.427 65.153 244.166C64.6142 243.892 64.0471 243.678 63.4519 243.525C63.2931 243.485 63.1446 243.404 63.0062 243.284C62.7849 243.092 62.6573 242.848 62.6234 242.551C62.5896 242.255 62.6748 241.989 62.879 241.754C63.1434 241.449 63.5455 241.35 64.0855 241.455C64.8893 241.619 65.6202 241.853 66.2781 242.158C66.936 242.462 67.68 242.975 68.5101 243.695ZM60.3208 247.759C59.7735 248.473 59.4608 249.197 59.3825 249.93C59.2903 250.651 59.3824 251.313 59.6587 251.917C59.923 252.535 60.2904 253.048 60.7607 253.457C61.2311 253.865 61.7907 254.157 62.4395 254.332C63.0763 254.521 63.7451 254.52 64.446 254.327C65.1468 254.135 65.8124 253.718 66.4427 253.076L60.3208 247.759Z" fill="white"/>
<path d="M57.524 232.879C59.3299 234.853 59.3407 236.656 57.5561 238.289L51.2697 244.041L52.5871 245.481C52.686 245.589 52.7388 245.714 52.7454 245.857C52.7262 245.999 52.6625 246.12 52.5543 246.219C52.4191 246.342 52.2485 246.387 52.0426 246.351L46.8222 246.061C46.5892 246.051 46.4232 245.992 46.3242 245.884C46.2253 245.775 46.1854 245.65 46.2047 245.509C46.2116 245.353 46.2691 245.226 46.3773 245.127L47.9996 243.643L45.903 241.351C45.6927 241.122 45.5939 240.864 45.6065 240.579C45.6192 240.295 45.7404 240.047 45.9702 239.837C46.1865 239.639 46.4438 239.54 46.7421 239.54C47.0269 239.553 47.2744 239.674 47.4847 239.904L49.5813 242.196L55.7055 236.592C56.2327 236.11 56.4594 235.679 56.3854 235.3C56.2856 234.919 56.0625 234.539 55.7162 234.161C55.4688 233.891 55.1809 233.657 54.8524 233.461C54.7894 233.419 54.7264 233.378 54.6634 233.336C54.588 233.281 54.507 233.206 54.4204 233.111C54.2473 232.922 54.167 232.685 54.1796 232.4C54.1788 232.128 54.2797 231.899 54.4825 231.713C54.7935 231.429 55.1723 231.368 55.619 231.53C56.3448 231.835 56.9798 232.285 57.524 232.879Z" fill="white"/>
<path d="M52.0393 226.734C52.2419 227.017 52.3157 227.325 52.2607 227.657C52.2057 227.989 52.0366 228.257 51.7535 228.46L37.2485 238.843C36.9654 239.045 36.6577 239.119 36.3253 239.064C35.9781 239.02 35.7031 238.856 35.5005 238.573C35.2978 238.29 35.2314 237.977 35.3014 237.634C35.3458 237.287 35.5095 237.012 35.7926 236.809L41.6259 232.633C40.5948 232.515 39.6583 232.261 38.8165 231.873C37.9747 231.484 37.2339 230.842 36.5939 229.948C36.0073 229.129 35.6943 228.282 35.6551 227.409C35.6052 226.521 35.8035 225.68 36.25 224.887C36.6858 224.08 37.3061 223.388 38.1107 222.812L44.458 218.268C44.7411 218.065 45.0541 217.999 45.3972 218.069C45.7295 218.124 45.997 218.293 46.1997 218.576C46.4023 218.859 46.4761 219.167 46.4211 219.499C46.3661 219.832 46.197 220.099 45.9139 220.302L39.7901 224.686C37.9723 225.987 37.65 227.457 38.8233 229.096C39.3566 229.841 40.0302 230.373 40.8443 230.691C41.6476 230.995 42.5638 231.173 43.5927 231.225L50.2976 226.426C50.5807 226.223 50.8938 226.157 51.2368 226.227C51.5691 226.282 51.8366 226.451 52.0393 226.734Z" fill="white"/>
<path d="M39.7464 207.18C40.7795 209.162 41.0276 211.006 40.4907 212.712C39.9291 214.409 38.6245 215.792 36.577 216.859C35.4233 217.46 34.2488 217.804 33.0537 217.889C31.8585 217.975 30.7317 217.735 29.6731 217.171C28.6146 216.607 27.7508 215.683 27.0819 214.399C26.4552 213.197 26.1976 212.009 26.3091 210.835C26.4043 209.669 26.8046 208.614 27.51 207.668C28.1991 206.73 29.0961 205.973 30.2011 205.397C30.5099 205.236 30.8249 205.206 31.1462 205.308C31.4591 205.393 31.7045 205.606 31.8823 205.947L36.1884 214.21C37.2581 213.487 37.9236 212.603 38.1847 211.558C38.4459 210.513 38.2419 209.348 37.5729 208.064C37.2173 207.382 36.8432 206.823 36.4507 206.387C36.0497 205.934 35.6003 205.528 35.1025 205.168C34.9698 205.071 34.8611 204.942 34.7764 204.78C34.6409 204.52 34.6117 204.246 34.6888 203.957C34.766 203.669 34.9426 203.453 35.2189 203.309C35.5764 203.123 35.9871 203.178 36.451 203.473C37.1388 203.92 37.7329 204.406 38.2335 204.931C38.734 205.455 39.2383 206.205 39.7464 207.18ZM30.6375 207.959C29.8666 208.423 29.3105 208.981 28.969 209.635C28.6191 210.272 28.4619 210.922 28.4976 211.585C28.5171 212.257 28.6708 212.869 28.9587 213.421C29.2466 213.974 29.6603 214.45 30.1998 214.851C30.723 215.26 31.3458 215.504 32.0684 215.582C32.7909 215.66 33.563 215.516 34.3847 215.15L30.6375 207.959Z" fill="white"/>
<path d="M34.6526 196.487C34.7772 196.812 34.7709 197.128 34.6337 197.436C34.4965 197.744 34.2653 197.96 33.9402 198.085L22.9294 202.304C22.6043 202.428 22.2879 202.422 21.9802 202.285C21.6555 202.154 21.4308 201.926 21.3062 201.601C21.1816 201.276 21.1965 200.956 21.3508 200.642C21.4815 200.317 21.7093 200.093 22.0344 199.968L23.1381 199.545C21.0707 198.964 19.7518 197.929 19.1814 196.44L19.1322 196.312C19.0076 195.987 19.0172 195.679 19.161 195.388C19.2982 195.081 19.5294 194.864 19.8545 194.74C20.1796 194.615 20.4874 194.625 20.778 194.769C21.0685 194.912 21.2794 195.155 21.4105 195.498L21.4597 195.626C21.7744 196.447 22.2682 197.121 22.9411 197.649C23.597 198.182 24.3641 198.546 25.2427 198.739L33.0452 195.749C33.3703 195.624 33.69 195.639 34.0042 195.794C34.3119 195.931 34.528 196.162 34.6526 196.487Z" fill="white"/>
<path d="M29.6823 180.826C30.2382 182.991 30.0609 184.843 29.1506 186.382C28.2181 187.908 26.6336 188.958 24.3973 189.532C23.1371 189.855 21.9154 189.923 20.732 189.735C19.5487 189.547 18.5056 189.058 17.6029 188.268C16.7002 187.478 16.0688 186.382 15.7089 184.98C15.3718 183.667 15.3908 182.451 15.766 181.333C16.1234 180.22 16.753 179.283 17.6549 178.521C18.539 177.765 19.5845 177.232 20.7914 176.922C21.1286 176.835 21.4422 176.878 21.7321 177.049C22.0175 177.203 22.2081 177.466 22.3038 177.839L24.6205 186.864C25.8264 186.403 26.6753 185.693 27.167 184.735C27.6587 183.776 27.7246 182.596 27.3647 181.194C27.1734 180.448 26.9361 179.818 26.6528 179.305C26.3651 178.773 26.0197 178.275 25.6168 177.811C25.5094 177.688 25.4329 177.537 25.3873 177.359C25.3144 177.075 25.3482 176.802 25.4888 176.539C25.6294 176.276 25.8505 176.105 26.1522 176.028C26.5427 175.928 26.9303 176.074 27.315 176.467C27.8831 177.059 28.3514 177.667 28.7197 178.292C29.0881 178.916 29.409 179.761 29.6823 180.826ZM20.6344 179.516C19.7784 179.792 19.1099 180.21 18.629 180.769C18.1435 181.309 17.8428 181.907 17.727 182.561C17.5933 183.219 17.604 183.85 17.7589 184.454C17.9138 185.057 18.2084 185.615 18.6427 186.128C19.0593 186.646 19.6105 187.024 20.2965 187.264C20.9824 187.505 21.7671 187.54 22.6504 187.37L20.6344 179.516Z" fill="white"/>
<path d="M26.7957 165.719C26.9065 166.72 26.7664 167.621 26.3755 168.42C25.9825 169.201 25.3984 169.837 24.6232 170.328C23.8459 170.801 22.9655 171.092 21.982 171.201L14.2233 172.059C13.8773 172.098 13.5728 172.011 13.3098 171.801C13.0448 171.572 12.8932 171.285 12.8549 170.939C12.8167 170.593 12.9028 170.288 13.1134 170.025C13.324 169.762 13.6023 169.612 13.9483 169.573L21.4338 168.745C23.6558 168.5 24.656 167.375 24.4344 165.372C24.3337 164.461 24.0073 163.677 23.4552 163.019C22.9011 162.343 22.1881 161.73 21.3162 161.181L13.1204 162.088C12.7744 162.126 12.4699 162.04 12.2069 161.829C11.9419 161.601 11.7903 161.313 11.752 160.967C11.7138 160.621 11.7999 160.317 12.0105 160.054C12.2211 159.791 12.4994 159.64 12.8454 159.602L24.5654 158.305C24.9115 158.267 25.2251 158.352 25.5063 158.561C25.7692 158.771 25.9198 159.05 25.9581 159.396C25.9964 159.742 25.9112 160.055 25.7027 160.337C25.4739 160.602 25.1865 160.753 24.8404 160.791L23.7203 160.915C24.5618 161.523 25.2545 162.202 25.7985 162.953C26.3425 163.704 26.6749 164.626 26.7957 165.719Z" fill="white"/>
<path d="M25.3147 150.841C25.2903 151.189 25.1509 151.473 24.8965 151.694C24.6422 151.914 24.3413 152.013 23.994 151.988L12.2317 151.16C11.8844 151.136 11.6003 150.996 11.3794 150.742C11.1402 150.486 11.0329 150.185 11.0573 149.837C11.0818 149.49 11.2303 149.207 11.503 148.987C11.7586 148.748 12.0601 148.641 12.4074 148.665L13.5315 148.744C12.8364 148.181 12.2763 147.526 11.8513 146.78C11.4275 146.015 11.2561 145.057 11.3372 143.905C11.4093 142.882 11.7453 142.024 12.3451 141.331C12.9449 140.639 13.6488 140.165 14.4567 139.909C12.6537 138.644 11.8308 136.896 11.9878 134.666C12.0599 133.642 12.3756 132.81 12.935 132.17C13.4957 131.511 14.1898 131.046 15.0172 130.773C15.8447 130.501 16.6971 130.396 17.5745 130.457L25.4709 131.013C25.8182 131.038 26.1016 131.186 26.3212 131.459C26.5421 131.713 26.6403 132.014 26.6159 132.361C26.5914 132.709 26.452 132.993 26.1977 133.214C25.9433 133.435 25.6425 133.533 25.2952 133.508L17.8923 132.987C16.7042 132.904 15.8212 133.053 15.2432 133.434C14.647 133.815 14.3128 134.517 14.2407 135.541C14.1751 136.473 14.3672 137.267 14.8169 137.923C15.2497 138.56 15.8423 139.144 16.5949 139.674L24.8203 140.253C25.1676 140.278 25.451 140.426 25.6706 140.699C25.8915 140.953 25.9898 141.254 25.9653 141.601C25.9409 141.949 25.8014 142.233 25.5471 142.454C25.2927 142.675 24.9919 142.773 24.6446 142.748L17.2417 142.227C16.0536 142.143 15.1706 142.293 14.5926 142.674C13.9964 143.055 13.6622 143.757 13.5902 144.78C13.5245 145.713 13.7166 146.507 14.1664 147.163C14.5991 147.8 15.1918 148.383 15.9443 148.914L24.1697 149.493C24.517 149.518 24.8005 149.666 25.0201 149.939C25.241 150.193 25.3392 150.494 25.3147 150.841Z" fill="white"/>
<path d="M31.9755 111.281C31.5734 112.538 30.9228 113.609 30.0236 114.495C29.1244 115.381 28.048 115.979 26.7942 116.29C25.546 116.583 24.2151 116.503 22.8015 116.051C21.3879 115.599 20.258 114.891 19.412 113.927C18.5715 112.947 18.0424 111.834 17.8246 110.591C17.6068 109.348 17.699 108.098 18.1011 106.841C18.3971 105.916 18.7734 105.161 19.23 104.576C19.6747 103.968 20.1724 103.435 20.7232 102.976C21.0618 102.7 21.423 102.623 21.807 102.746C22.0688 102.83 22.2796 103.013 22.4394 103.295C22.5874 103.554 22.6195 103.814 22.5358 104.076C22.4743 104.268 22.3605 104.443 22.1944 104.602C21.7134 105.083 21.3448 105.513 21.0886 105.893C20.8205 106.249 20.5887 106.733 20.3933 107.344C19.913 108.845 19.9723 110.163 20.5712 111.297C21.1527 112.426 22.1502 113.216 23.5639 113.669C24.9775 114.121 26.2574 114.059 27.4037 113.484C28.5325 112.902 29.3371 111.861 29.8174 110.36C30.0129 109.749 30.1138 109.223 30.12 108.783C30.1145 108.319 30.0555 107.752 29.9431 107.081C29.8998 106.856 29.9089 106.647 29.9703 106.455C30.0541 106.193 30.2402 106.003 30.5285 105.884C30.8049 105.741 31.074 105.712 31.3358 105.796C31.7198 105.918 31.9693 106.191 32.0845 106.612C32.2667 107.306 32.371 108.032 32.3976 108.79C32.4122 109.526 32.2715 110.357 31.9755 111.281Z" fill="white"/>
<path d="M37.7466 96.8336C37.1365 98.1058 36.329 99.0903 35.3242 99.7872C34.3194 100.484 33.1946 100.859 31.9497 100.912C30.6962 100.941 29.4251 100.647 28.1364 100.029C26.8476 99.4107 25.8304 98.6078 25.0847 97.6203C24.3303 96.6082 23.9103 95.4923 23.8247 94.2725C23.739 93.0528 24.0012 91.8068 24.6113 90.5346C25.2134 89.2789 26.0169 88.3026 27.0217 87.6058C28.0265 86.9089 29.1596 86.5378 30.421 86.4924C31.6659 86.4391 32.9327 86.7215 34.2215 87.3395C35.5102 87.9575 36.5317 88.7725 37.2861 89.7846C38.0239 90.7887 38.4356 91.9006 38.5213 93.1204C38.607 94.3402 38.3487 95.5779 37.7466 96.8336ZM35.6895 95.8471C36.0144 95.1697 36.1664 94.4501 36.1457 93.6882C36.1328 92.9098 35.8828 92.1599 35.3955 91.4385C34.9162 90.7006 34.1561 90.0821 33.1151 89.5829C32.0908 89.0917 31.1408 88.8901 30.2653 88.9783C29.3977 89.05 28.6647 89.3285 28.0662 89.8137C27.4591 90.2745 26.9932 90.8436 26.6683 91.521C26.3355 92.215 26.1756 92.9511 26.1884 93.7295C26.1926 94.4835 26.4384 95.2211 26.9256 95.9425C27.4129 96.6639 28.1687 97.2702 29.1931 97.7615C30.234 98.2606 31.1883 98.4744 32.0558 98.4027C32.9234 98.331 33.6607 98.0648 34.2678 97.604C34.8828 97.1267 35.3567 96.5411 35.6895 95.8471Z" fill="white"/>
<path d="M46.6556 81.125C45.8672 82.2952 44.9253 83.152 43.83 83.6955C42.7347 84.2391 41.5673 84.4468 40.3279 84.3188C39.0835 84.1653 37.8686 83.6893 36.6833 82.8907C35.4979 82.0921 34.6081 81.1501 34.0137 80.0646C33.4143 78.9538 33.1608 77.7887 33.2531 76.5694C33.3455 75.3502 33.7859 74.1555 34.5742 72.9853C35.3524 71.8304 36.2891 70.9811 37.3844 70.4376C38.4798 69.8941 39.6548 69.6914 40.9094 69.8297C42.1488 69.9577 43.3612 70.4211 44.5465 71.2197C45.7319 72.0183 46.6242 72.973 47.2236 74.0839C47.8078 75.1845 48.0537 76.3444 47.9613 77.5637C47.8689 78.783 47.4337 79.9701 46.6556 81.125ZM44.7636 79.8503C45.1834 79.2273 45.4383 78.5373 45.5284 77.7805C45.6287 77.0085 45.4902 76.2303 45.1129 75.4458C44.7458 74.6461 44.0836 73.9237 43.1262 73.2787C42.184 72.6439 41.2734 72.3065 40.3943 72.2667C39.5256 72.2116 38.7599 72.3806 38.0972 72.7738C37.4297 73.1416 36.886 73.637 36.4662 74.26C36.0362 74.8983 35.771 75.6034 35.6707 76.3754C35.5654 77.122 35.7014 77.8875 36.0788 78.672C36.4561 79.4565 37.1158 80.1662 38.058 80.801C39.0154 81.446 39.9285 81.7961 40.7973 81.8511C41.6661 81.9062 42.4343 81.7499 43.1018 81.3821C43.7796 80.9992 44.3336 80.4886 44.7636 79.8503Z" fill="white"/>
<path d="M54.3602 70.5722C54.1365 70.839 53.8569 70.9871 53.5213 71.0166C53.1857 71.0461 52.8845 70.949 52.6178 70.7253L38.9487 59.2638C38.682 59.0401 38.5338 58.7604 38.5044 58.4248C38.4608 58.0775 38.5509 57.7704 38.7746 57.5036C39.0101 57.2228 39.2956 57.0676 39.6312 57.0382C39.9668 57.0087 40.275 57.1117 40.5558 57.3472L54.2248 68.8087C54.4916 69.0324 54.6339 69.319 54.6516 69.6687C54.681 70.0042 54.5839 70.3054 54.3602 70.5722Z" fill="white"/>
<path d="M67.4893 57.16C66.8763 57.6837 66.1979 58.0463 65.4543 58.2478C64.7246 58.4374 64.0041 58.4263 63.2929 58.2145C62.5698 57.9887 61.9405 57.5623 61.4049 56.9354C60.5241 55.9044 60.2259 54.7373 60.5103 53.4339C60.8086 52.1187 61.7449 50.7886 63.3192 49.4436L65.8479 47.2833L65.705 47.1162C64.9195 46.1966 64.1242 45.7312 63.3193 45.72C62.5283 45.6968 61.6522 46.0959 60.6909 46.9171C60.1614 47.3694 59.7235 47.8159 59.3769 48.2566C59.0443 48.6853 58.6986 49.1975 58.3399 49.7932C58.2522 49.9163 58.1736 50.0076 58.1039 50.0671C57.8949 50.2456 57.6484 50.3237 57.3642 50.3014C57.08 50.2791 56.8427 50.1565 56.6523 49.9335C56.3309 49.5574 56.2859 49.1379 56.5172 48.6752C57.2729 47.162 58.2638 45.8817 59.4898 44.8343C60.4511 44.013 61.4258 43.5177 62.4139 43.3484C63.4159 43.1672 64.338 43.2591 65.1801 43.6242C66.0242 43.9635 66.7558 44.4953 67.3747 45.2198L72.4272 51.134C72.6533 51.3987 72.7463 51.7049 72.7059 52.0527C72.6795 52.3885 72.534 52.6695 72.2693 52.8957C72.0046 53.1218 71.7043 53.2217 71.3685 53.1953C71.0326 53.1689 70.7516 53.0234 70.5255 52.7586L70.0613 52.2153C69.9349 54.1549 69.0775 55.8031 67.4893 57.16ZM66.7716 54.8811C67.3846 54.3574 67.8517 53.7053 68.173 52.9247C68.4823 52.1302 68.6416 51.3434 68.6509 50.5643L67.1512 48.8089L64.8733 50.7549C62.7695 52.5522 62.1878 54.0011 63.1281 55.1017C63.5566 55.6033 64.0689 55.8645 64.6651 55.8854C65.2753 55.8943 65.9774 55.5596 66.7716 54.8811Z" fill="white"/>
<path d="M86.6462 50.5967C85.7482 51.1652 84.769 51.6225 83.7086 51.9686C82.6481 52.3147 81.7159 52.5036 80.9119 52.5355C80.5254 52.5416 80.2146 52.3589 79.9793 51.9873C79.8225 51.7396 79.7655 51.4612 79.8084 51.1521C79.8765 50.8487 80.0422 50.6137 80.3054 50.4471C80.4293 50.3687 80.5882 50.3114 80.7822 50.2753C82.3313 50.1187 83.7948 49.6042 85.1727 48.7319C87.5415 47.2322 87.927 45.2206 86.3293 42.697L85.3442 41.141C84.99 43.0136 84.0387 44.44 82.4905 45.4202C81.5771 45.9985 80.5447 46.3376 79.3935 46.4375C78.2479 46.5121 77.1122 46.2769 75.9864 45.7318C74.8507 45.1713 73.8712 44.2407 73.0478 42.9402C72.2245 41.6397 71.8072 40.3641 71.7961 39.1133C71.7751 37.847 72.0483 36.7198 72.6155 35.7317C73.1885 34.7183 73.9317 33.9225 74.8451 33.3442C76.3933 32.364 78.0895 32.1143 79.9336 32.595L79.5661 32.0144C79.3798 31.7203 79.3236 31.4088 79.3975 31.0801C79.4615 30.736 79.6406 30.4708 79.9348 30.2845C80.2289 30.0983 80.5453 30.0498 80.8838 30.1392C81.2279 30.2032 81.4931 30.3823 81.6794 30.6765L88.2515 41.0571C89.4865 43.0079 89.9651 44.8086 89.6872 46.4593C89.4093 48.11 88.3956 49.4891 86.6462 50.5967ZM81.7114 43.2133C82.4391 42.7526 82.9836 42.191 83.3449 41.5285C83.7062 40.866 83.9757 40.1098 84.1533 39.26L81.1246 34.476C80.2804 34.2731 79.4816 34.1933 78.7282 34.2365C77.9748 34.2797 77.2343 34.5317 76.5067 34.9924C75.3455 35.7275 74.6188 36.6864 74.3266 37.869C74.04 39.0264 74.3182 40.2708 75.1611 41.6023C76.0041 42.9337 77.0148 43.7252 78.1934 43.9767C79.3776 44.2029 80.5503 43.9484 81.7114 43.2133Z" fill="white"/>
<path d="M97.039 37.6178C96.3031 37.9472 95.55 38.1037 94.7797 38.0872C94.0261 38.0632 93.3381 37.8492 92.7156 37.4453C92.0856 37.0246 91.6021 36.438 91.2652 35.6854C90.7111 34.4478 90.7544 33.2439 91.395 32.0738C92.0523 30.8962 93.3259 29.8843 95.2158 29.0383L98.2513 27.6793L98.1614 27.4787C97.6673 26.3748 97.0357 25.704 96.2666 25.466C95.5143 25.2206 94.5612 25.3562 93.4072 25.8728C92.7717 26.1573 92.2255 26.4621 91.7687 26.787C91.3286 27.1045 90.8524 27.4984 90.3402 27.9686C90.2214 28.0619 90.1201 28.1273 90.0365 28.1648C89.7856 28.2771 89.527 28.2824 89.2607 28.1808C88.9944 28.0792 88.8013 27.8946 88.6815 27.627C88.4794 27.1754 88.5545 26.7603 88.907 26.3817C90.0591 25.1432 91.371 24.1945 92.8427 23.5357C93.9967 23.019 95.0716 22.8189 96.0673 22.9353C97.0797 23.0442 97.9383 23.3926 98.6432 23.9805C99.3573 24.5442 99.909 25.2609 100.298 26.1305L103.477 33.2301C103.619 33.5479 103.622 33.8679 103.485 34.1901C103.365 34.5049 103.146 34.7334 102.828 34.8756C102.51 35.0179 102.194 35.029 101.879 34.9089C101.564 34.7888 101.336 34.5699 101.194 34.2521L100.902 33.5998C100.233 35.4249 98.9455 36.7643 97.039 37.6178ZM96.9934 35.229C97.7293 34.8996 98.3615 34.4058 98.89 33.7476C99.411 33.0727 99.7858 32.3628 100.015 31.618L99.0711 29.5107L96.3367 30.7348C93.8113 31.8654 92.8443 33.0913 93.4358 34.4125C93.7053 35.0146 94.1231 35.4098 94.6892 35.598C95.2721 35.7788 96.0401 35.6558 96.9934 35.229Z" fill="white"/>
<path d="M104.879 16.0255C104.514 16.1468 104.157 16.1203 103.81 15.9461C103.462 15.7719 103.228 15.5022 103.107 15.137L103.072 15.0326C102.951 14.6674 102.977 14.3111 103.152 13.9636C103.326 13.6162 103.595 13.3818 103.961 13.2605L104.117 13.2085C104.482 13.0873 104.839 13.1137 105.186 13.288C105.534 13.4622 105.768 13.7319 105.889 14.0971L105.924 14.2014C106.045 14.5666 106.019 14.923 105.845 15.2704C105.67 15.6179 105.401 15.8523 105.035 15.9736L104.879 16.0255ZM110.293 32.1549C109.963 32.2647 109.647 32.244 109.346 32.093C109.045 31.942 108.839 31.7013 108.73 31.3709L105.013 20.1804C104.904 19.85 104.924 19.5342 105.075 19.233C105.22 18.9145 105.458 18.7004 105.789 18.5906C106.136 18.4751 106.461 18.4929 106.762 18.6439C107.063 18.7949 107.272 19.0443 107.387 19.3921L111.103 30.5826C111.213 30.913 111.184 31.2317 111.015 31.5386C110.864 31.8398 110.624 32.0452 110.293 32.1549Z" fill="white"/>
<path d="M118.114 29.6811C117.774 29.7551 117.462 29.701 117.179 29.5188C116.895 29.3367 116.717 29.0755 116.643 28.7353L114.137 17.2131C114.063 16.8729 114.117 16.5611 114.299 16.2777C114.478 15.9764 114.737 15.7888 115.077 15.7148C115.417 15.6408 115.731 15.7039 116.018 15.9039C116.32 16.0822 116.507 16.3414 116.581 16.6816L116.821 17.7828C117.338 16.8828 117.941 16.1233 118.632 15.5044C119.322 14.8854 120.205 14.4591 121.279 14.2255C122.264 14.0114 123.165 14.0592 123.982 14.369C124.818 14.6749 125.511 15.1898 126.062 15.9138C126.631 16.6339 127.021 17.4774 127.231 18.4443L128.89 26.072C128.964 26.4122 128.901 26.726 128.701 27.0133C128.519 27.2966 128.258 27.4753 127.917 27.5493C127.577 27.6233 127.265 27.5692 126.982 27.3871C126.699 27.2049 126.52 26.9437 126.446 26.6035L124.846 19.2444C124.371 17.0599 123.148 16.1818 121.179 16.6101C120.283 16.8048 119.528 17.2128 118.913 17.8341C118.316 18.4515 117.79 19.2222 117.335 20.1463L119.087 28.2038C119.161 28.544 119.098 28.8578 118.898 29.145C118.716 29.4284 118.454 29.6071 118.114 29.6811Z" fill="white"/>
</svg>
