<svg width="400" height="400" viewBox="0 0 400 400" fill="none" xmlns="http://www.w3.org/2000/svg">
<path d="M205.05 34.4744C204.588 34.4242 204.217 34.224 203.935 33.8738C203.654 33.5236 203.538 33.1176 203.588 32.6559L205.288 17.0195C205.338 16.5578 205.538 16.1862 205.888 15.9046C206.241 15.5988 206.649 15.4709 207.11 15.5211C207.572 15.5713 207.942 15.7837 208.221 16.1582C208.527 16.511 208.655 16.9183 208.605 17.38L208.442 18.8744C209.228 17.9764 210.129 17.263 211.146 16.7342C212.186 16.2081 213.472 16.0282 215.003 16.1946C216.364 16.3425 217.491 16.8338 218.383 17.6684C219.276 18.5031 219.872 19.4652 220.172 20.555C221.95 18.216 224.322 17.2075 227.286 17.5298C228.647 17.6777 229.74 18.1407 230.565 18.9188C231.414 19.6995 232 20.6482 232.321 21.7649C232.642 22.8816 232.739 24.0232 232.612 25.1895L231.471 35.6867C231.421 36.1484 231.209 36.5187 230.834 36.7976C230.484 37.0792 230.078 37.1949 229.617 37.1447C229.155 37.0945 228.783 36.8943 228.502 36.5441C228.22 36.1939 228.104 35.7879 228.155 35.3262L229.224 25.4851C229.396 23.9056 229.242 22.7211 228.762 21.9313C228.285 21.1173 227.367 20.6364 226.006 20.4884C224.767 20.3537 223.698 20.5695 222.801 21.1358C221.93 21.6804 221.122 22.4408 220.377 23.417L219.188 34.3516C219.138 34.8133 218.926 35.1836 218.551 35.4625C218.201 35.7441 217.795 35.8597 217.333 35.8096C216.872 35.7594 216.5 35.5592 216.219 35.2089C215.937 34.8587 215.821 34.4528 215.871 33.9911L216.941 24.1499C217.113 22.5705 216.959 21.3859 216.479 20.5962C216.002 19.7822 215.083 19.3012 213.723 19.1533C212.483 19.0186 211.415 19.2344 210.517 19.8007C209.647 20.3453 208.839 21.1057 208.094 22.0819L206.905 33.0165C206.855 33.4782 206.643 33.8485 206.268 34.1274C205.918 34.4089 205.512 34.5246 205.05 34.4744Z" class="fill-black dark:fill-white"/>
<path d="M243.255 40.782C242.223 40.4792 241.324 39.9859 240.556 39.3023C239.812 38.6255 239.3 37.8127 239.018 36.864C238.743 35.8918 238.761 34.878 239.071 33.8227C239.58 32.0872 240.667 30.9032 242.33 30.2705C244.017 29.6447 246.185 29.7206 248.836 30.4983L253.092 31.7474L253.175 31.466C253.63 29.9182 253.57 28.6907 252.996 27.7835C252.445 26.8831 251.36 26.1955 249.742 25.7207C248.851 25.4591 248.033 25.2955 247.288 25.2297C246.566 25.1709 245.742 25.1583 244.815 25.1919C244.614 25.1838 244.455 25.1625 244.337 25.1281C243.985 25.0248 243.718 24.8064 243.536 24.4727C243.354 24.139 243.318 23.7846 243.428 23.4094C243.614 22.7762 244.05 22.4201 244.735 22.341C246.977 22.0818 249.13 22.2549 251.194 22.8606C252.812 23.3354 254.076 24.0629 254.985 25.043C255.918 26.03 256.488 27.1269 256.694 28.3336C256.93 29.5238 256.869 30.7286 256.511 31.9481L253.587 41.9033C253.456 42.3489 253.182 42.6759 252.764 42.8844C252.369 43.0998 251.949 43.1422 251.504 43.0114C251.058 42.8806 250.728 42.6181 250.512 42.2238C250.297 41.8294 250.255 41.4095 250.385 40.9639L250.654 40.0493C248.395 41.3223 245.929 41.5665 243.255 40.782ZM245.278 38.3188C246.31 38.6216 247.379 38.6678 248.485 38.4575C249.598 38.2238 250.593 37.828 251.47 37.2702L252.338 34.3153L248.504 33.1901C244.962 32.1509 242.919 32.5576 242.375 34.4103C242.127 35.2546 242.209 36.0173 242.62 36.6984C243.055 37.3863 243.941 37.9265 245.278 38.3188Z" class="fill-black dark:fill-white"/>
<path d="M261.717 46.6982C261.293 46.5089 261.001 46.2045 260.84 45.7849C260.679 45.3652 260.694 44.9434 260.883 44.5194L270.588 22.7937C270.777 22.3697 271.082 22.0774 271.501 21.9168C271.931 21.7338 272.358 21.737 272.782 21.9262C273.206 22.1155 273.493 22.4311 273.644 22.873C273.827 23.3026 273.824 23.7294 273.634 24.1534L267.519 37.8449L278.777 34.0363C279.241 33.8956 279.641 33.9 279.975 34.0494C280.489 34.2785 280.792 34.5879 280.886 34.9776C281.002 35.3773 280.97 35.778 280.791 36.1797C280.621 36.5591 280.262 36.8538 279.713 37.0639L272.963 39.2307L275.434 49.9692C275.528 50.359 275.505 50.71 275.365 51.0225C275.166 51.4688 274.861 51.7611 274.452 51.8995C274.042 52.0378 273.614 52.0073 273.167 51.8081C272.944 51.7085 272.746 51.5531 272.573 51.3419C272.399 51.1307 272.279 50.8898 272.213 50.6192L269.953 40.216L265.859 41.5607L263.93 45.8791C263.741 46.3031 263.425 46.5904 262.983 46.7411C262.563 46.9017 262.141 46.8874 261.717 46.6982Z" class="fill-black dark:fill-white"/>
<path d="M286.834 59.7501C284.298 58.1803 282.758 56.2347 282.212 53.9134C281.701 51.5841 282.256 49.1106 283.878 46.4928C284.792 45.0177 285.906 43.8241 287.219 42.9121C288.531 42.0001 289.987 41.5071 291.586 41.4332C293.184 41.3593 294.805 41.8306 296.446 42.8471C297.984 43.7992 299.089 44.9863 299.76 46.4083C300.445 47.8095 300.704 49.2927 300.54 50.858C300.388 52.4025 299.874 53.8812 298.998 55.294C298.754 55.6887 298.413 55.9375 297.975 56.0403C297.558 56.156 297.132 56.0787 296.695 55.8085L286.128 49.2657C285.393 50.8229 285.232 52.2898 285.644 53.6662C286.056 55.0426 287.083 56.239 288.725 57.2555C289.598 57.7959 290.408 58.1825 291.155 58.4152C291.923 58.6607 292.715 58.8206 293.532 58.895C293.749 58.9148 293.962 58.9891 294.17 59.1178C294.502 59.3236 294.723 59.618 294.83 60.001C294.938 60.3839 294.883 60.752 294.664 61.1052C294.38 61.5623 293.872 61.7793 293.139 61.7564C292.045 61.7117 291.032 61.5591 290.101 61.2987C289.17 61.0383 288.081 60.5221 286.834 59.7501ZM296.753 52.6532C297.321 51.5965 297.579 50.5774 297.526 49.5959C297.494 48.6272 297.231 47.7747 296.739 47.0385C296.259 46.2815 295.666 45.6842 294.959 45.2467C294.253 44.8093 293.453 44.5444 292.562 44.4522C291.683 44.3393 290.802 44.484 289.92 44.8866C289.038 45.2891 288.25 45.9801 287.557 46.9595L296.753 52.6532Z" class="fill-black dark:fill-white"/>
<path d="M313.693 80.4889C311.531 78.4353 310.419 76.2167 310.359 73.8329C310.332 71.4482 311.38 69.1399 313.502 66.9078C314.698 65.65 316.031 64.7085 317.502 64.0833C318.974 63.458 320.499 63.2722 322.079 63.5257C323.659 63.7792 325.15 64.5708 326.55 65.9006C327.861 67.1462 328.701 68.5335 329.068 70.0625C329.453 71.5737 329.405 73.0787 328.924 74.5775C328.46 76.0586 327.656 77.4014 326.511 78.606C326.191 78.9426 325.806 79.1166 325.357 79.1281C324.925 79.1564 324.523 78.9938 324.151 78.6403L315.139 70.081C314.102 71.4557 313.645 72.8588 313.768 74.2903C313.891 75.7218 314.653 77.1025 316.053 78.4322C316.797 79.1392 317.512 79.6827 318.196 80.0628C318.897 80.4597 319.641 80.7778 320.425 81.0171C320.634 81.0809 320.827 81.1969 321.004 81.3653C321.288 81.6346 321.443 81.9677 321.471 82.3645C321.498 82.7614 321.369 83.1104 321.083 83.4115C320.712 83.8013 320.17 83.9102 319.457 83.7382C318.395 83.4715 317.435 83.1157 316.576 82.671C315.717 82.2262 314.756 81.4988 313.693 80.4889ZM324.851 75.563C325.623 74.6445 326.083 73.6994 326.231 72.7276C326.397 71.7727 326.314 70.8847 325.982 70.0635C325.666 69.2246 325.207 68.519 324.605 67.9467C324.002 67.3744 323.274 66.9522 322.419 66.6801C321.582 66.3904 320.69 66.3527 319.745 66.5669C318.799 66.7812 317.887 67.2971 317.009 68.1146L324.851 75.563Z" class="fill-black dark:fill-white"/>
<path d="M327.787 95.6583C325.502 92.9177 325.598 90.5148 328.077 88.4495L336.809 81.1743L335.142 79.1751C335.017 79.0249 334.954 78.8544 334.954 78.6636C334.988 78.4758 335.081 78.3194 335.231 78.1942C335.419 78.0377 335.649 77.9892 335.921 78.0487L342.861 78.7567C343.171 78.7849 343.388 78.874 343.513 79.0242C343.639 79.1744 343.684 79.3433 343.65 79.531C343.631 79.7375 343.546 79.9034 343.396 80.0285L341.143 81.906L343.796 85.0878C344.062 85.4069 344.178 85.7558 344.144 86.1344C344.109 86.513 343.933 86.8352 343.613 87.1012C343.313 87.3515 342.964 87.4673 342.566 87.4486C342.188 87.4142 341.865 87.2375 341.599 86.9184L338.946 83.7366L330.439 90.8241C329.707 91.4343 329.378 91.9944 329.453 92.5043C329.563 93.0175 329.837 93.5368 330.275 94.0624C330.588 94.4379 330.958 94.7663 331.384 95.0479C331.465 95.1073 331.546 95.1668 331.628 95.2262C331.725 95.3044 331.828 95.4092 331.938 95.5406C332.157 95.8034 332.249 96.1241 332.215 96.5027C332.199 96.8657 332.051 97.1645 331.769 97.3992C331.337 97.759 330.828 97.817 330.243 97.573C329.294 97.1225 328.476 96.4843 327.787 95.6583Z" class="fill-black dark:fill-white"/>
<path d="M334.819 104.3C334.567 103.91 334.488 103.495 334.583 103.056C334.677 102.617 334.919 102.271 335.31 102.019L355.299 89.1122C355.69 88.8603 356.104 88.7816 356.544 88.8761C357.004 88.9573 357.36 89.193 357.612 89.583C357.864 89.9731 357.932 90.3943 357.817 90.8468C357.736 91.3066 357.5 91.6624 357.11 91.9143L349.071 97.1049C350.438 97.3282 351.67 97.7257 352.767 98.2975C353.864 98.8693 354.81 99.771 355.606 101.003C356.336 102.132 356.699 103.279 356.696 104.445C356.706 105.631 356.388 106.738 355.743 107.766C355.111 108.814 354.24 109.697 353.132 110.413L344.384 116.061C343.994 116.312 343.573 116.381 343.12 116.266C342.68 116.171 342.335 115.929 342.083 115.539C341.831 115.149 341.752 114.734 341.846 114.295C341.941 113.856 342.183 113.51 342.573 113.258L351.013 107.809C353.518 106.192 354.041 104.254 352.581 101.996C351.918 100.969 351.054 100.218 349.989 99.7416C348.938 99.2857 347.729 98.9902 346.361 98.855L337.121 104.821C336.73 105.073 336.309 105.142 335.856 105.027C335.417 104.932 335.071 104.69 334.819 104.3Z" class="fill-black dark:fill-white"/>
<path d="M350.033 131.278C348.787 128.569 348.578 126.096 349.406 123.859C350.267 121.635 352.096 119.88 354.895 118.595C356.472 117.87 358.059 117.49 359.657 117.456C361.255 117.421 362.741 117.814 364.114 118.636C365.487 119.458 366.577 120.746 367.384 122.5C368.14 124.143 368.405 125.743 368.179 127.299C367.975 128.845 367.372 130.225 366.369 131.439C365.389 132.642 364.144 133.591 362.634 134.285C362.212 134.479 361.79 134.498 361.369 134.341C360.957 134.208 360.645 133.908 360.43 133.441L355.238 122.149C353.765 123.041 352.82 124.174 352.403 125.549C351.986 126.924 352.181 128.489 352.987 130.243C353.416 131.176 353.878 131.946 354.372 132.553C354.876 133.182 355.448 133.753 356.088 134.266C356.258 134.403 356.395 134.582 356.497 134.804C356.66 135.16 356.681 135.527 356.559 135.905C356.437 136.284 356.188 136.56 355.81 136.734C355.322 136.958 354.778 136.858 354.179 136.434C353.292 135.792 352.533 135.106 351.9 134.374C351.268 133.642 350.646 132.61 350.033 131.278ZM362.222 130.843C363.279 130.276 364.057 129.569 364.555 128.722C365.063 127.897 365.316 127.041 365.312 126.155C365.33 125.259 365.166 124.433 364.819 123.678C364.472 122.923 363.952 122.261 363.259 121.691C362.589 121.112 361.776 120.746 360.818 120.594C359.86 120.442 358.822 120.583 357.703 121.016L362.222 130.843Z" class="fill-black dark:fill-white"/>
<path d="M356.149 145.932C356.005 145.491 356.035 145.07 356.239 144.669C356.442 144.269 356.765 143.997 357.206 143.853L372.161 138.98C372.603 138.836 373.024 138.866 373.424 139.07C373.848 139.266 374.132 139.585 374.276 140.026C374.42 140.468 374.379 140.892 374.152 141.301C373.956 141.724 373.637 142.008 373.196 142.152L371.697 142.64C374.412 143.555 376.099 145.024 376.758 147.045L376.815 147.22C376.959 147.661 376.925 148.07 376.714 148.448C376.511 148.848 376.188 149.12 375.746 149.264C375.305 149.408 374.895 149.374 374.518 149.163C374.141 148.952 373.876 148.614 373.725 148.149L373.668 147.975C373.304 146.86 372.692 145.928 371.831 145.18C370.993 144.425 369.996 143.889 368.838 143.572L358.241 147.025C357.799 147.168 357.374 147.127 356.966 146.9C356.565 146.696 356.293 146.374 356.149 145.932Z" class="fill-black dark:fill-white"/>
<path d="M361.772 167.382C361.183 164.459 361.55 162.004 362.87 160.018C364.22 158.052 366.404 156.765 369.423 156.158C371.125 155.816 372.757 155.812 374.32 156.146C375.883 156.48 377.238 157.204 378.385 158.32C379.532 159.436 380.296 160.94 380.677 162.833C381.034 164.606 380.923 166.224 380.345 167.687C379.791 169.144 378.886 170.349 377.631 171.299C376.4 172.244 374.97 172.881 373.341 173.209C372.886 173.3 372.471 173.222 372.097 172.973C371.727 172.748 371.492 172.384 371.391 171.88L368.939 159.696C367.3 160.225 366.119 161.11 365.397 162.353C364.674 163.595 364.504 165.162 364.885 167.055C365.087 168.062 365.359 168.917 365.7 169.621C366.046 170.35 366.471 171.037 366.975 171.684C367.11 171.856 367.201 172.062 367.249 172.302C367.327 172.685 367.262 173.047 367.057 173.388C366.851 173.728 366.544 173.939 366.137 174.021C365.61 174.127 365.104 173.905 364.619 173.354C363.904 172.526 363.323 171.683 362.876 170.825C362.429 169.967 362.061 168.82 361.772 167.382ZM373.732 169.764C374.892 169.456 375.812 168.947 376.492 168.237C377.176 167.551 377.619 166.776 377.819 165.913C378.043 165.046 378.074 164.204 377.91 163.39C377.746 162.575 377.392 161.811 376.85 161.097C376.331 160.379 375.624 159.835 374.727 159.467C373.83 159.099 372.787 158.997 371.598 159.161L373.732 169.764Z" class="fill-black dark:fill-white"/>
<path d="M364.575 187.785C364.498 186.443 364.749 185.254 365.326 184.217C365.905 183.205 366.728 182.399 367.796 181.8C368.865 181.225 370.058 180.9 371.376 180.825L381.771 180.233C382.235 180.207 382.634 180.343 382.97 180.642C383.306 180.966 383.488 181.359 383.514 181.823C383.541 182.287 383.404 182.686 383.105 183.021C382.806 183.357 382.425 183.537 381.961 183.564L371.932 184.135C368.954 184.304 367.542 185.731 367.695 188.416C367.765 189.636 368.144 190.704 368.833 191.619C369.523 192.559 370.429 193.426 371.551 194.219L382.533 193.593C382.996 193.567 383.396 193.703 383.731 194.003C384.068 194.326 384.249 194.72 384.276 195.183C384.302 195.647 384.166 196.046 383.867 196.382C383.567 196.717 383.186 196.898 382.722 196.924L367.019 197.818C366.556 197.845 366.144 197.709 365.784 197.411C365.449 197.112 365.268 196.731 365.242 196.267C365.215 195.803 365.351 195.392 365.649 195.032C365.972 194.695 366.366 194.514 366.829 194.487L368.33 194.402C367.252 193.533 366.378 192.579 365.707 191.54C365.035 190.501 364.658 189.249 364.575 187.785Z" class="fill-black dark:fill-white"/>
<path d="M365.516 207.794C365.574 207.333 365.78 206.965 366.135 206.689C366.49 206.413 366.898 206.304 367.359 206.362L382.965 208.32C383.426 208.378 383.794 208.585 384.07 208.939C384.37 209.297 384.491 209.707 384.433 210.167C384.375 210.628 384.156 210.995 383.777 211.268C383.419 211.568 383.01 211.689 382.549 211.631L381.058 211.444C381.942 212.244 382.641 213.157 383.152 214.182C383.661 215.231 383.82 216.52 383.628 218.048C383.457 219.406 382.947 220.524 382.098 221.403C381.248 222.282 380.276 222.862 379.182 223.143C381.491 224.96 382.459 227.348 382.088 230.307C381.917 231.665 381.436 232.75 380.644 233.562C379.849 234.399 378.891 234.968 377.769 235.271C376.647 235.573 375.504 235.652 374.34 235.506L363.863 234.191C363.402 234.133 363.036 233.914 362.763 233.535C362.487 233.181 362.379 232.773 362.436 232.312C362.494 231.851 362.701 231.483 363.056 231.207C363.41 230.932 363.818 230.823 364.279 230.88L374.101 232.113C375.677 232.311 376.864 232.177 377.662 231.71C378.484 231.247 378.98 230.336 379.151 228.978C379.306 227.741 379.108 226.669 378.557 225.762C378.027 224.883 377.28 224.063 376.316 223.301L365.403 221.932C364.942 221.874 364.576 221.655 364.303 221.276C364.027 220.921 363.918 220.514 363.976 220.053C364.034 219.592 364.241 219.224 364.595 218.948C364.95 218.672 365.358 218.563 365.819 218.621L375.641 219.854C377.217 220.052 378.404 219.917 379.202 219.451C380.024 218.987 380.52 218.077 380.691 216.719C380.846 215.482 380.648 214.41 380.097 213.503C379.567 212.624 378.82 211.803 377.856 211.042L366.943 209.672C366.482 209.615 366.115 209.396 365.843 209.017C365.567 208.662 365.458 208.254 365.516 207.794Z" class="fill-black dark:fill-white"/>
<path d="M353.654 260.214C354.286 258.572 355.236 257.196 356.501 256.085C357.767 254.975 359.247 254.261 360.941 253.944C362.626 253.65 364.392 253.858 366.24 254.569C368.088 255.28 369.538 256.31 370.59 257.657C371.634 259.028 372.253 260.549 372.447 262.222C372.641 263.894 372.421 265.551 371.789 267.193C371.323 268.402 370.764 269.379 370.11 270.122C369.471 270.898 368.767 271.57 367.998 272.138C367.526 272.48 367.039 272.555 366.537 272.361C366.195 272.23 365.928 271.97 365.737 271.582C365.56 271.226 365.537 270.877 365.669 270.535C365.766 270.284 365.931 270.059 366.164 269.861C366.842 269.258 367.366 268.713 367.737 268.227C368.121 267.772 368.467 267.146 368.775 266.348C369.53 264.386 369.553 262.627 368.843 261.071C368.156 259.523 366.888 258.393 365.041 257.682C363.193 256.971 361.484 256.955 359.913 257.634C358.364 258.321 357.212 259.646 356.457 261.607C356.149 262.406 355.974 263.098 355.932 263.684C355.904 264.302 355.938 265.061 356.036 265.963C356.076 266.267 356.048 266.544 355.952 266.795C355.82 267.137 355.557 267.376 355.164 267.513C354.785 267.682 354.424 267.7 354.082 267.568C353.58 267.375 353.269 266.993 353.148 266.423C352.959 265.486 352.876 264.511 352.899 263.499C352.937 262.518 353.188 261.423 353.654 260.214Z" class="fill-black dark:fill-white"/>
<path d="M344.777 279.164C345.69 277.518 346.843 276.271 348.236 275.422C349.629 274.574 351.157 274.163 352.819 274.19C354.491 274.25 356.16 274.743 357.828 275.667C359.495 276.591 360.787 277.74 361.702 279.114C362.626 280.521 363.097 282.039 363.115 283.67C363.133 285.301 362.685 286.939 361.772 288.585C360.871 290.209 359.723 291.445 358.33 292.294C356.937 293.142 355.398 293.547 353.715 293.508C352.053 293.481 350.388 293.006 348.721 292.081C347.053 291.157 345.757 289.991 344.833 288.585C343.929 287.19 343.469 285.677 343.451 284.046C343.434 282.416 343.875 280.788 344.777 279.164ZM347.438 280.639C346.952 281.515 346.693 282.461 346.66 283.477C346.616 284.515 346.889 285.533 347.481 286.532C348.061 287.552 349.025 288.435 350.371 289.182C351.697 289.916 352.946 290.26 354.119 290.211C355.28 290.184 356.278 289.871 357.114 289.272C357.958 288.706 358.624 287.985 359.11 287.109C359.608 286.212 359.88 285.244 359.924 284.207C359.978 283.203 359.709 282.201 359.117 281.202C358.525 280.204 357.567 279.337 356.241 278.602C354.894 277.856 353.641 277.496 352.479 277.523C351.318 277.55 350.315 277.846 349.47 278.412C348.614 278.999 347.936 279.741 347.438 280.639Z" class="fill-black dark:fill-white"/>
<path d="M331.607 299.475C332.751 297.981 334.074 296.916 335.576 296.28C337.079 295.644 338.65 295.461 340.29 295.731C341.935 296.035 343.515 296.766 345.029 297.924C346.544 299.082 347.653 300.407 348.358 301.9C349.067 303.427 349.311 304.998 349.09 306.614C348.869 308.229 348.186 309.784 347.042 311.279C345.913 312.754 344.598 313.809 343.095 314.445C341.593 315.081 340.012 315.257 338.352 314.972C336.712 314.702 335.134 313.988 333.62 312.83C332.105 311.672 330.994 310.33 330.285 308.803C329.595 307.291 329.361 305.727 329.582 304.111C329.803 302.496 330.478 300.95 331.607 299.475ZM334.024 301.324C333.415 302.119 333.02 303.017 332.839 304.018C332.644 305.037 332.766 306.085 333.205 307.159C333.63 308.253 334.454 309.268 335.677 310.203C336.881 311.124 338.066 311.646 339.234 311.769C340.386 311.912 341.42 311.748 342.334 311.278C343.252 310.842 344.016 310.226 344.625 309.43C345.249 308.615 345.659 307.698 345.855 306.678C346.055 305.693 345.935 304.663 345.496 303.588C345.056 302.514 344.234 301.516 343.031 300.596C341.807 299.66 340.62 299.121 339.467 298.978C338.314 298.835 337.279 298.982 336.36 299.418C335.427 299.873 334.648 300.509 334.024 301.324Z" class="fill-black dark:fill-white"/>
<path d="M320.419 313.001C320.738 312.664 321.123 312.49 321.572 312.478C322.022 312.466 322.415 312.62 322.752 312.94L340.018 329.312C340.355 329.632 340.529 330.016 340.541 330.465C340.571 330.931 340.426 331.332 340.106 331.669C339.77 332.024 339.377 332.207 338.927 332.219C338.478 332.231 338.076 332.068 337.721 331.732L320.455 315.36C320.118 315.04 319.952 314.647 319.957 314.18C319.945 313.731 320.099 313.338 320.419 313.001Z" class="fill-black dark:fill-white"/>
<path d="M301.556 330.016C302.417 329.371 303.351 328.947 304.359 328.742C305.346 328.553 306.305 328.629 307.233 328.972C308.177 329.334 308.978 329.956 309.638 330.836C310.722 332.284 311.019 333.863 310.529 335.573C310.019 337.298 308.659 338.987 306.448 340.642L302.896 343.301L303.072 343.535C304.039 344.827 305.058 345.514 306.129 345.598C307.18 345.697 308.381 345.241 309.731 344.23C310.475 343.674 311.096 343.117 311.595 342.56C312.075 342.018 312.579 341.366 313.107 340.604C313.234 340.448 313.347 340.333 313.445 340.26C313.738 340.04 314.073 339.957 314.45 340.011C314.826 340.065 315.132 340.249 315.366 340.562C315.762 341.09 315.786 341.652 315.438 342.248C314.303 344.197 312.874 345.816 311.152 347.105C309.802 348.116 308.461 348.691 307.131 348.832C305.782 348.987 304.562 348.786 303.472 348.228C302.377 347.704 301.449 346.933 300.687 345.916L294.466 337.612C294.187 337.24 294.09 336.825 294.173 336.366C294.237 335.921 294.455 335.559 294.827 335.281C295.199 335.003 295.607 334.896 296.052 334.96C296.497 335.023 296.858 335.241 297.137 335.613L297.708 336.376C298.043 333.805 299.325 331.685 301.556 330.016ZM302.317 333.11C301.456 333.754 300.778 334.582 300.283 335.594C299.803 336.624 299.524 337.658 299.445 338.694L301.291 341.159L304.491 338.764C307.446 336.553 308.344 334.674 307.186 333.129C306.659 332.424 305.999 332.033 305.207 331.954C304.395 331.89 303.432 332.275 302.317 333.11Z" class="fill-black dark:fill-white"/>
<path d="M275.402 337.16C276.647 336.483 277.991 335.96 279.433 335.593C280.875 335.226 282.133 335.056 283.206 335.085C283.721 335.11 284.119 335.381 284.399 335.896C284.586 336.24 284.638 336.615 284.554 337.023C284.436 337.42 284.195 337.719 283.83 337.917C283.658 338.011 283.442 338.073 283.18 338.104C281.104 338.176 279.111 338.732 277.2 339.772C273.915 341.559 273.226 344.202 275.131 347.701L276.306 349.858C276.942 347.397 278.333 345.583 280.48 344.415C281.747 343.725 283.151 343.365 284.692 343.333C286.224 343.335 287.715 343.748 289.166 344.572C290.629 345.418 291.851 346.742 292.833 348.546C293.815 350.349 294.259 352.083 294.164 353.748C294.081 355.435 293.618 356.911 292.776 358.176C291.925 359.475 290.865 360.468 289.599 361.158C287.452 362.326 285.172 362.509 282.759 361.707L283.197 362.512C283.42 362.92 283.467 363.339 283.34 363.77C283.224 364.222 282.963 364.56 282.555 364.782C282.147 365.004 281.722 365.04 281.279 364.892C280.826 364.776 280.489 364.514 280.267 364.107L272.428 349.714C270.955 347.01 270.476 344.571 270.991 342.399C271.506 340.227 272.976 338.48 275.402 337.16ZM281.324 347.42C280.315 347.969 279.541 348.669 279.002 349.518C278.462 350.368 278.037 351.351 277.726 352.466L281.339 359.099C282.445 359.443 283.501 359.62 284.508 359.629C285.514 359.637 286.522 359.367 287.531 358.818C289.142 357.942 290.193 356.73 290.686 355.182C291.169 353.667 290.908 351.986 289.902 350.14C288.897 348.294 287.621 347.152 286.074 346.714C284.517 346.308 282.934 346.544 281.324 347.42Z" class="fill-black dark:fill-white"/>
<path d="M260.32 353.568C261.329 353.196 262.345 353.056 263.369 353.147C264.37 353.247 265.266 353.594 266.059 354.188C266.859 354.805 267.45 355.629 267.831 356.661C268.457 358.358 268.291 359.956 267.333 361.455C266.352 362.963 264.566 364.194 261.974 365.15L257.812 366.684L257.913 366.959C258.472 368.472 259.252 369.422 260.254 369.808C261.234 370.203 262.514 370.108 264.097 369.525C264.968 369.204 265.723 368.848 266.36 368.456C266.974 368.074 267.643 367.593 268.367 367.013C268.534 366.9 268.675 366.822 268.789 366.779C269.133 366.653 269.478 366.669 269.823 366.828C270.169 366.987 270.409 367.25 270.544 367.617C270.773 368.236 270.635 368.782 270.132 369.254C268.487 370.798 266.656 371.942 264.638 372.686C263.055 373.269 261.607 373.439 260.292 373.194C258.954 372.958 257.843 372.416 256.957 371.571C256.058 370.756 255.388 369.753 254.948 368.56L251.356 358.826C251.196 358.39 251.221 357.964 251.432 357.548C251.62 357.14 251.932 356.855 252.368 356.695C252.804 356.534 253.226 356.548 253.634 356.736C254.042 356.924 254.326 357.236 254.487 357.672L254.817 358.566C255.871 356.198 257.705 354.532 260.32 353.568ZM260.165 356.751C259.156 357.123 258.27 357.723 257.508 358.551C256.754 359.402 256.191 360.313 255.819 361.284L256.885 364.173L260.635 362.791C264.098 361.514 265.495 359.97 264.827 358.159C264.523 357.333 264.002 356.77 263.265 356.468C262.506 356.175 261.473 356.269 260.165 356.751Z" class="fill-black dark:fill-white"/>
<path d="M247.681 381.67C248.178 381.542 248.65 381.611 249.096 381.875C249.542 382.139 249.829 382.519 249.957 383.017L249.993 383.159C250.121 383.656 250.053 384.127 249.789 384.574C249.525 385.02 249.144 385.307 248.647 385.434L248.434 385.489C247.937 385.616 247.465 385.548 247.019 385.284C246.572 385.02 246.285 384.639 246.158 384.142L246.121 384C245.994 383.503 246.062 383.031 246.326 382.585C246.59 382.139 246.97 381.852 247.468 381.724L247.681 381.67ZM241.968 359.706C242.418 359.591 242.836 359.647 243.223 359.876C243.61 360.105 243.861 360.444 243.976 360.894L247.886 376.129C248.002 376.579 247.945 376.997 247.716 377.384C247.493 377.794 247.157 378.057 246.707 378.172C246.234 378.294 245.804 378.24 245.417 378.011C245.03 377.782 244.776 377.431 244.654 376.958L240.744 361.723C240.629 361.273 240.697 360.852 240.95 360.459C241.179 360.072 241.518 359.821 241.968 359.706Z" class="fill-black dark:fill-white"/>
<path d="M231.286 362.292C231.746 362.225 232.156 362.326 232.516 362.595C232.876 362.864 233.089 363.228 233.156 363.688L235.417 379.253C235.484 379.713 235.382 380.122 235.114 380.482C234.848 380.867 234.486 381.092 234.026 381.159C233.567 381.226 233.155 381.112 232.792 380.819C232.407 380.554 232.182 380.192 232.115 379.732L231.899 378.244C231.127 379.394 230.253 380.348 229.277 381.107C228.3 381.866 227.086 382.351 225.635 382.562C224.305 382.755 223.11 382.607 222.051 382.119C220.968 381.634 220.093 380.884 219.427 379.869C218.737 378.858 218.297 377.699 218.107 376.393L216.611 366.088C216.544 365.629 216.657 365.217 216.95 364.854C217.219 364.494 217.583 364.28 218.043 364.214C218.503 364.147 218.912 364.248 219.272 364.517C219.633 364.786 219.846 365.15 219.913 365.609L221.357 375.551C221.785 378.502 223.33 379.784 225.991 379.398C227.2 379.223 228.243 378.75 229.119 377.981C229.971 377.215 230.743 376.239 231.435 375.052L229.854 364.167C229.788 363.707 229.901 363.296 230.194 362.932C230.463 362.572 230.827 362.359 231.286 362.292Z" class="fill-black dark:fill-white"/>
<path d="M195.351 365.528C195.813 365.577 196.185 365.776 196.467 366.126C196.75 366.476 196.866 366.881 196.817 367.343L195.153 382.983C195.104 383.445 194.904 383.817 194.555 384.099C194.203 384.406 193.796 384.535 193.334 384.486C192.872 384.437 192.501 384.225 192.221 383.851C191.915 383.499 191.786 383.092 191.835 382.631L191.994 381.136C191.21 382.036 190.311 382.751 189.295 383.282C188.256 383.811 186.971 383.994 185.439 383.831C184.078 383.686 182.95 383.198 182.056 382.365C181.161 381.533 180.563 380.572 180.261 379.483C178.488 381.826 176.118 382.84 173.153 382.525C171.792 382.38 170.698 381.92 169.871 381.143C169.02 380.365 168.433 379.417 168.109 378.301C167.785 377.186 167.685 376.044 167.81 374.878L168.927 364.378C168.976 363.916 169.187 363.545 169.561 363.265C169.911 362.983 170.317 362.866 170.778 362.916C171.24 362.965 171.612 363.164 171.895 363.514C172.177 363.863 172.294 364.269 172.244 364.731L171.197 374.574C171.029 376.154 171.186 377.338 171.667 378.127C172.146 378.94 173.066 379.418 174.427 379.563C175.666 379.695 176.734 379.477 177.631 378.908C178.5 378.362 179.306 377.599 180.049 376.621L181.213 365.684C181.262 365.222 181.474 364.851 181.848 364.572C182.197 364.289 182.603 364.173 183.065 364.222C183.527 364.271 183.899 364.47 184.181 364.82C184.463 365.169 184.58 365.575 184.531 366.037L183.483 375.88C183.315 377.46 183.472 378.644 183.953 379.433C184.432 380.246 185.352 380.725 186.713 380.869C187.953 381.001 189.021 380.783 189.917 380.214C190.786 379.668 191.592 378.905 192.336 377.928L193.499 366.99C193.549 366.528 193.76 366.158 194.134 365.878C194.484 365.596 194.889 365.479 195.351 365.528Z" class="fill-black dark:fill-white"/>
<path d="M157.131 359.309C158.164 359.609 159.065 360.1 159.834 360.782C160.579 361.457 161.094 362.269 161.378 363.217C161.655 364.188 161.64 365.202 161.332 366.258C160.826 367.995 159.743 369.182 158.081 369.818C156.395 370.448 154.227 370.377 151.575 369.606L147.315 368.366L147.233 368.648C146.782 370.197 146.845 371.424 147.421 372.33C147.974 373.229 149.06 373.914 150.679 374.385C151.571 374.645 152.39 374.806 153.135 374.87C153.856 374.928 154.681 374.938 155.608 374.902C155.809 374.91 155.968 374.931 156.086 374.965C156.438 375.068 156.705 375.285 156.888 375.619C157.071 375.952 157.108 376.306 156.999 376.682C156.814 377.315 156.379 377.673 155.694 377.753C153.453 378.018 151.3 377.85 149.235 377.249C147.615 376.778 146.35 376.053 145.438 375.075C144.503 374.09 143.931 372.995 143.722 371.789C143.483 370.599 143.541 369.394 143.896 368.174L146.797 358.212C146.927 357.766 147.2 357.438 147.618 357.229C148.012 357.012 148.432 356.969 148.877 357.099C149.323 357.228 149.655 357.49 149.871 357.884C150.087 358.278 150.13 358.698 150 359.144L149.734 360.059C151.99 358.781 154.456 358.531 157.131 359.309ZM155.114 361.777C154.082 361.476 153.013 361.433 151.907 361.645C150.794 361.882 149.8 362.28 148.924 362.84L148.063 365.797L151.901 366.913C155.444 367.944 157.486 367.532 158.026 365.678C158.272 364.834 158.189 364.071 157.776 363.391C157.339 362.704 156.452 362.166 155.114 361.777Z" class="fill-black dark:fill-white"/>
<path d="M138.657 353.436C139.081 353.625 139.374 353.928 139.536 354.348C139.697 354.767 139.684 355.189 139.496 355.613L129.842 377.361C129.654 377.786 129.35 378.079 128.931 378.241C128.501 378.424 128.074 378.422 127.65 378.234C127.225 378.046 126.937 377.731 126.786 377.289C126.602 376.86 126.604 376.433 126.792 376.009L132.876 362.303L121.627 366.138C121.163 366.28 120.763 366.276 120.428 366.128C119.914 365.9 119.61 365.591 119.515 365.202C119.399 364.802 119.429 364.401 119.608 363.999C119.776 363.62 120.135 363.324 120.683 363.113L127.428 360.93L124.932 350.197C124.837 349.808 124.859 349.457 124.998 349.144C125.197 348.697 125.501 348.404 125.91 348.265C126.319 348.126 126.748 348.155 127.194 348.353C127.418 348.452 127.617 348.607 127.79 348.818C127.964 349.029 128.085 349.269 128.152 349.54L130.436 359.938L134.527 358.583L136.446 354.261C136.634 353.836 136.949 353.548 137.391 353.396C137.81 353.235 138.232 353.248 138.657 353.436Z" class="fill-black dark:fill-white"/>
<path d="M113.507 340.441C116.046 342.005 117.591 343.947 118.142 346.267C118.659 348.595 118.109 351.07 116.493 353.692C115.582 355.169 114.472 356.365 113.161 357.28C111.85 358.195 110.396 358.692 108.797 358.769C107.199 358.847 105.577 358.379 103.933 357.366C102.393 356.418 101.286 355.233 100.611 353.813C99.9235 352.413 99.6603 350.931 99.8216 349.365C99.9701 347.82 100.48 346.34 101.353 344.926C101.596 344.53 101.937 344.281 102.374 344.177C102.791 344.06 103.217 344.136 103.655 344.406L114.237 350.924C114.968 349.365 115.126 347.898 114.711 346.522C114.296 345.147 113.266 343.953 111.622 342.94C110.748 342.402 109.937 342.017 109.189 341.786C108.42 341.542 107.628 341.384 106.811 341.312C106.593 341.293 106.38 341.219 106.172 341.091C105.839 340.885 105.618 340.592 105.51 340.209C105.401 339.826 105.456 339.458 105.674 339.104C105.956 338.647 106.464 338.428 107.197 338.45C108.291 338.492 109.304 338.642 110.236 338.9C111.168 339.159 112.258 339.672 113.507 340.441ZM103.604 347.561C103.038 348.619 102.783 349.639 102.838 350.62C102.873 351.589 103.137 352.441 103.631 353.176C104.113 353.932 104.707 354.528 105.415 354.963C106.123 355.399 106.922 355.662 107.814 355.752C108.694 355.863 109.574 355.717 110.455 355.312C111.336 354.907 112.122 354.215 112.813 353.234L103.604 347.561Z" class="fill-black dark:fill-white"/>
<path d="M86.6006 319.765C88.7674 321.814 89.884 324.03 89.9504 326.413C89.9821 328.798 88.9396 331.109 86.8228 333.346C85.6301 334.606 84.2988 335.551 82.829 336.179C81.3592 336.808 79.834 336.997 78.2533 336.747C76.6726 336.498 75.1807 335.709 73.7775 334.383C72.4632 333.14 71.6205 331.755 71.2494 330.227C70.8615 328.716 70.9061 327.211 71.3831 325.711C71.8434 324.229 72.6447 322.885 73.7871 321.677C74.1063 321.34 74.4906 321.165 74.9399 321.153C75.3714 321.123 75.7736 321.285 76.1466 321.638L85.1782 330.176C86.2121 328.799 86.6659 327.395 86.5396 325.964C86.4133 324.533 85.6486 323.154 84.2454 321.827C83.4995 321.122 82.784 320.58 82.099 320.201C81.3962 319.806 80.6524 319.49 79.8676 319.252C79.6583 319.189 79.4649 319.073 79.2873 318.905C79.0031 318.637 78.8468 318.304 78.8185 317.907C78.7901 317.51 78.9188 317.161 79.2044 316.859C79.574 316.469 80.1157 316.359 80.8295 316.529C81.8917 316.793 82.8527 317.147 83.7125 317.59C84.5722 318.032 85.5349 318.757 86.6006 319.765ZM75.4541 324.716C74.6842 325.637 74.2263 326.583 74.0804 327.555C73.9168 328.51 74.002 329.398 74.3361 330.219C74.6534 331.057 75.114 331.761 75.7179 332.332C76.3218 332.903 77.0512 333.324 77.9061 333.594C78.7442 333.882 79.6359 333.917 80.581 333.701C81.5261 333.484 82.4369 332.966 83.3134 332.147L75.4541 324.716Z" class="fill-black dark:fill-white"/>
<path d="M72.4718 304.628C74.7636 307.364 74.6725 309.767 72.1985 311.838L63.4833 319.133L65.155 321.128C65.2806 321.278 65.3436 321.449 65.3441 321.639C65.3101 321.827 65.2182 321.984 65.0682 322.109C64.8808 322.266 64.6509 322.315 64.3784 322.257L57.437 321.564C57.1271 321.537 56.9093 321.448 56.7837 321.298C56.6581 321.149 56.6123 320.98 56.6463 320.792C56.6646 320.585 56.7487 320.419 56.8986 320.294L59.1477 318.411L56.487 315.236C56.2201 314.917 56.1035 314.568 56.137 314.19C56.1705 313.811 56.3465 313.488 56.6651 313.222C56.965 312.971 57.3138 312.854 57.7113 312.872C58.0902 312.905 58.413 313.081 58.6799 313.4L61.3406 316.576L69.8309 309.469C70.5619 308.857 70.8891 308.296 70.8128 307.786C70.7019 307.273 70.4268 306.754 69.9872 306.23C69.6733 305.855 69.3031 305.527 68.8767 305.247C68.7952 305.188 68.7137 305.128 68.6321 305.069C68.5349 304.991 68.4313 304.887 68.3215 304.755C68.1017 304.493 68.0086 304.173 68.0421 303.794C68.0568 303.431 68.2048 303.132 68.4859 302.896C68.917 302.536 69.4255 302.477 70.0114 302.719C70.961 303.167 71.7811 303.804 72.4718 304.628Z" class="fill-black dark:fill-white"/>
<path d="M65.4189 296.002C65.6719 296.391 65.7517 296.806 65.6582 297.245C65.5647 297.685 65.3232 298.031 64.9337 298.284L44.9737 311.237C44.5842 311.489 44.1696 311.569 43.73 311.475C43.2698 311.395 42.9133 311.16 42.6603 310.771C42.4074 310.382 42.3378 309.96 42.4518 309.508C42.532 309.048 42.7668 308.691 43.1564 308.439L51.1834 303.229C49.8163 303.009 48.5836 302.615 47.4852 302.045C46.3868 301.476 45.4382 300.577 44.6393 299.347C43.907 298.219 43.5411 297.073 43.5417 295.907C43.5289 294.721 43.844 293.613 44.4871 292.584C45.1168 291.534 45.9852 290.65 47.0924 289.931L55.8268 284.263C56.2164 284.01 56.6376 283.941 57.0906 284.055C57.5302 284.148 57.8765 284.39 58.1294 284.779C58.3824 285.169 58.4622 285.583 58.3687 286.023C58.2753 286.462 58.0337 286.808 57.6442 287.061L49.2173 292.53C46.7159 294.153 46.1975 296.092 47.6621 298.347C48.3278 299.372 49.1935 300.121 50.2591 300.595C51.3114 301.048 52.5217 301.341 53.8898 301.473L63.1163 295.486C63.5058 295.233 63.9271 295.163 64.38 295.277C64.8197 295.371 65.166 295.612 65.4189 296.002Z" class="fill-black dark:fill-white"/>
<path d="M50.144 269.062C51.3961 271.768 51.6108 274.24 50.7881 276.479C49.9329 278.705 48.1076 280.464 45.312 281.756C43.7368 282.485 42.1501 282.868 40.5521 282.906C38.954 282.945 37.4675 282.555 36.0923 281.737C34.7172 280.918 33.6243 279.633 32.8135 277.88C32.054 276.239 31.7855 274.64 32.0078 273.083C32.2079 271.536 32.8077 270.155 33.8072 268.939C34.7845 267.733 36.0275 266.782 37.5362 266.084C37.9577 265.89 38.3794 265.87 38.8012 266.025C39.2128 266.158 39.5264 266.457 39.7419 266.923L44.9607 278.203C46.4316 277.308 47.374 276.172 47.7877 274.796C48.2014 273.42 48.0029 271.856 47.1921 270.103C46.761 269.171 46.2977 268.403 45.802 267.797C45.2961 267.169 44.7228 266.6 44.0821 266.088C43.9113 265.951 43.7745 265.772 43.6719 265.551C43.5077 265.196 43.486 264.829 43.6069 264.45C43.7278 264.071 43.9769 263.794 44.354 263.62C44.8421 263.394 45.386 263.493 45.9857 263.916C46.874 264.555 47.6352 265.24 48.2693 265.97C48.9033 266.7 49.5282 267.731 50.144 269.062ZM37.9565 269.525C36.9002 270.094 36.124 270.803 35.6278 271.652C35.1215 272.478 34.8712 273.334 34.8771 274.22C34.8608 275.116 35.0271 275.942 35.3761 276.696C35.725 277.45 36.2463 278.111 36.94 278.679C37.6115 279.257 38.4262 279.621 39.3841 279.771C40.3421 279.92 41.38 279.777 42.498 279.341L37.9565 269.525Z" class="fill-black dark:fill-white"/>
<path d="M43.9927 254.419C44.1378 254.861 44.1089 255.282 43.9063 255.683C43.7036 256.084 43.3817 256.357 42.9404 256.502L27.9971 261.409C27.5558 261.554 27.1347 261.525 26.7336 261.322C26.3092 261.127 26.0246 260.809 25.8796 260.368C25.7345 259.927 25.775 259.502 26.0009 259.093C26.1959 258.669 26.514 258.384 26.9552 258.24L28.4531 257.748C25.7359 256.839 24.0453 255.375 23.3813 253.355L23.3241 253.181C23.179 252.739 23.2117 252.33 23.422 251.952C23.6246 251.551 23.9466 251.278 24.3878 251.133C24.829 250.988 25.2386 251.021 25.6165 251.231C25.9943 251.442 26.2596 251.779 26.4123 252.244L26.4695 252.418C26.8359 253.532 27.4504 254.462 28.313 255.208C29.1524 255.962 30.1512 256.495 31.3094 256.81L41.8986 253.332C42.3398 253.187 42.7648 253.228 43.1736 253.454C43.5747 253.656 43.8477 253.978 43.9927 254.419Z" class="fill-black dark:fill-white"/>
<path d="M38.3192 232.977C38.9142 235.899 38.5536 238.355 37.2375 240.343C35.8925 242.313 33.711 243.605 30.6931 244.219C28.9926 244.565 27.3603 244.573 25.7964 244.242C24.2325 243.912 22.8758 243.19 21.7263 242.077C20.5767 240.964 19.8093 239.462 19.424 237.569C19.0631 235.797 19.1701 234.179 19.7451 232.715C20.2961 231.256 21.1979 230.05 22.4506 229.097C23.6792 228.148 25.1079 227.509 26.7367 227.177C27.1917 227.085 27.6067 227.162 27.9814 227.41C28.3513 227.634 28.5875 227.998 28.6899 228.501L31.1698 240.68C32.8074 240.147 33.986 239.259 34.7055 238.015C35.425 236.771 35.5921 235.203 35.2069 233.311C35.002 232.305 34.7282 231.45 34.3854 230.747C34.0378 230.019 33.6111 229.333 33.1055 228.688C32.9707 228.515 32.8789 228.31 32.8302 228.07C32.7521 227.687 32.8156 227.325 33.0205 226.984C33.2255 226.643 33.5315 226.431 33.9387 226.348C34.4657 226.241 34.9722 226.462 35.4582 227.012C36.1754 227.839 36.7583 228.68 37.2071 229.537C37.6559 230.393 38.0266 231.54 38.3192 232.977ZM26.3531 230.622C25.1941 230.933 24.2755 231.444 23.5973 232.156C22.9142 232.844 22.4735 233.619 22.2751 234.483C22.0528 235.351 22.0246 236.192 22.1904 237.007C22.3562 237.821 22.7112 238.584 23.2554 239.297C23.7756 240.014 24.4845 240.556 25.3822 240.922C26.2799 241.288 27.3229 241.388 28.5112 241.221L26.3531 230.622Z" class="fill-black dark:fill-white"/>
<path d="M35.4703 212.59C35.5499 213.932 35.3021 215.122 34.7271 216.16C34.1506 217.173 33.3293 217.981 32.2631 218.583C31.1955 219.16 30.003 219.488 28.6854 219.566L18.2912 220.182C17.8276 220.21 17.4278 220.074 17.0918 219.776C16.7544 219.453 16.5719 219.06 16.5444 218.596C16.5169 218.133 16.6524 217.733 16.9508 217.397C17.2491 217.061 17.6301 216.879 18.0937 216.852L28.1219 216.257C31.0986 216.081 32.5074 214.651 32.3482 211.967C32.2759 210.747 31.8943 209.68 31.2035 208.766C30.5112 207.828 29.603 206.963 28.4787 206.173L17.499 206.823C17.0354 206.851 16.6356 206.715 16.2996 206.417C15.9622 206.094 15.7797 205.701 15.7522 205.237C15.7247 204.774 15.8601 204.374 16.1585 204.038C16.4569 203.702 16.8379 203.52 17.3015 203.493L33.0025 202.563C33.4661 202.535 33.8781 202.67 34.2385 202.967C34.5745 203.265 34.7563 203.646 34.7837 204.11C34.8112 204.573 34.6765 204.985 34.3796 205.346C34.0568 205.683 33.6636 205.866 33.2 205.893L31.6995 205.982C32.7792 206.849 33.6559 207.8 34.3296 208.838C35.0032 209.875 35.3835 211.126 35.4703 212.59Z" class="fill-black dark:fill-white"/>
<path d="M34.4832 192.579C34.4264 193.04 34.2208 193.409 33.8666 193.685C33.5124 193.962 33.1048 194.072 32.6439 194.015L17.0332 192.092C16.5723 192.036 16.2036 191.83 15.9271 191.476C15.6264 191.119 15.5044 190.71 15.5612 190.249C15.618 189.788 15.8357 189.421 16.2142 189.147C16.5714 188.846 16.9805 188.724 17.4414 188.781L18.9333 188.965C18.0467 188.166 17.3463 187.255 16.8322 186.231C16.3211 185.183 16.1597 183.895 16.3481 182.367C16.5156 181.008 17.023 179.889 17.8704 179.008C18.7178 178.127 19.6884 177.545 20.7824 177.261C18.4691 175.449 17.4949 173.063 17.8597 170.104C18.0272 168.745 18.5058 167.659 19.2957 166.845C20.0886 166.007 21.0457 165.435 22.1669 165.13C23.2881 164.825 24.4309 164.744 25.5953 164.888L36.0752 166.178C36.5361 166.235 36.9033 166.453 37.1768 166.831C37.4533 167.185 37.5632 167.593 37.5064 168.054C37.4495 168.515 37.244 168.883 36.8898 169.16C36.5355 169.436 36.128 169.546 35.667 169.49L25.8422 168.28C24.2653 168.085 23.0786 168.222 22.2821 168.691C21.4613 169.156 20.9672 170.068 20.7997 171.426C20.6472 172.664 20.8476 173.735 21.4009 174.64C21.933 175.519 22.6817 176.337 23.6471 177.097L34.5636 178.441C35.0245 178.498 35.3918 178.715 35.6653 179.094C35.9418 179.448 36.0516 179.856 35.9948 180.316C35.938 180.777 35.7324 181.146 35.3782 181.423C35.024 181.699 34.6164 181.809 34.1555 181.752L24.3306 180.542C22.7537 180.348 21.5671 180.485 20.7705 180.953C19.9497 181.419 19.4556 182.331 19.2881 183.689C19.1356 184.926 19.336 185.998 19.8894 186.903C20.4214 187.781 21.1701 188.6 22.1355 189.359L33.052 190.704C33.513 190.76 33.8802 190.978 34.1537 191.357C34.4302 191.711 34.54 192.118 34.4832 192.579Z" class="fill-black dark:fill-white"/>
<path d="M46.2243 140.13C45.5956 141.774 44.6495 143.152 43.3862 144.266C42.1229 145.379 40.6448 146.096 38.9517 146.417C37.2675 146.716 35.5007 146.511 33.6513 145.805C31.8019 145.098 30.3495 144.072 29.294 142.726C28.2472 141.358 27.6248 139.838 27.4269 138.166C27.229 136.495 27.4444 134.837 28.0732 133.193C28.536 131.983 29.0932 131.006 29.7447 130.26C30.382 129.483 31.0846 128.81 31.8522 128.24C32.3237 127.897 32.8106 127.821 33.3128 128.013C33.6553 128.144 33.9226 128.403 34.1146 128.79C34.2925 129.146 34.316 129.495 34.185 129.838C34.0889 130.089 33.9244 130.314 33.6913 130.513C33.015 131.118 32.4921 131.663 32.1227 132.15C31.7392 132.606 31.3946 133.233 31.089 134.032C30.338 135.995 30.3193 137.754 31.033 139.309C31.7238 140.855 32.9939 141.982 34.8433 142.688C36.6927 143.395 38.4021 143.407 39.9716 142.725C41.5182 142.034 42.6671 140.707 43.4181 138.744C43.7237 137.945 43.8971 137.252 43.9381 136.666C43.965 136.048 43.9285 135.288 43.8286 134.387C43.7876 134.083 43.8152 133.806 43.9113 133.555C44.0422 133.212 44.3042 132.972 44.697 132.835C45.0758 132.665 45.4364 132.646 45.7789 132.777C46.2812 132.969 46.5934 133.35 46.7156 133.92C46.9069 134.857 46.9921 135.831 46.9711 136.844C46.9361 137.825 46.6872 138.92 46.2243 140.13Z" class="fill-black dark:fill-white"/>
<path d="M55.0564 121.162C54.1471 122.81 52.9969 124.06 51.6056 124.912C50.2143 125.764 48.6876 126.178 47.0254 126.155C45.3537 126.098 43.683 125.61 42.0134 124.689C40.3438 123.769 39.0499 122.623 38.1317 121.252C37.2039 119.847 36.7292 118.329 36.7078 116.699C36.6863 115.068 37.1302 113.429 38.0395 111.781C38.937 110.155 40.0813 108.915 41.4726 108.064C42.8639 107.212 44.4013 106.803 46.0849 106.838C47.747 106.862 49.4129 107.334 51.0825 108.254C52.7521 109.174 54.0508 110.337 54.9786 111.742C55.885 113.134 56.349 114.646 56.3704 116.277C56.3919 117.907 55.9539 119.536 55.0564 121.162ZM52.3915 119.693C52.8757 118.816 53.1329 117.869 53.1631 116.853C53.2051 115.816 52.929 114.798 52.3349 113.801C51.7525 112.782 50.787 111.901 49.4385 111.157C48.1114 110.426 46.8614 110.086 45.6886 110.137C44.5276 110.167 43.5301 110.482 42.6961 111.083C41.8525 111.65 41.1886 112.373 40.7044 113.25C40.2084 114.149 39.9394 115.117 39.8974 116.155C39.8458 117.159 40.1171 118.16 40.7112 119.157C41.3054 120.154 42.2661 121.019 43.5932 121.751C44.9417 122.494 46.1965 122.851 47.3575 122.821C48.5185 122.791 49.5208 122.493 50.3644 121.925C51.2198 121.336 51.8955 120.592 52.3915 119.693Z" class="fill-black dark:fill-white"/>
<path d="M68.1789 100.821C67.0384 102.318 65.7177 103.386 64.2168 104.026C62.7159 104.665 61.145 104.851 59.504 104.585C57.8584 104.285 56.2771 103.558 54.76 102.403C53.2429 101.249 52.1304 99.9259 51.4225 98.435C50.71 96.9098 50.4624 95.3391 50.6796 93.7229C50.8968 92.1067 51.5756 90.55 52.7161 89.0529C53.8417 87.5752 55.155 86.5167 56.6559 85.8775C58.1568 85.2382 59.7375 85.059 61.3979 85.3398C63.0388 85.6057 64.6179 86.316 66.135 87.4706C67.6521 88.6252 68.7669 89.9651 69.4794 91.4903C70.1724 93.0006 70.4103 94.5639 70.1931 96.1801C69.9759 97.7963 69.3045 99.3433 68.1789 100.821ZM65.7573 98.9781C66.3646 98.1809 66.7575 97.2819 66.9359 96.2813C67.1292 95.2612 67.0048 94.2143 66.5629 93.1408C66.1357 92.0478 65.3094 91.035 64.0841 90.1025C62.8782 89.1847 61.6913 88.6654 60.5236 88.5446C59.3707 88.4043 58.3378 88.5704 57.4248 89.0428C56.5073 89.481 55.7449 90.0986 55.1376 90.8958C54.5155 91.7124 54.1079 92.6308 53.9146 93.6509C53.7167 94.6368 53.8387 95.6665 54.2807 96.74C54.7227 97.8136 55.5466 98.8092 56.7525 99.727C57.9779 100.66 59.167 101.196 60.3199 101.336C61.4729 101.477 62.5081 101.328 63.4257 100.889C64.358 100.432 65.1353 99.7947 65.7573 98.9781Z" class="fill-black dark:fill-white"/>
<path d="M79.3361 87.2686C79.0172 87.6062 78.6331 87.7814 78.1838 87.7943C77.7346 87.8072 77.3411 87.6542 77.0033 87.3355L59.6995 71.0028C59.3618 70.6841 59.1865 70.3002 59.1736 69.8511C59.143 69.3852 59.2871 68.9835 59.606 68.6459C59.9417 68.2906 60.3342 68.1065 60.7835 68.0936C61.2328 68.0807 61.6352 68.2421 61.9907 68.5776L79.2945 84.9102C79.6322 85.229 79.7991 85.6218 79.7952 86.0887C79.8081 86.5377 79.6551 86.9311 79.3361 87.2686Z" class="fill-black dark:fill-white"/>
<path d="M98.1591 70.2114C97.2996 70.8578 96.3664 71.2844 95.3595 71.4911C94.3721 71.6832 93.4137 71.6089 92.4841 71.2681C91.5399 70.9079 90.737 70.2884 90.0755 69.4096C88.9877 67.9645 88.6869 66.3863 89.1731 64.675C89.6789 62.949 91.0354 61.256 93.2428 59.5959L96.7883 56.9294L96.6119 56.6951C95.6417 55.4062 94.6212 54.7211 93.5503 54.6396C92.4989 54.5434 91.2992 55.0021 89.9514 56.0158C89.2091 56.5741 88.589 57.1321 88.0912 57.6901C87.6129 58.2333 87.1103 58.8865 86.5834 59.6497C86.4566 59.8063 86.3443 59.9213 86.2466 59.9948C85.9536 60.2151 85.6188 60.2987 85.2422 60.2455C84.8657 60.1923 84.5598 60.0095 84.3246 59.697C83.9277 59.1698 83.9023 58.6078 84.2485 58.011C85.3798 56.0592 86.8049 54.4369 88.5239 53.1441C89.8718 52.1304 91.2106 51.5517 92.5403 51.408C93.8895 51.2496 95.1098 51.4482 96.201 52.0037C97.2971 52.5251 98.2273 53.2935 98.9917 54.3089L105.232 62.5985C105.511 62.9696 105.61 63.3848 105.527 63.8444C105.464 64.2892 105.247 64.6512 104.876 64.9304C104.505 65.2095 104.097 65.3176 103.652 65.2547C103.207 65.1919 102.845 64.9749 102.565 64.6039L101.992 63.8423C101.664 66.4136 100.386 68.5366 98.1591 70.2114ZM97.3914 67.1188C98.2509 66.4724 98.9268 65.643 99.419 64.6305C99.8965 63.5986 100.174 62.5645 100.25 61.5282L98.3979 59.0677L95.2041 61.4697C92.2544 63.6881 91.3602 65.5686 92.5215 67.1113C93.0506 67.8143 93.7113 68.2044 94.5036 68.2814C95.3153 68.3437 96.2779 67.9562 97.3914 67.1188Z" class="fill-black dark:fill-white"/>
<path d="M124.297 63.0059C123.053 63.6863 121.711 64.2119 120.269 64.5825C118.828 64.9531 117.571 65.1255 116.498 65.0997C115.983 65.075 115.584 64.8054 115.303 64.2909C115.115 63.9479 115.063 63.5725 115.146 63.1648C115.262 62.7668 115.503 62.468 115.867 62.2686C116.039 62.1747 116.255 62.112 116.517 62.0804C118.592 62.0035 120.584 61.4429 122.493 60.3988C125.774 58.6038 126.457 55.9591 124.543 52.4647L123.364 50.3101C122.733 52.7724 121.346 54.5901 119.202 55.7633C117.937 56.4555 116.534 56.8192 114.992 56.8545C113.461 56.8566 111.969 56.4472 110.516 55.6261C109.051 54.7836 107.826 53.462 106.84 51.6612C105.853 49.8604 105.406 48.1271 105.497 46.4613C105.576 44.7741 106.035 43.2971 106.874 42.0301C107.723 40.73 108.779 39.7338 110.045 39.0416C112.189 37.8684 114.468 37.68 116.883 38.4763L116.443 37.6724C116.22 37.2651 116.171 36.8458 116.297 36.4146C116.412 35.962 116.673 35.6242 117.08 35.4013C117.487 35.1784 117.913 35.1407 118.356 35.2883C118.809 35.4028 119.147 35.6637 119.37 36.071L127.241 50.4452C128.721 53.1464 129.205 55.5837 128.696 57.7572C128.186 59.9306 126.72 61.6802 124.297 63.0059ZM118.351 52.7599C119.359 52.2085 120.132 51.5073 120.669 50.6562C121.206 49.805 121.629 48.8215 121.937 47.7054L118.309 41.0811C117.203 40.7393 116.146 40.5652 115.139 40.5588C114.132 40.5524 113.125 40.8249 112.117 41.3763C110.509 42.2562 109.46 43.4708 108.971 45.0201C108.492 46.5362 108.757 48.2161 109.767 50.0598C110.776 51.9034 112.055 53.0426 113.603 53.4774C115.16 53.879 116.743 53.6398 118.351 52.7599Z" class="fill-black dark:fill-white"/>
<path d="M139.343 46.5623C138.335 46.9366 137.319 47.0792 136.295 46.9901C135.294 46.8924 134.396 46.5477 133.603 45.9558C132.801 45.3411 132.208 44.5182 131.825 43.4872C131.195 41.7917 131.357 40.1932 132.312 38.6917C133.289 37.1817 135.072 35.9461 137.661 34.9848L141.82 33.4408L141.718 33.1659C141.156 31.6537 140.374 30.7058 139.371 30.3221C138.391 29.9298 137.11 30.0272 135.529 30.6142C134.658 30.9374 133.905 31.2954 133.268 31.6881C132.655 32.0722 131.987 32.5549 131.264 33.1361C131.098 33.25 130.957 33.3282 130.843 33.3707C130.499 33.4983 130.154 33.4829 129.809 33.3245C129.463 33.166 129.222 32.9035 129.086 32.5369C128.856 31.9183 128.992 31.3724 129.494 30.8992C131.135 29.3513 132.964 28.203 134.981 27.4544C136.562 26.8675 138.01 26.6948 139.325 26.9365C140.664 27.1697 141.776 27.7083 142.664 28.5521C143.565 29.3646 144.237 30.3665 144.68 31.5579L148.294 41.2839C148.456 41.7192 148.432 42.1453 148.221 42.5623C148.034 42.9707 147.723 43.2557 147.288 43.4174C146.852 43.579 146.43 43.5662 146.022 43.3789C145.613 43.1917 145.328 42.8804 145.166 42.4451L144.834 41.5515C143.786 43.9223 141.955 45.5926 139.343 46.5623ZM139.49 43.3791C140.498 43.0048 141.383 42.4027 142.143 41.5728C142.896 40.7199 143.456 39.8078 143.825 38.8365L142.753 35.9496L139.006 37.3405C135.546 38.625 134.152 40.1723 134.825 41.9823C135.132 42.8071 135.653 43.3695 136.391 43.6694C137.151 43.9607 138.184 43.864 139.49 43.3791Z" class="fill-black dark:fill-white"/>
<path d="M151.912 18.4326C151.415 18.5613 150.943 18.4941 150.496 18.2311C150.049 17.9681 149.761 17.5881 149.633 17.0912L149.596 16.9493C149.467 16.4524 149.534 15.9806 149.797 15.5338C150.06 15.087 150.44 14.7992 150.937 14.6706L151.15 14.6154C151.647 14.4868 152.119 14.5539 152.566 14.817C153.013 15.08 153.3 15.4599 153.429 15.9568L153.466 16.0987C153.595 16.5956 153.528 17.0675 153.265 17.5143C153.002 17.9611 152.622 18.2488 152.125 18.3775L151.912 18.4326ZM157.676 40.3831C157.227 40.4995 156.808 40.4437 156.421 40.2158C156.034 39.9878 155.782 39.6491 155.665 39.1995L151.719 23.9739C151.603 23.5244 151.659 23.106 151.886 22.7188C152.108 22.3079 152.444 22.0442 152.894 21.9278C153.367 21.8053 153.797 21.858 154.184 22.0859C154.572 22.3139 154.827 22.6644 154.949 23.1377L158.895 38.3632C159.012 38.8128 158.944 39.2343 158.693 39.6276C158.465 40.0148 158.126 40.2667 157.676 40.3831Z" class="fill-black dark:fill-white"/>
<path d="M168.357 37.7711C167.898 37.8388 167.487 37.7387 167.127 37.4707C166.766 37.2027 166.552 36.839 166.484 36.3796L164.188 20.8196C164.12 20.3601 164.22 19.9501 164.488 19.5894C164.752 19.2045 165.114 18.9782 165.574 18.9105C166.033 18.8427 166.445 18.9549 166.809 19.2471C167.194 19.5115 167.42 19.8735 167.488 20.3329L167.708 21.82C168.477 20.6689 169.349 19.7127 170.323 18.9513C171.298 18.1899 172.511 17.7023 173.962 17.4884C175.292 17.2923 176.487 17.4373 177.547 17.9233C178.631 18.4058 179.507 19.1537 180.175 20.167C180.868 21.1766 181.311 22.3343 181.503 23.6401L183.024 33.9409C183.091 34.4003 182.979 34.8122 182.687 35.1764C182.419 35.5371 182.055 35.7513 181.596 35.8191C181.137 35.8868 180.726 35.7867 180.366 35.5187C180.005 35.2507 179.791 34.887 179.723 34.4276L178.256 24.4895C177.821 21.5395 176.273 20.2606 173.613 20.6527C172.404 20.831 171.363 21.3058 170.488 22.0771C169.638 22.8448 168.868 23.8231 168.179 25.0118L169.785 35.8929C169.852 36.3523 169.74 36.7642 169.448 37.1284C169.18 37.4891 168.816 37.7034 168.357 37.7711Z" class="fill-black dark:fill-white"/>
</svg>
